<svg width="24" height="24" viewBox="0 0 24 24" fill="none" xmlns="http://www.w3.org/2000/svg">
<g clip-path="url(#clip0_99_146)">
<circle cx="12" cy="12" r="11.5" fill="#137DDF" stroke="white"/>
<path d="M8.86956 6.06263H5.95216L5.68245 8.46146H8.75519L8.86956 6.06263Z" fill="white"/>
<path d="M12.4841 6.06263H9.56666L9.4886 8.46146H12.5613L12.4841 6.06263Z" fill="white"/>
<path d="M16.0985 6.06263H13.1804L13.2948 8.46146H16.3683L16.0985 6.06263Z" fill="white"/>
<path d="M8.73278 8.93365H5.62913L5.32309 11.6563H8.60294L8.73278 8.93365Z" fill="white"/>
<path d="M12.6518 11.2583C12.0327 11.1408 11.3704 11.0489 10.6656 10.9801L9.81784 10.8974V11.6563H9.38583L9.47394 8.93365H12.5768L12.6518 11.2583Z" fill="white"/>
<path d="M16.4718 9.38653C16.0746 10.0643 15.8056 10.8247 15.6665 11.6563H14.2979C14.022 11.5728 13.7353 11.4963 13.4369 11.4252L13.3172 8.93365H16.4208L16.4718 9.38653Z" fill="white"/>
<path d="M8.57744 12.1942H5.26281L4.91272 15.3118H8.42828L8.57744 12.1942Z" fill="white"/>
<path d="M10.9353 15.3118H9.26759L9.36806 12.1942H9.8333C9.91213 13.2955 10.2846 14.3426 10.9353 15.3118Z" fill="white"/>
<path d="M17.3397 5H4.71025L3 16.9378H10.3325V18.0939H9.58289V18.849H12.4671V18.0939H11.7174V16.9378H12.372C12.0729 16.6711 11.7993 16.3952 11.552 16.1124H3.97066L5.32387 5.52475H16.7261L17.1055 8.49547C17.2091 8.37414 17.3181 8.25667 17.4317 8.14229L17.7447 7.8293L17.3397 5Z" fill="white"/>
<path d="M16.9347 18.7678C14.8984 17.9579 10.5907 15.77 10.5907 11.749C12.7862 11.9616 14.3898 12.4005 15.5529 12.9639C15.5452 13.6324 15.6094 14.3388 15.7469 15.0776C15.6426 14.9848 15.5359 14.8944 15.427 14.8063C14.9679 14.4361 14.4578 14.1293 13.9246 13.8782C13.498 13.6765 13.0552 13.5296 12.6023 13.3975C13.0915 13.586 13.5591 13.7993 14.0112 14.0652C14.7167 14.4802 15.3412 15.032 15.869 15.6603C16.1689 16.9609 16.6194 18.0769 16.9347 18.7678Z" fill="white"/>
<path d="M18.427 18.9479C18.5461 18.6364 18.6496 18.3196 18.723 17.9927C18.9448 17.0019 18.9866 15.9864 18.8614 14.9787C18.7694 14.236 18.6094 13.474 18.3219 12.7808C18.4062 13.0667 18.4618 13.3635 18.5074 13.6587C18.6581 14.6255 18.6651 15.6139 18.5097 16.58C18.3861 17.3458 18.1357 18.0715 17.7848 18.7578C17.0715 17.2886 14.7832 11.8843 17.978 8.68946C23.6753 15.6108 19.8251 18.2678 18.427 18.9479Z" fill="white"/>
</g>
<defs>
<clipPath id="clip0_99_146">
<rect width="24" height="24" fill="white"/>
</clipPath>
</defs>
</svg>
