<svg width="24" height="24" viewBox="0 0 24 24" fill="none" xmlns="http://www.w3.org/2000/svg">
<g clip-path="url(#clip0_99_135)">
<circle cx="12" cy="12" r="11.5" fill="#137DDF" stroke="white"/>
<path d="M19.3513 11.9385C19.9143 11.494 20.1754 11.1272 20.1754 11.1272C20.1754 11.1272 20.1237 11.4355 19.5908 11.9526C17.8974 13.5958 18.2052 15.1367 18.6575 16.0866C22.624 14.562 20.3527 9.19498 20.3527 9.19498C20.3527 9.19498 20.3663 10.2439 19.0966 11.0143C16.0349 12.8722 16.47 15.7624 18.0423 16.1122C17.6699 15.0723 17.6306 13.297 19.3513 11.9385Z" fill="white"/>
<path d="M16.4844 15.4495C16.397 15.2527 16.3325 15.0382 16.2948 14.8095C16.2638 14.6212 16.251 14.4197 16.2596 14.2086C15.4013 13.4195 13.7269 12.8988 10.4971 13.9604C10.4971 13.9604 13.7192 19.0858 16.9479 16.2475C14.5549 14.4573 12.3877 14.4715 12.3877 14.4715C12.3877 14.4715 14.1136 13.9929 16.4844 15.4495Z" fill="white"/>
<path d="M10.1133 14.2017L9.8046 13.7106L10.3557 13.5295C11.6097 13.1173 12.732 12.9084 13.6916 12.9084C14.8224 12.9084 15.7412 13.1924 16.4258 13.7527C16.6096 12.7626 17.2771 11.6328 18.7246 10.7116C18.3086 9.48342 17.1463 8.59947 15.7777 8.59947C15.4044 8.59947 15.0465 8.66527 14.7148 8.78588C14.0325 7.12089 12.35 6.00052 10.4512 6C7.91998 6 5.8681 7.96812 5.8681 10.3958C5.86822 10.4939 5.8721 10.5919 5.87882 10.6898C5.81303 10.6841 5.7471 10.6812 5.68104 10.6804C4.20052 10.6803 3.00013 11.8315 3 13.2516C3 14.6718 4.20039 15.8232 5.68117 15.8232C5.93725 15.8228 8.58611 15.827 11.4427 15.8317C10.6491 15.0429 10.1545 14.2675 10.1133 14.2017Z" fill="white"/>
</g>
<defs>
<clipPath id="clip0_99_135">
<rect width="24" height="24" fill="white"/>
</clipPath>
</defs>
</svg>
