<svg width="24" height="24" viewBox="0 0 24 24" fill="none" xmlns="http://www.w3.org/2000/svg">
<g clip-path="url(#clip0_99_120)">
<circle cx="12" cy="12" r="11.5" fill="#137DDF" stroke="white"/>
<path fill-rule="evenodd" clip-rule="evenodd" d="M11.6953 11.1147C11.6556 11.6304 11.8395 12.7086 12.2867 14.371C12.7951 16.2461 13.4154 18.1249 14.1474 20H5.79941C6.72616 17.4037 7.33919 15.5429 7.63489 14.4287C7.93058 13.3252 8.11088 12.2218 8.1794 11.1183H11.6953V11.1147Z" fill="white"/>
<path d="M14.9828 20L13.5079 15.5754C13.5262 15.5129 13.5434 15.4528 13.5596 15.3951C13.8156 14.4828 13.9707 13.5704 14.0356 12.6545H17.043C17.0214 13.1016 17.1764 13.9959 17.5587 15.3482C17.995 16.8988 18.5287 18.4494 19.1597 20H15.359H14.9828Z" fill="white"/>
<path fill-rule="evenodd" clip-rule="evenodd" d="M9.31649 3C10.502 3 11.1539 4.42865 10.357 5.35226C12.5562 4.90022 12.5391 8.57858 10.357 8.13422C10.5717 8.38396 10.7079 8.70833 10.7079 9.06689C10.7079 10.6685 8.49424 11.0376 8.00035 9.50916C7.81702 10.0749 7.30055 10.4858 6.68489 10.4858C5.49804 10.4858 4.84612 9.05782 5.64306 8.13422C3.43831 8.58277 3.46636 4.9051 5.64306 5.35226C4.84612 4.42796 5.49804 3 6.68489 3C7.30055 3 7.81702 3.41088 8.00035 3.97732C8.18299 3.41088 8.69946 3 9.31649 3ZM7.9997 7.91475C8.63451 7.91475 9.14893 7.39017 9.14893 6.74281C9.14893 6.09615 8.63451 5.57157 7.9997 5.57157C7.36557 5.57157 6.85115 6.09615 6.85115 6.74281C6.85115 7.39017 7.36557 7.91475 7.9997 7.91475Z" fill="white"/>
<path fill-rule="evenodd" clip-rule="evenodd" d="M16.2613 5C17.2115 5 17.734 6.14509 17.0952 6.88538C18.858 6.52306 18.8443 9.47134 17.0952 9.11518C17.2674 9.31535 17.3765 9.57534 17.3765 9.86273C17.3765 11.1465 15.6022 11.4423 15.2064 10.2172C15.0594 10.6707 14.6455 11 14.152 11C13.2007 11 12.6782 9.85547 13.3169 9.11518C11.5498 9.4747 11.5723 6.52698 13.3169 6.88538C12.6782 6.14453 13.2007 5 14.152 5C14.6455 5 15.0594 5.32933 15.2064 5.78334C15.3528 5.32933 15.7667 5 16.2613 5ZM15.2058 8.93927C15.7147 8.93927 16.127 8.51881 16.127 7.99994C16.127 7.48163 15.7147 7.06116 15.2058 7.06116C14.6976 7.06116 14.2853 7.48163 14.2853 7.99994C14.2853 8.51881 14.6976 8.93927 15.2058 8.93927Z" fill="white"/>
</g>
<defs>
<clipPath id="clip0_99_120">
<rect width="24" height="24" fill="white"/>
</clipPath>
</defs>
</svg>
