<svg width="24" height="24" viewBox="0 0 24 24" fill="none" xmlns="http://www.w3.org/2000/svg">
<g clip-path="url(#clip0_158_231)">
<rect x="0.5" y="0.5" width="23" height="23" rx="3.5" fill="white" stroke="white"/>
<path d="M21.1967 5.82938C20.6787 5.32111 19.9769 5.0357 19.2453 5.0357C18.5137 5.0357 17.8119 5.32111 17.2938 5.82938C17.1204 6.00018 16.9711 6.19308 16.8497 6.40293L14.4163 5.74962C14.4233 5.20999 14.2666 4.68056 13.9664 4.22891C13.6662 3.77726 13.2359 3.42389 12.7307 3.21392C12.2254 3.00395 11.6679 2.94691 11.1296 3.05007C10.5912 3.15323 10.0962 3.41192 9.70797 3.79311C9.29357 4.20186 9.02214 4.72978 8.933 5.30042C8.84385 5.87106 8.94162 6.45481 9.21213 6.96714L6.28282 9.55914C5.75223 9.21344 5.11668 9.05843 4.48342 9.12025C3.85016 9.18208 3.25797 9.45697 2.80678 9.89852C2.3068 10.3912 2.01827 11.054 2.00084 11.75C1.9834 12.446 2.23838 13.122 2.71309 13.6383C3.1878 14.1546 3.84596 14.4718 4.55156 14.5242C5.25716 14.5767 5.95627 14.3604 6.50443 13.9201L12.5407 18.2778C12.3559 18.733 12.2998 19.229 12.3783 19.7131C12.4569 20.1972 12.6672 20.6513 12.9869 21.0273C13.3067 21.4032 13.7239 21.687 14.1943 21.8485C14.6648 22.01 15.1709 22.0431 15.6589 21.9444C16.1469 21.8457 16.5987 21.6188 16.9663 21.2878C17.3338 20.9568 17.6034 20.5341 17.7465 20.0646C17.8895 19.595 17.9007 19.096 17.7788 18.6207C17.6569 18.1454 17.4065 17.7114 17.0541 17.3648C16.9281 17.2409 16.7901 17.1295 16.6419 17.0322L19.0038 10.4492C19.0832 10.4559 19.1625 10.4593 19.2418 10.4593C19.7873 10.4591 20.3205 10.2998 20.774 10.0015C21.2275 9.7033 21.581 9.27951 21.7898 8.7837C21.9986 8.28788 22.0534 7.7423 21.9472 7.21587C21.8411 6.68944 21.5787 6.20578 21.1933 5.82598L21.1967 5.82938ZM15.3441 16.5851C14.6286 16.5234 13.9168 16.7393 13.3608 17.1867L7.3245 12.829C7.47114 12.4661 7.53679 12.0763 7.517 11.6862C7.49721 11.2961 7.39245 10.9147 7.20981 10.5679L10.1365 7.97594C10.4514 8.18123 10.8058 8.32072 11.1777 8.38578C11.5496 8.45084 11.9311 8.44009 12.2986 8.35419C12.6661 8.26829 13.0117 8.10907 13.3141 7.88639C13.6166 7.66371 13.8693 7.38231 14.0567 7.05962L16.4858 7.71292C16.4782 8.16435 16.5855 8.61049 16.798 9.01063C17.0105 9.41078 17.3215 9.75219 17.7026 10.0037L15.3441 16.5851Z" fill="#A06204"/>
</g>
<defs>
<clipPath id="clip0_158_231">
<rect width="24" height="24" fill="white"/>
</clipPath>
</defs>
</svg>
