<svg width="24" height="24" viewBox="0 0 24 24" fill="none" xmlns="http://www.w3.org/2000/svg">
<g clip-path="url(#clip0_66_723)">
<circle cx="12" cy="12" r="11.5" fill="#055C9D" stroke="white"/>
<path fill-rule="evenodd" clip-rule="evenodd" d="M16.1931 3.99885H14.8904V2.91702C14.8904 2.41046 14.4717 2 13.9556 2H10.8972C10.3811 2 9.96233 2.41046 9.96233 2.91702V3.99885H8.65967C7.74329 3.99885 7 4.7275 7 5.62607V20.3722C7 21.2714 7.74329 22 8.65967 22H16.1931C17.1095 22 17.8527 21.2714 17.8527 20.3722V5.62607C17.8521 4.7275 17.1095 3.99885 16.1931 3.99885ZM13.4851 16.7138C11.7245 16.0135 8 14.1219 8 10.6453C9.89832 10.8291 11.2848 11.2086 12.2904 11.6957C12.2837 12.2737 12.3392 12.8844 12.4581 13.5232C12.3679 13.443 12.2757 13.3648 12.1815 13.2887C11.7846 12.9686 11.3436 12.7033 10.8826 12.4862C10.5137 12.3118 10.1308 12.1848 9.73929 12.0706C10.1622 12.2336 10.5665 12.418 10.9574 12.6479C11.5674 13.0067 12.1073 13.4838 12.5637 14.027C12.823 15.1516 13.2125 16.1164 13.4851 16.7138ZM15.0313 16.0436C14.9678 16.3263 14.8783 16.6002 14.7754 16.8695C15.9842 16.2815 19.3131 13.9843 14.3872 8C11.6249 10.7623 13.6034 15.4349 14.2201 16.7051C14.5235 16.1118 14.74 15.4843 14.8469 14.8222C14.9812 13.9869 14.9752 13.1323 14.8449 12.2964C14.8055 12.0412 14.7574 11.7846 14.6845 11.5374C14.9331 12.1367 15.0714 12.7956 15.1509 13.4377C15.2592 14.309 15.2231 15.187 15.0313 16.0436Z" fill="white"/>
</g>
<defs>
<clipPath id="clip0_66_723">
<rect width="24" height="24" fill="white"/>
</clipPath>
</defs>
</svg>
