<svg width="24" height="24" viewBox="0 0 24 24" fill="none" xmlns="http://www.w3.org/2000/svg">
<g clip-path="url(#clip0_66_720)">
<circle cx="12" cy="12" r="11.5" fill="#055C9D" stroke="white"/>
<path d="M16.1931 3.99885H14.8904V2.91702C14.8904 2.41046 14.4717 2 13.9556 2H10.8972C10.3811 2 9.96233 2.41046 9.96233 2.91702V3.99885H8.65967C7.74329 3.99885 7 4.7275 7 5.62607V20.3722C7 21.2713 7.74329 22 8.65967 22H16.1931C17.1095 22 17.8527 21.2713 17.8527 20.3722V5.62607C17.8521 4.7275 17.1095 3.99885 16.1931 3.99885ZM10.9563 18.5699C10.7743 18.8118 10.3868 18.6189 10.4778 18.3319L12.0248 13.4726H8.66476L13.2969 7.55746C13.4764 7.32837 13.8474 7.50337 13.7768 7.78401L12.8101 11.6156H16.1873L10.9563 18.5699Z" fill="white"/>
</g>
<defs>
<clipPath id="clip0_66_720">
<rect width="24" height="24" fill="white"/>
</clipPath>
</defs>
</svg>
