<svg width="24" height="24" viewBox="0 0 24 24" fill="none" xmlns="http://www.w3.org/2000/svg">
<g clip-path="url(#clip0_66_745)">
<circle cx="12" cy="12" r="11.5" fill="#055C9D" stroke="white"/>
<path d="M6.76696 5.36049V6.23519C6.96954 6.23519 7.134 6.39667 7.134 6.59569V6.94366H4.22328V6.59569C4.22328 6.39667 4.38773 6.23519 4.59091 6.23519V5.36049C4.59091 5.16147 4.75537 5 4.95856 5H6.39932C6.6025 5 6.76696 5.16147 6.76696 5.36049Z" fill="white"/>
<path d="M19.4091 5.36049V6.23519C19.6123 6.23519 19.7767 6.39667 19.7761 6.59569V6.94366H16.8654V6.59569C16.8654 6.39667 17.0299 6.23519 17.233 6.23519V5.36049C17.233 5.16147 17.3975 5 17.6007 5H19.0414C19.2446 5 19.4091 5.16147 19.4091 5.36049Z" fill="white"/>
<path fill-rule="evenodd" clip-rule="evenodd" d="M19.9817 7.36195H16.1623V6.48009C16.1623 6.12973 15.8727 5.84611 15.5158 5.84611H8.48419C8.12728 5.84611 7.83769 6.12973 7.83769 6.48009V7.36195H4.0183C3.45582 7.36195 3 7.80943 3 8.36119V17.5825C3 18.1343 3.45582 18.5818 4.0183 18.5818H19.9817C20.5442 18.5818 21 18.1343 21 17.5825V8.36119C21.0006 7.80943 20.5442 7.36195 19.9817 7.36195ZM12.7628 17.4903C10.7846 16.7035 6.6 14.5782 6.6 10.6721C8.73284 10.8786 10.2906 11.305 11.4205 11.8523C11.413 12.5017 11.4753 13.1879 11.6089 13.9056C11.5075 13.8155 11.4039 13.7276 11.2981 13.642C10.8522 13.2824 10.3567 12.9844 9.83867 12.7404C9.42426 12.5445 8.99409 12.4018 8.55416 12.2735C9.02938 12.4566 9.48357 12.6638 9.92275 12.9221C10.6082 13.3252 11.2148 13.8613 11.7275 14.4716C12.0188 15.7351 12.4565 16.8192 12.7628 17.4903ZM14.5 16.7373C14.4286 17.0549 14.3281 17.3627 14.2124 17.6652C15.5705 17.0046 19.3107 14.4236 13.7763 7.7C10.6727 10.8035 12.8957 16.0534 13.5886 17.4806C13.9294 16.8139 14.1727 16.109 14.2928 15.365C14.4437 14.4266 14.4369 13.4664 14.2905 12.5272C14.2462 12.2404 14.1922 11.9522 14.1103 11.6744C14.3896 12.3478 14.545 13.088 14.6344 13.8095C14.756 14.7884 14.7154 15.7749 14.5 16.7373Z" fill="white"/>
</g>
<defs>
<clipPath id="clip0_66_745">
<rect width="24" height="24" fill="white"/>
</clipPath>
</defs>
</svg>
