<svg width="24" height="24" viewBox="0 0 24 24" fill="none" xmlns="http://www.w3.org/2000/svg">
<g clip-path="url(#clip0_66_736)">
<circle cx="12" cy="12" r="11.5" fill="#055C9D" stroke="white"/>
<path d="M6.76695 6.23519V5.36049C6.76695 5.16147 6.60249 5 6.39931 5H4.95855C4.75536 5 4.5909 5.16147 4.5909 5.36049V6.23519C4.38772 6.23519 4.22327 6.39667 4.22327 6.59569V6.94366H7.13399V6.59569C7.13399 6.39667 6.96953 6.23519 6.76695 6.23519Z" fill="white"/>
<path d="M19.4091 6.23519V5.36049C19.4091 5.16147 19.2446 5 19.0414 5H17.6007C17.3975 5 17.233 5.16147 17.233 5.36049V6.23519C17.0299 6.23519 16.8654 6.39667 16.8654 6.59569V6.94366H19.7761V6.59569C19.7767 6.39667 19.6123 6.23519 19.4091 6.23519Z" fill="white"/>
<path d="M19.9817 7.36195H16.1623V6.4801C16.1623 6.12974 15.8727 5.84611 15.5158 5.84611H8.48419C8.12728 5.84611 7.83769 6.12974 7.83769 6.4801V7.36195H4.0183C3.45582 7.36195 3 7.80944 3 8.36119V17.5826C3 18.1343 3.45582 18.5818 4.0183 18.5818H19.9817C20.5442 18.5818 21 18.1343 21 17.5826V8.36119C21.0006 7.80944 20.5442 7.36195 19.9817 7.36195ZM11.0904 16.9134C10.9367 17.1172 10.6102 16.9551 10.6876 16.7132L11.7167 13.4813H9.33983L11.0612 9.13341C11.1083 9.01543 11.2239 8.93738 11.3532 8.93738H13.932C14.1936 8.93738 14.3402 9.23352 14.1781 9.43491L11.983 12.1675H14.6602L11.0904 16.9134Z" fill="white"/>
</g>
<defs>
<clipPath id="clip0_66_736">
<rect width="24" height="24" fill="white"/>
</clipPath>
</defs>
</svg>
