<svg width="24" height="24" viewBox="0 0 24 24" fill="none" xmlns="http://www.w3.org/2000/svg">
<g clip-path="url(#clip0_66_748)">
<circle cx="12" cy="12" r="11.5" fill="#055C9D" stroke="white"/>
<path d="M14.6083 7.94356H13.6047C13.4533 7.94356 13.3311 7.82329 13.3311 7.67501V6.69057C13.3311 6.5423 13.2083 6.42203 13.0575 6.42203H11.7968C11.6454 6.42203 11.5232 6.5423 11.5232 6.69057V7.67501C11.5232 7.82329 11.4004 7.94356 11.2496 7.94356H10.246C10.0946 7.94356 9.97241 8.06383 9.97241 8.2121V9.44854C9.97241 9.59681 10.0952 9.71708 10.246 9.71708H11.2496C11.401 9.71708 11.5232 9.83735 11.5232 9.98562V10.9701C11.5232 11.1183 11.646 11.2386 11.7968 11.2386H13.0575C13.2089 11.2386 13.3311 11.1183 13.3311 10.9701V9.98626C13.3311 9.83799 13.4539 9.71771 13.6047 9.71771H14.6083C14.7597 9.71771 14.8819 9.59744 14.8819 9.44917V8.2121C14.8819 8.06383 14.7591 7.94356 14.6083 7.94356Z" fill="white"/>
<path d="M16.1928 3.99943H14.8902V2.91762C14.8902 2.41045 14.4714 2 13.9554 2H10.897C10.381 2 9.96223 2.41045 9.96223 2.91699V3.99879H8.65961C7.74453 3.99879 7 4.72869 7 5.62659V20.3722C7 21.2695 7.74453 22 8.65961 22H16.1928C17.1079 22 17.8524 21.2701 17.8524 20.3722V5.62659C17.8524 4.72933 17.1079 3.99943 16.1928 3.99943ZM15.0919 18.2761C15.0919 18.5121 14.9137 18.7037 14.6942 18.7037H10.1582C9.93869 18.7037 9.76051 18.5121 9.76051 18.2761V17.0205C9.76051 16.7844 9.93869 16.5929 10.1582 16.5929H14.6942C14.9137 16.5929 15.0919 16.7844 15.0919 17.0205V18.2761ZM16.6274 12.818H8.22562V6.08285C8.22562 5.60813 8.61825 5.22314 9.10252 5.22314H15.7505C16.2348 5.22314 16.6274 5.60813 16.6274 6.08285V12.818Z" fill="white"/>
</g>
<defs>
<clipPath id="clip0_66_748">
<rect width="24" height="24" fill="white"/>
</clipPath>
</defs>
</svg>
