<svg width="24" height="24" viewBox="0 0 24 24" fill="none" xmlns="http://www.w3.org/2000/svg">
<g clip-path="url(#clip0_66_729)">
<circle cx="12" cy="12" r="11.5" fill="#055C9D" stroke="white"/>
<path d="M7.13519 6.59568C7.13519 6.39667 6.97074 6.23519 6.76755 6.23519V5.36049C6.76755 5.16147 6.6031 5 6.39992 5H4.95915C4.75597 5 4.59152 5.16147 4.59152 5.36049V6.23519C4.38833 6.23519 4.22388 6.39667 4.22388 6.59568V6.94366H7.1346V6.59568H7.13519Z" fill="white"/>
<path d="M19.7773 6.59568C19.7773 6.39667 19.6129 6.23519 19.4097 6.23519V5.36049C19.4097 5.16147 19.2452 5 19.042 5H17.6013C17.3981 5 17.2336 5.16147 17.2336 5.36049V6.23519C17.0305 6.23519 16.866 6.39667 16.866 6.59568V6.94366H19.7767V6.59568H19.7773Z" fill="white"/>
<path d="M19.9823 7.36254H16.1629V6.48069C16.1629 6.13033 15.8733 5.8467 15.5164 5.8467H8.48419C8.12728 5.8467 7.8377 6.13033 7.8377 6.48069V7.36254H4.01831C3.45583 7.36254 3 7.81003 3 8.36178V17.5831C3 18.1349 3.45583 18.5824 4.01831 18.5824H19.9817C20.5442 18.5824 21 18.1349 21 17.5831V8.36119C21.0012 7.80943 20.5454 7.36254 19.9823 7.36254ZM9.35174 13.1756C9.35174 13.3097 9.24092 13.4182 9.10447 13.4182H8.19818C8.06173 13.4182 7.95091 13.5266 7.95091 13.6607V14.5491C7.95091 14.6831 7.84008 14.7916 7.70363 14.7916H6.56556C6.42911 14.7916 6.31828 14.6831 6.31828 14.5491V13.6607C6.31828 13.5266 6.20745 13.4182 6.071 13.4182H5.16472C5.02827 13.4182 4.91744 13.3097 4.91744 13.1756V12.0596C4.91744 11.9256 5.02827 11.8171 5.16472 11.8171H6.071C6.20745 11.8171 6.31828 11.7087 6.31828 11.5746V10.6862C6.31828 10.5521 6.42911 10.4437 6.56556 10.4437H7.70363C7.84008 10.4437 7.95091 10.5521 7.95091 10.6862V11.5746C7.95091 11.7087 8.06173 11.8171 8.19818 11.8171H9.10447C9.24092 11.8171 9.35174 11.9256 9.35174 12.0596V13.1756ZM19.2732 13.3949C19.2732 13.6082 19.1124 13.7804 18.9145 13.7804H14.8193C14.6208 13.7804 14.4606 13.6076 14.4606 13.3949V12.261C14.4606 12.0477 14.6214 11.8755 14.8193 11.8755H18.9145C19.1129 11.8755 19.2732 12.0483 19.2732 12.261V13.3949Z" fill="white"/>
</g>
<defs>
<clipPath id="clip0_66_729">
<rect width="24" height="24" fill="white"/>
</clipPath>
</defs>
</svg>
