<svg width="24" height="24" viewBox="0 0 24 24" fill="none" xmlns="http://www.w3.org/2000/svg">
<g clip-path="url(#clip0_66_726)">
<circle cx="12" cy="12" r="11.5" fill="#055C9D" stroke="white"/>
<path fill-rule="evenodd" clip-rule="evenodd" d="M16.1931 3.99885H14.8904V2.91702C14.8904 2.41046 14.4717 2 13.9556 2H10.8972C10.3811 2 9.96233 2.41046 9.96233 2.91702V3.99885H8.65967C7.74329 3.99885 7 4.7275 7 5.62607V20.3722C7 21.2714 7.74329 22 8.65967 22H16.1931C17.1095 22 17.8527 21.2714 17.8527 20.3722V5.62607C17.8521 4.7275 17.1095 3.99885 16.1931 3.99885ZM12.4752 10.2573C13.8912 10.2573 15.0433 11.3876 15.0433 12.7765H17C17 10.3292 14.97 8.33856 12.4752 8.33856C11.7866 8.33856 11.1135 8.49122 10.5009 8.78296C10.4133 8.82435 10.3272 8.86913 10.2424 8.91662L9.5415 8L8.82639 11.0708L12.0322 11.2587L11.4324 10.4737C11.7588 10.3312 12.1129 10.2573 12.4752 10.2573ZM8.90358 15.2944C8.88669 15.2724 8.86981 15.2504 8.85352 15.2278C8.82638 15.1912 8.79992 15.1545 8.77414 15.1172C8.7409 15.0697 8.70901 15.0209 8.6778 14.9713C8.66287 14.9476 8.64795 14.9232 8.6337 14.8994C8.61199 14.8641 8.59095 14.8282 8.5706 14.7922C8.536 14.7318 8.50343 14.6701 8.47154 14.6077C8.16962 14.014 8 13.3444 8 12.6374H9.95605C9.95605 14.0262 11.1081 15.1566 12.5241 15.1566C12.7636 15.1566 12.9997 15.1233 13.227 15.0602C13.343 15.0277 13.4563 14.9883 13.5669 14.9401L12.9671 14.1551L16.1729 14.3431L15.4578 17.4139L14.7576 16.4972C14.4333 16.6784 14.0887 16.8175 13.7318 16.9145C13.6795 16.9281 13.6273 16.9416 13.575 16.9538C13.5554 16.9586 13.5357 16.9633 13.5153 16.9674C13.1924 17.0387 12.8606 17.0753 12.5248 17.0753C11.0606 17.0753 9.75658 16.3894 8.92883 15.3275C8.92047 15.3165 8.91202 15.3055 8.90358 15.2944Z" fill="white"/>
</g>
<defs>
<clipPath id="clip0_66_726">
<rect width="24" height="24" fill="white"/>
</clipPath>
</defs>
</svg>
