<svg width="24" height="24" viewBox="0 0 24 24" fill="none" xmlns="http://www.w3.org/2000/svg">
<g clip-path="url(#clip0_66_742)">
<circle cx="12" cy="12" r="11.5" fill="#055C9D" stroke="white"/>
<path d="M6.76696 5.36049V6.23519C6.96954 6.23519 7.134 6.39667 7.134 6.59569V6.94366H4.22328V6.59569C4.22328 6.39667 4.38773 6.23519 4.59091 6.23519V5.36049C4.59091 5.16147 4.75537 5 4.95855 5H6.39932C6.6025 5 6.76696 5.16147 6.76696 5.36049Z" fill="white"/>
<path d="M19.4091 5.36049V6.23519C19.6123 6.23519 19.7767 6.39667 19.7761 6.59569V6.94366H16.8654V6.59569C16.8654 6.39667 17.0299 6.23519 17.233 6.23519V5.36049C17.233 5.16147 17.3975 5 17.6007 5H19.0414C19.2446 5 19.4091 5.16147 19.4091 5.36049Z" fill="white"/>
<path fill-rule="evenodd" clip-rule="evenodd" d="M19.9817 7.36195H16.1623V6.48009C16.1623 6.12973 15.8727 5.84611 15.5158 5.84611H8.48419C8.12728 5.84611 7.83769 6.12973 7.83769 6.48009V7.36195H4.0183C3.45582 7.36195 3 7.80943 3 8.36119V17.5825C3 18.1343 3.45582 18.5818 4.0183 18.5818H19.9817C20.5442 18.5818 21 18.1343 21 17.5825V8.36119C21.0006 7.80943 20.5442 7.36195 19.9817 7.36195ZM11.9753 9.95797C13.3912 9.95797 14.5433 11.0883 14.5433 12.4772H16.5C16.5 10.0299 14.47 8.03924 11.9753 8.03924C11.2866 8.03924 10.6129 8.1919 10.0009 8.48364C9.91336 8.52503 9.82719 8.56981 9.74238 8.6173L9.04152 7.7L8.3264 10.7708L11.5322 10.9587L10.9324 10.1737C11.2588 10.0319 11.6129 9.95797 11.9753 9.95797ZM8.40358 14.9951C8.38669 14.9731 8.36981 14.9511 8.35352 14.9285C8.32639 14.8918 8.29992 14.8552 8.27414 14.8179C8.2409 14.7704 8.20901 14.7216 8.1778 14.672C8.17033 14.6601 8.16304 14.6481 8.15574 14.6361C8.14845 14.624 8.14116 14.612 8.1337 14.6001C8.11199 14.5648 8.09095 14.5289 8.0706 14.4929C8.036 14.4325 8.00343 14.3708 7.97154 14.3084C7.66962 13.714 7.5 13.045 7.5 12.3381H9.45605C9.45605 13.7269 10.6081 14.8572 12.0241 14.8572C12.2636 14.8572 12.4997 14.824 12.727 14.7609C12.843 14.7283 12.9563 14.689 13.0669 14.6408L12.4671 13.8558L15.6729 14.0438L14.9578 17.1145L14.2576 16.1979C13.9333 16.3791 13.5887 16.5182 13.2318 16.6152C13.1796 16.6287 13.1272 16.6423 13.075 16.6545C13.0554 16.6593 13.0357 16.664 13.0153 16.6681C12.6924 16.7393 12.3606 16.776 12.0248 16.776C10.5606 16.776 9.25658 16.09 8.42884 15.0282C8.42047 15.0171 8.41202 15.0061 8.40358 14.9951Z" fill="white"/>
</g>
<defs>
<clipPath id="clip0_66_742">
<rect width="24" height="24" fill="white"/>
</clipPath>
</defs>
</svg>
