<svg width="24" height="24" viewBox="0 0 24 24" fill="none" xmlns="http://www.w3.org/2000/svg">
<g clip-path="url(#clip0_234_600)">
<circle cx="12" cy="12" r="11.5" fill="#4453D9" stroke="white"/>
<path d="M14.2547 3H8V15H17.0882V5.83347L14.2547 3ZM14.409 3.86939L16.2482 5.70857H14.409V3.86939Z" fill="white"/>
<path d="M7 16.0429C7 15.4537 6.56218 14.9815 6.04467 15.0007C5.45891 14.9817 4.98756 15.3763 5.00025 16.0429V19.9263C5.0116 20.5229 5.52017 21 6.04467 21C6.57731 21 7 20.5324 7 19.9263V16.0429Z" fill="white"/>
<path d="M11.3565 15.373C10.5014 15.2465 9.66948 15.1236 8 15.9193V19.8107C10.0271 19.977 13.3195 20.2403 15.1736 19.5375C16.3027 19.11 19.6068 16.7051 20.3666 16.0995C21.8223 14.9415 20.5883 14.4704 18.497 15.8264C17.7875 16.2855 13.6731 17.3682 12.4429 17.4831C12.1533 17.5108 11.4576 17.576 10.9464 17.6512C10.6879 17.6888 10.6315 17.2871 10.89 17.2495C12.0154 17.0852 14.5127 17.0337 15.2182 16.0243C15.6225 15.4423 14.8936 14.9475 14.0463 15.2108C12.822 15.5907 12.0815 15.4819 11.3565 15.373Z" fill="white"/>
</g>
<defs>
<clipPath id="clip0_234_600">
<rect width="24" height="24" fill="white"/>
</clipPath>
</defs>
</svg>
