<svg width="24" height="24" viewBox="0 0 24 24" fill="none" xmlns="http://www.w3.org/2000/svg">
<circle cx="12" cy="12" r="11.5" fill="#4453D9" stroke="white"/>
<path fill-rule="evenodd" clip-rule="evenodd" d="M5 17.2383V5.43945C5 5.19676 5.19676 5 5.43945 5H12.9707C13.2134 5 13.4102 5.19676 13.4102 5.43945V17.2383L16.2656 17.2383C16.3996 17.2383 16.5256 17.1861 16.6204 17.0913C16.7154 16.9964 16.7676 16.8704 16.7676 16.7363V12.4345C15.4339 12.224 14.4141 11.0711 14.4141 9.67578V8.26367C14.4141 8.02098 14.6108 7.82422 14.8535 7.82422H15.3555V5.43945C15.3555 5.19676 15.5522 5 15.7949 5C16.0376 5 16.2344 5.19676 16.2344 5.43945V7.82422H18.1797V5.43945C18.1797 5.19676 18.3765 5 18.6191 5C18.8618 5 19.0586 5.19676 19.0586 5.43945V7.82422H19.5605C19.8032 7.82422 20 8.02098 20 8.26367V9.67578C20 11.0687 18.982 12.2239 17.6465 12.4345V16.7363C17.6465 17.1055 17.5027 17.4523 17.2417 17.7129C16.9812 17.9735 16.6345 18.1172 16.2656 18.1172H13.4102L13.4102 19.5605C13.4102 19.8032 13.2134 20 12.9707 20H5.43945C5.19676 20 5 19.8032 5 19.5605V17.2383ZM8.00853 17.1366L8.64517 14.9656H7.49218L9.47582 12.1366L8.83836 14.3075L9.99218 14.3077L8.00853 17.1366ZM11.0801 11.1601H7.31445C7.07176 11.1601 6.875 10.9633 6.875 10.7206V8.13176C6.875 7.88907 7.07176 7.69231 7.31445 7.69231H11.0801C11.3228 7.69231 11.5195 7.88907 11.5195 8.13176V10.7206C11.5195 10.9633 11.3228 11.1601 11.0801 11.1601Z" fill="white"/>
</svg>
