<svg width="24" height="24" viewBox="0 0 24 24" fill="none" xmlns="http://www.w3.org/2000/svg">
<g clip-path="url(#clip0_241_631)">
<circle cx="12" cy="12" r="11.5" fill="#4453D9" stroke="white"/>
<path d="M17.3619 14.5674L17.5501 14.7543L18.2022 15.4101C18.304 15.5052 18.3849 15.6207 18.4396 15.7491C18.4771 15.8395 18.498 15.9359 18.5012 16.0337C18.5032 16.107 18.4863 16.1795 18.4519 16.2441C18.4297 16.2868 18.4024 16.3267 18.3707 16.3629L18.0804 16.6549C18.0008 16.7486 17.8894 16.809 17.7679 16.8244C17.6706 16.8306 17.5734 16.8123 17.4849 16.7712C17.4026 16.7328 17.3267 16.6819 17.2597 16.6203C17.2142 16.5791 17.1695 16.537 17.1256 16.494L16.2053 15.5499C16.1838 15.5257 16.1576 15.5061 16.1283 15.4923C16.0991 15.4786 16.0674 15.4709 16.0351 15.4697C16.0028 15.4685 15.9706 15.474 15.9405 15.4856C15.9103 15.4973 15.8828 15.5149 15.8596 15.5375L15.819 15.5846C15.7916 15.6117 15.7698 15.6439 15.7549 15.6795C15.7399 15.7151 15.7321 15.7533 15.7319 15.7919C15.7316 15.8306 15.739 15.8689 15.7535 15.9046C15.7681 15.9404 15.7895 15.9729 15.8165 16.0003L16.9116 17.0781C17.0011 17.1613 17.0741 17.2608 17.1269 17.3713C17.1691 17.4551 17.1927 17.5472 17.1958 17.6411C17.1975 17.7143 17.1805 17.7867 17.1465 17.8515C17.1164 17.9064 17.0792 17.9572 17.0358 18.0024L16.6692 18.3712C16.592 18.4596 16.4884 18.5204 16.3739 18.5444C16.2837 18.5576 16.1917 18.5469 16.1069 18.5135C16.0237 18.4806 15.9473 18.4324 15.8818 18.3712C15.8273 18.3208 15.774 18.2692 15.7218 18.2165L14.585 17.0521C14.5656 17.0307 14.5421 17.0134 14.5159 17.0014C14.4897 16.9894 14.4613 16.9829 14.4325 16.9824C14.4037 16.9818 14.3751 16.9871 14.3484 16.998C14.3217 17.009 14.2976 17.0253 14.2774 17.0459L14.1716 17.1536C14.1291 17.1978 14.1055 17.2571 14.106 17.3186C14.1064 17.3802 14.1309 17.4391 14.174 17.4827L15.2223 18.5147C15.3221 18.6094 15.4061 18.7197 15.4708 18.8414C15.5154 18.9254 15.5406 19.0184 15.5446 19.1136C15.5469 19.1876 15.5299 19.261 15.4954 19.3264C15.4648 19.3807 15.4272 19.4306 15.3835 19.4749L15.0931 19.7682C14.8175 20.014 14.5017 19.9575 14.1457 19.5986L13.0581 18.5295C13.0306 18.5015 12.9932 18.4856 12.954 18.4851C12.9149 18.4847 12.8771 18.4997 12.8489 18.5271L12.7062 18.6434C12.6846 18.6643 12.6675 18.6895 12.656 18.7174C12.6445 18.7452 12.6388 18.7751 12.6393 18.8053C12.6397 18.8355 12.6463 18.8652 12.6587 18.8927C12.6711 18.9202 12.6889 18.9448 12.7111 18.9651L13.4247 19.689C13.5247 19.7782 13.5976 19.894 13.6351 20.0231C13.6579 20.1151 13.6592 20.2113 13.6388 20.3039C13.6177 20.3981 13.5733 20.4853 13.5096 20.5576L13.2193 20.8496C13.1349 20.9365 13.0222 20.9897 12.9018 20.9994C12.8069 21.0033 12.7121 20.989 12.6226 20.9573C12.5183 20.9163 12.4243 20.853 12.347 20.7717L6.44744 14.8397C6.15751 14.5523 5.90004 14.2336 5.6797 13.8894C5.49192 13.5975 5.33912 13.2843 5.22447 12.9564C5.12711 12.6733 5.06593 12.3789 5.04238 12.0803C5.02019 11.8176 5.03803 11.5531 5.09528 11.2958L4.05564 10.2502L3 9.25041L7.16104 5L9.33876 7.23348L8.33233 8.24442L8.31018 8.26916L8.29542 8.28525C8.09432 8.50762 7.94324 8.77098 7.8525 9.05738C7.76322 9.34065 7.73882 9.64058 7.78114 9.93468C7.84305 10.353 8.04227 10.7384 8.3471 11.0298L8.64484 11.328L8.67191 11.354L8.69036 11.3713C8.91948 11.5771 9.19556 11.7228 9.4941 11.7955C9.79264 11.8683 10.1044 11.8658 10.4018 11.7883C10.757 11.6927 11.079 11.5 11.3319 11.2315L12.6927 9.86167L13.175 10.3492L13.1799 10.3579L17.3594 14.5625L17.3619 14.5674ZM19.0105 11.3874C19.0213 11.5315 19.0213 11.6763 19.0105 11.8205C18.987 12.1148 18.9267 12.405 18.8309 12.6841C18.7196 13.0046 18.5709 13.3108 18.388 13.5961C18.3446 13.6649 18.2994 13.7325 18.2526 13.799L18.1837 13.7322L13.1061 8.61811C13.0519 8.5634 12.9875 8.51997 12.9166 8.4903C12.8457 8.46063 12.7697 8.4453 12.6929 8.44518C12.6162 8.44507 12.5401 8.46017 12.4691 8.48963C12.3982 8.51909 12.3336 8.56232 12.2793 8.61687L10.5064 10.4012C10.4019 10.5181 10.2673 10.6037 10.1176 10.6486C10.0079 10.6786 9.89257 10.6812 9.78168 10.6561L9.77553 10.6548C9.65857 10.6268 9.55062 10.5693 9.46179 10.4878L9.17389 10.1995C9.05188 10.0881 8.96973 9.93934 8.94012 9.7763C8.92118 9.65594 8.9296 9.53283 8.96473 9.41622L8.96842 9.40756C9.00954 9.28158 9.07709 9.16595 9.16651 9.06851L9.1702 9.0648L11.1634 7.06024C11.3729 6.85002 11.6234 6.68571 11.8991 6.57766C12.1789 6.46791 12.4717 6.39553 12.7702 6.36236C12.9728 6.33925 13.1765 6.32768 13.3805 6.32771C13.4839 6.32775 13.5872 6.33064 13.6905 6.33637C14.2385 6.36658 14.7835 6.43855 15.3207 6.55168L16.8574 5.00742L21 9.17369L19.0437 11.1399C19.0156 11.2191 19.0046 11.3035 19.0118 11.3874H19.0105Z" fill="white"/>
</g>
<defs>
<clipPath id="clip0_241_631">
<rect width="24" height="24" fill="white"/>
</clipPath>
</defs>
</svg>
