<svg width="24" height="24" viewBox="0 0 24 24" fill="none" xmlns="http://www.w3.org/2000/svg">
<g clip-path="url(#clip0_17_102)">
<circle cx="12" cy="12" r="11.5" fill="#A06204" stroke="white"/>
<path d="M16.9911 12.8141L16.6119 12.3468C15.4045 10.9914 13.709 9.98808 12.9759 9.59003L12.6837 10.0536C12.4248 10.4699 11.9115 10.6696 11.4347 10.5404L11.4158 10.5335C10.8376 10.3408 10.5095 9.76449 10.6411 9.1882C10.745 8.73283 10.9138 8.29636 11.1444 7.88949L10.6934 7.82588C10.3268 7.7736 9.94517 7.84289 9.61891 8.02176L9.30778 8.19055C8.89524 8.41729 8.40586 8.445 7.96498 8.26487L7.35027 8.00979L4.853 11.9135L5.69382 12.4784L6.15611 12.0161C6.3627 11.8096 6.63667 11.6962 6.92765 11.6962C7.21926 11.6962 7.49324 11.8096 7.69982 12.0161C7.86106 12.1749 7.96372 12.3783 8.00025 12.6075C8.35359 12.5439 8.70881 12.6523 8.96326 12.9067C9.16796 13.1114 9.2807 13.3854 9.2807 13.6789C9.2807 13.7412 9.27503 13.8048 9.26306 13.8678C9.48035 13.9044 9.67434 13.9995 9.82991 14.1462H9.83054L9.85384 14.1676C10.1051 14.4215 10.2141 14.776 10.1524 15.13C10.3779 15.1665 10.5844 15.2711 10.7413 15.4279L10.7621 15.4519C10.9554 15.6553 11.0612 15.9204 11.0612 16.2026C11.0612 16.435 10.9901 16.6548 10.8553 16.8419L11.3446 17.4421C11.5878 17.677 12.0192 17.672 12.2623 17.4276C12.387 17.3029 12.4557 17.1379 12.4557 16.9622C12.4557 16.7965 12.3939 16.6391 12.2825 16.5194L12.0683 16.3053C11.9386 16.1755 11.9386 15.9639 12.0683 15.8342C12.1974 15.7057 12.4078 15.7057 12.5369 15.8342L12.9337 16.2335C13.1907 16.4879 13.6089 16.4879 13.8659 16.2328C13.8659 16.231 13.8747 16.2234 13.881 16.2171C14.1241 15.957 14.1184 15.5583 13.8703 15.3076L13.4262 14.8642C13.3632 14.8012 13.3286 14.7181 13.3286 14.6299C13.3286 14.5417 13.3632 14.4586 13.4262 14.3956C13.5553 14.2671 13.7663 14.2659 13.8961 14.3925L14.5379 15.0343C14.6569 15.1533 14.827 15.222 15.004 15.222C15.0046 15.222 15.0052 15.222 15.0052 15.222C15.1816 15.2213 15.3497 15.1533 15.4675 15.0343C15.5922 14.9102 15.6609 14.7446 15.6609 14.5688C15.6609 14.3994 15.5979 14.2401 15.4833 14.1191L14.815 13.4534C14.752 13.3873 14.718 13.3041 14.718 13.2178C14.718 13.1303 14.7533 13.044 14.8144 12.9823C14.9447 12.8525 15.1557 12.8525 15.2849 12.9823L16.1043 13.8011C16.2435 13.9403 16.4381 14.0196 16.639 14.0133C16.816 14.0114 16.9772 13.9409 17.0944 13.8149C17.2046 13.6921 17.265 13.5347 17.265 13.3715C17.265 13.2909 17.2493 13.2097 17.2178 13.129C17.1454 13.0245 17.0692 12.9168 16.9911 12.8141Z" fill="white"/>
<path d="M13.9931 7.85423L13.0534 7.5368C12.6207 7.3932 12.1433 7.55443 11.892 7.92918L11.851 7.99342C11.5871 8.39903 11.3975 8.85062 11.2867 9.33433C11.2325 9.57178 11.3787 9.82056 11.6192 9.90055C11.8095 9.95282 12.0129 9.87284 12.12 9.70026L12.5766 8.9747C12.6383 8.8777 12.7429 8.81976 12.8575 8.81976C12.9085 8.81976 12.9576 8.8311 13.0036 8.85377C13.1384 8.91927 16.2926 10.4838 17.7909 12.7921L19.1948 11.9922L16.6453 7.99972C15.7629 8.19371 14.8471 8.14332 13.9931 7.85423Z" fill="white"/>
<path d="M9.9691 15.775C9.85384 15.775 9.74614 15.8191 9.66615 15.8997L8.97397 16.5912C8.80707 16.7581 8.80769 17.0302 8.9746 17.1971C9.13332 17.3552 9.42178 17.3552 9.5805 17.1971L10.2727 16.5056C10.3527 16.4249 10.3974 16.3179 10.3974 16.2026C10.3974 16.0874 10.3533 15.9803 10.2727 15.8997C10.1914 15.8191 10.0837 15.775 9.9691 15.775Z" fill="white"/>
<path d="M9.3821 14.6375C9.30211 14.5568 9.19441 14.5128 9.07915 14.5128C8.96389 14.5128 8.85682 14.5568 8.7762 14.6375L7.89822 15.5154C7.81823 15.5954 7.77351 15.7031 7.77351 15.8184C7.77351 15.933 7.8176 16.0407 7.89822 16.1213C8.05694 16.2794 8.3454 16.2794 8.50412 16.1213L9.3821 15.2434C9.54963 15.0765 9.549 14.8044 9.3821 14.6375Z" fill="white"/>
<path d="M8.61748 13.6789C8.61748 13.5643 8.5734 13.4566 8.49278 13.3759C8.41216 13.2953 8.30446 13.2506 8.18983 13.2506C8.0752 13.2506 7.96813 13.2953 7.88688 13.3759L6.8231 14.4397C6.74248 14.5203 6.69839 14.628 6.69839 14.7427C6.69839 14.8573 6.74248 14.965 6.8231 15.0456C6.98434 15.2069 7.26776 15.2062 7.429 15.0456L8.49278 13.9818C8.5734 13.9019 8.61748 13.7942 8.61748 13.6789Z" fill="white"/>
<path d="M7.23123 12.4866C7.15062 12.4066 7.04354 12.3619 6.92829 12.3619C6.81366 12.3619 6.70533 12.406 6.62471 12.4866L5.74736 13.3646C5.66674 13.4446 5.62265 13.5523 5.62265 13.6675C5.62265 13.7821 5.66674 13.8898 5.74736 13.9705C5.82797 14.0511 5.93568 14.0958 6.0503 14.0958C6.16493 14.0958 6.27263 14.0511 6.35325 13.9705L7.23123 13.0925C7.39814 12.9256 7.39814 12.6535 7.23123 12.4866Z" fill="white"/>
<path d="M6.86782 6.83073L5.65981 6.05918C5.59809 6.02014 5.52943 6.00061 5.45763 6.00061C5.43181 6.00061 5.40536 6.00376 5.37639 6.00691C5.27876 6.02958 5.19751 6.08816 5.14209 6.17318L2.05908 10.9977C1.94823 11.1734 1.99735 11.4045 2.17308 11.5185L3.38109 12.2901C3.46548 12.3424 3.57004 12.3619 3.66451 12.3386C3.76213 12.3159 3.84716 12.2573 3.90196 12.1761L6.98497 7.34781C7.09582 7.17587 7.04354 6.94095 6.86782 6.83073ZM3.39683 11.46C3.10711 11.46 2.86967 11.2225 2.86967 10.9328C2.86967 10.6431 3.10711 10.4056 3.39683 10.4056C3.68655 10.4056 3.924 10.6431 3.924 10.9328C3.92463 11.2225 3.68655 11.46 3.39683 11.46Z" fill="white"/>
<path d="M21.9422 10.9977L18.8591 6.17257C18.8037 6.0844 18.7193 6.0296 18.6248 6.01008C18.5952 6.00378 18.5694 6 18.5404 6C18.4686 6 18.4006 6.01952 18.3383 6.05857L17.1303 6.83011C16.9577 6.94096 16.9054 7.17526 17.0163 7.34783L20.0993 12.1761C20.1547 12.2605 20.2391 12.3191 20.3367 12.3386C20.4343 12.3613 20.532 12.3417 20.6164 12.2901L21.8244 11.5186C22.0007 11.4083 22.0524 11.1734 21.9422 10.9977ZM20.6006 11.46C20.3109 11.46 20.0735 11.2257 20.0735 10.9328C20.0735 10.6431 20.3109 10.4057 20.6006 10.4057C20.8935 10.4057 21.1278 10.6431 21.1278 10.9328C21.1278 11.2257 20.8935 11.46 20.6006 11.46Z" fill="white"/>
</g>
<defs>
<clipPath id="clip0_17_102">
<rect width="24" height="24" fill="white"/>
</clipPath>
</defs>
</svg>
