<svg width="24" height="24" viewBox="0 0 24 24" fill="none" xmlns="http://www.w3.org/2000/svg">
<g clip-path="url(#clip0_241_737)">
<circle cx="12" cy="12" r="11.5" fill="#4C5270" stroke="white"/>
<path fill-rule="evenodd" clip-rule="evenodd" d="M19.8494 11.729C19.8494 14.0347 17.964 15.9037 15.6382 15.9037C13.3124 15.9037 11.427 14.0347 11.427 11.729C11.427 9.42334 13.3124 7.55426 15.6382 7.55426C17.964 7.55426 19.8494 9.42334 19.8494 11.729ZM14.5057 11.729C14.5057 12.1993 14.1214 12.5806 13.6474 12.5806C13.1734 12.5806 12.7892 12.1993 12.7892 11.729C12.7892 11.2587 13.1734 10.8774 13.6474 10.8774C14.1214 10.8774 14.5057 11.2587 14.5057 11.729ZM15.6382 12.5806C16.1122 12.5806 16.4964 12.1993 16.4964 11.729C16.4964 11.2587 16.1122 10.8774 15.6382 10.8774C15.1642 10.8774 14.7799 11.2587 14.7799 11.729C14.7799 12.1993 15.1642 12.5806 15.6382 12.5806ZM18.4872 11.729C18.4872 12.1993 18.1029 12.5806 17.6289 12.5806C17.1549 12.5806 16.7707 12.1993 16.7707 11.729C16.7707 11.2587 17.1549 10.8774 17.6289 10.8774C18.1029 10.8774 18.4872 11.2587 18.4872 11.729Z" fill="white"/>
<path fill-rule="evenodd" clip-rule="evenodd" d="M13.5113 6.19239C13.9416 6.08837 14.2085 5.8902 14.312 5.59786C14.4672 5.15936 14.5474 4.09528 13.7517 3.52743C12.956 2.95958 11.6529 2.86794 10.9815 3.16768C10.5339 3.36752 10.2195 3.60168 10.0385 3.87017C9.71128 3.59827 9.39807 3.48403 9.09881 3.52743C8.79956 3.57083 8.57631 3.68508 8.42908 3.87017C6.97182 3.62091 5.82321 3.86292 4.98324 4.59619C3.72329 5.69611 3.62219 7.52709 4.98324 8.73722C6.3443 9.94735 5.79799 9.87911 6.1297 10.3699C6.46142 10.8607 7.30546 11.3296 8.04391 11.2681C8.78236 11.2066 10.1623 11.3315 10.5329 10.3699C10.9035 9.40838 10.5953 9.12558 10.1747 9.02517C9.75411 8.92476 8.79026 8.83818 8.30355 8.60005C7.81683 8.36192 6.40742 7.71699 6.1297 7.13621C5.85199 6.55543 5.70207 5.47167 6.65116 5.23961C7.60026 5.00754 7.95322 5.02097 8.12838 5.16402C8.30355 5.30707 9.10466 5.49868 9.3222 5.19857C9.53974 4.89846 9.73962 4.82354 9.88904 4.82354C10.0385 4.82354 10.4546 5.05088 10.602 4.82354C10.7494 4.59619 11.4681 3.82539 12.4353 4.15478C13.4025 4.48416 13.5759 5.10401 13.5759 5.33784C13.5759 5.49372 13.5543 5.77857 13.5113 6.19239Z" fill="white"/>
<path fill-rule="evenodd" clip-rule="evenodd" d="M13.5113 17.1897C13.9416 17.2937 14.2085 17.4919 14.312 17.7842C14.4672 18.2227 14.5474 19.2868 13.7517 19.8547C12.956 20.4225 11.6529 20.5141 10.9815 20.2144C10.5339 20.0146 10.2195 19.7804 10.0385 19.5119C9.71128 19.7838 9.39807 19.8981 9.09881 19.8547C8.79956 19.8112 8.57631 19.697 8.42908 19.5119C6.97182 19.7612 5.82321 19.5192 4.98324 18.7859C3.72329 17.686 3.62219 15.855 4.98324 14.6449C6.3443 13.4347 5.79799 13.503 6.1297 13.0122C6.46142 12.5213 7.30546 12.0525 8.04391 12.114C8.78236 12.1754 10.1623 12.0506 10.5329 13.0122C10.9035 13.9737 10.5953 14.2565 10.1747 14.3569C9.75411 14.4573 8.79026 14.5439 8.30355 14.782C7.81683 15.0202 6.40742 15.6651 6.1297 16.2459C5.85199 16.8267 5.70207 17.9104 6.65116 18.1425C7.60026 18.3745 7.95322 18.3611 8.12838 18.2181C8.30355 18.075 9.10466 17.8834 9.3222 18.1835C9.53974 18.4836 9.73962 18.5585 9.88904 18.5585C10.0385 18.5585 10.4546 18.3312 10.602 18.5585C10.7494 18.7859 11.4681 19.5567 12.4353 19.2273C13.4025 18.8979 13.5759 18.2781 13.5759 18.0442C13.5759 17.8884 13.5543 17.6035 13.5113 17.1897Z" fill="white"/>
</g>
<defs>
<clipPath id="clip0_241_737">
<rect width="24" height="24" fill="white"/>
</clipPath>
</defs>
</svg>
