<svg width="24" height="24" viewBox="0 0 24 24" fill="none" xmlns="http://www.w3.org/2000/svg">
<g clip-path="url(#clip0_99_103)">
<circle cx="12" cy="12" r="11.5" fill="#055C9D" stroke="white"/>
<path d="M20.2034 8.51742L18.9406 8.33742C18.785 7.95159 18.7417 7.85182 18.5799 7.46599L19.3452 6.44595C19.5504 6.17245 19.5197 5.7929 19.2832 5.5501L18.2443 4.51122C18.0015 4.2747 17.6219 4.244 17.3484 4.44913L16.3284 5.2145C15.9426 5.05264 15.8435 5.00938 15.4577 4.85379L15.2769 3.59095C15.2274 3.24908 14.9351 3 14.5925 3H13.1308C12.7889 3 12.5022 3.24908 12.4527 3.59095L12.2664 4.85379C11.8805 5.00938 11.7815 5.05264 11.3956 5.2145L10.3749 4.44913C10.1014 4.244 9.72185 4.26842 9.47905 4.51122L8.44017 5.5508C8.25947 5.73708 8.19737 5.99872 8.26575 6.22896C10.1007 6.2785 11.5442 6.75782 12.1973 7.47296C13.3478 6.68875 14.9407 6.80736 15.9607 7.83368C17.1238 8.99046 17.1238 10.8757 15.9607 12.0324C15.5316 12.4615 15.009 12.7294 14.4551 12.8411C15.8546 13.1955 16.9933 14.2037 17.5277 15.5161C17.7705 15.6033 18.0503 15.5412 18.2429 15.3542L19.2818 14.3153C19.5183 14.0725 19.549 13.693 19.3439 13.4195L18.5785 12.3932C18.7403 12.0136 18.7836 11.9138 18.9392 11.5287L20.202 11.3417C20.5439 11.2922 20.793 11.0061 20.793 10.6636V9.20187C20.7944 8.85999 20.546 8.56696 20.2034 8.51742Z" fill="white"/>
<path d="M7.8841 17.8855C6.40358 17.8855 4.86655 17.5673 4 16.9673V18.3355C4 18.8971 5.47564 19.6751 7.8841 19.6751C8.48343 19.6751 9.02694 19.6283 9.50068 19.5439C9.1916 19.029 8.98508 18.452 8.90065 17.8338C8.56366 17.8666 8.22179 17.8855 7.8841 17.8855Z" fill="white"/>
<path d="M7.8841 17.1822C8.23086 17.1822 8.55878 17.1682 8.86298 17.1354C8.88182 16.4747 9.04089 15.8517 9.31788 15.2893C8.84903 15.3598 8.36203 15.3926 7.8841 15.3926C6.40358 15.3926 4.86655 15.0737 4 14.4744V15.8426C4 16.4049 5.47564 17.1822 7.8841 17.1822Z" fill="white"/>
<path d="M7.8841 14.69C8.62437 14.69 9.27113 14.6146 9.81883 14.4981C10.3205 13.8611 10.9903 13.3644 11.7682 13.0741V11.9822C10.9017 12.5815 9.36463 12.9004 7.8841 12.9004C6.40358 12.9004 4.86655 12.5815 4 11.9822V13.3504C4 13.9121 5.47564 14.69 7.8841 14.69Z" fill="white"/>
<path d="M7.8855 12.1957C10.294 12.1957 11.7696 11.4178 11.7696 10.8554V9.48793C10.9031 10.0879 9.36602 10.4061 7.8855 10.4061C6.40498 10.4061 4.86794 10.0879 4.0014 9.48793V10.8561C4.0014 11.4178 5.47703 12.1957 7.8855 12.1957Z" fill="white"/>
<path d="M7.88565 9.70282C10.0308 9.70282 11.7698 9.10306 11.7698 8.36323C11.7698 7.6234 10.0308 7.02364 7.88565 7.02364C5.74052 7.02364 4.00155 7.6234 4.00155 8.36323C4.00155 9.10306 5.74052 9.70282 7.88565 9.70282Z" fill="white"/>
<path d="M13.3164 13.5004C11.2484 13.5004 9.56626 15.1826 9.56626 17.2499C9.56626 19.3171 11.2484 20.9993 13.3164 20.9993C15.3844 20.9993 17.0659 19.3171 17.0659 17.2499C17.0659 15.1826 15.3837 13.5004 13.3164 13.5004Z" fill="white"/>
</g>
<defs>
<clipPath id="clip0_99_103">
<rect width="24" height="24" fill="white"/>
</clipPath>
</defs>
</svg>
