<svg width="24" height="24" viewBox="0 0 24 24" fill="none" xmlns="http://www.w3.org/2000/svg">
<circle cx="12" cy="12" r="11.5" fill="#055C9D" stroke="white"/>
<path fill-rule="evenodd" clip-rule="evenodd" d="M9.72199 14.8658L6.94772 17.6278V14.5636L2.96332 16.4051L5.73487 12.2025L3.29208 12.3951L5.392 11.1677L2.68185 8.77374L6.58401 9.86078L5.0145 7.96239L6.58401 8.46339L6.24323 4.97142L8.20927 7.96239L9.72199 6.25281V9.32616V11.4243V14.8658Z" fill="white"/>
<path fill-rule="evenodd" clip-rule="evenodd" d="M15.9773 8.22273L20.0464 4.97142L17.884 9.41715L21.4503 9.71351L18.4341 11.0128L20.7171 12.6141L18.2333 12.9693L21.4503 16.8172L16.9691 14.3744L16.3309 16.8172L15.9773 14.3744V10.1209V8.22273Z" fill="white"/>
<path d="M13.9087 14.884L14.2751 8.74121C14.2948 8.41181 14.0437 8.12885 13.7143 8.1092C13.7024 8.1085 13.6906 8.10814 13.6787 8.10814H11.7358C11.4058 8.10814 11.1383 8.37565 11.1383 8.70563C11.1383 8.7175 11.1387 8.72936 11.1394 8.74121L11.5058 14.884C11.5246 15.1996 11.786 15.4459 12.1022 15.4459H13.3123C13.6285 15.4459 13.8899 15.1996 13.9087 14.884ZM12.6998 19.6422C13.1855 19.6422 13.5633 19.5117 13.8334 19.2505C14.1035 18.9894 14.2385 18.6261 14.2385 18.1607C14.2385 17.6902 14.1085 17.3243 13.8483 17.0632C13.5881 16.802 13.2053 16.6715 12.6998 16.6715C12.1894 16.6715 11.8004 16.802 11.5328 17.0632C11.2652 17.3243 11.1314 17.6902 11.1314 18.1607C11.1314 18.6261 11.2701 18.9894 11.5476 19.2505C11.8252 19.5117 12.2092 19.6422 12.6998 19.6422Z" fill="white"/>
</svg>
