<svg width="24" height="24" viewBox="0 0 24 24" fill="none" xmlns="http://www.w3.org/2000/svg">
<g clip-path="url(#clip0_148_139)">
<circle cx="12" cy="12" r="11.5" fill="#055C9D" stroke="white"/>
<path d="M9.60779 6.78974H14.8806C15.2245 6.78974 15.5035 6.51078 15.5035 6.16693V4.92397C15.5035 4.58012 15.2245 4.30116 14.8806 4.30116H13.9019C13.716 3.55592 13.0463 3 12.2442 3C11.4428 3 10.7725 3.55592 10.5865 4.30116H9.60779C9.26393 4.30116 8.98497 4.58012 8.98497 4.92397V6.16693C8.98497 6.51078 9.26393 6.78974 9.60779 6.78974ZM12.2442 4.00815C12.6329 4.00815 12.9486 4.32323 12.9486 4.71258C12.9486 5.10125 12.6336 5.41701 12.2442 5.41701C11.8555 5.41701 11.5398 5.10192 11.5398 4.71258C11.5398 4.3239 11.8549 4.00815 12.2442 4.00815Z" fill="white"/>
<path d="M17.8703 5.32335H16.3276V6.16693C16.3276 6.96502 15.6774 7.61125 14.8793 7.61125H9.60845C8.81036 7.61125 8.16012 6.96502 8.16012 6.16693V5.32335H6.61746C6.27562 5.32335 6 5.59897 6 5.94082V19.3825C6 19.7237 6.27562 20 6.61746 20H17.8703C18.2115 20 18.4878 19.7244 18.4878 19.3825V5.94082C18.4878 5.59897 18.2115 5.32335 17.8703 5.32335ZM8.85987 10.2731C8.69932 10.1125 8.69932 9.85365 8.85987 9.6931C9.02042 9.53254 9.27932 9.53254 9.43987 9.6931L9.95833 10.2116L10.4808 9.6931C10.6414 9.53254 10.9002 9.53254 11.0608 9.6931C11.2214 9.85365 11.2214 10.1125 11.0608 10.2731L10.5423 10.7916L11.0608 11.314C11.2214 11.4746 11.2214 11.7335 11.0608 11.894C10.9825 11.9763 10.8755 12.0131 10.7685 12.0131C10.6654 12.0131 10.5584 11.9763 10.4801 11.894L9.95766 11.3756L9.4392 11.894C9.36093 11.9763 9.2539 12.0131 9.15087 12.0131C9.04384 12.0131 8.9368 11.9763 8.85853 11.894C8.69798 11.7335 8.69798 11.4746 8.85853 11.314L9.37699 10.7916L8.85987 10.2731ZM15.1837 17.2512C15.3442 17.4117 15.3442 17.6706 15.1837 17.8352C15.1014 17.9135 14.9984 17.9543 14.8914 17.9543C14.7883 17.9543 14.6813 17.9135 14.599 17.8352L14.0806 17.3127L13.5621 17.8352C13.4798 17.9135 13.3768 17.9543 13.2698 17.9543C13.1667 17.9543 13.0597 17.9135 12.9774 17.8352C12.8169 17.6706 12.8169 17.4111 12.9774 17.2512L13.4999 16.7327L12.9774 16.2143C12.8169 16.0537 12.8169 15.7901 12.9774 15.6303C13.142 15.4697 13.4015 15.4697 13.5614 15.6303L14.0799 16.1487L14.5983 15.6303C14.7589 15.4697 15.0218 15.4697 15.1824 15.6303C15.3429 15.7908 15.3429 16.0544 15.1824 16.2143L14.6639 16.7327L15.1837 17.2512ZM15.7557 11.5161C15.6774 11.5983 15.5704 11.6398 15.4633 11.6398C15.3603 11.6398 15.2533 11.5983 15.1757 11.5161L14.6325 10.9769V12.3717C14.6325 13.4541 13.7521 14.3344 12.6697 14.3344H10.8059C10.1764 14.3344 9.66197 14.8489 9.66197 15.4784V17.5435C9.66197 17.7696 9.48068 17.9549 9.25055 17.9549C9.02444 17.9549 8.83913 17.7696 8.83913 17.5435V15.4784C8.83913 14.396 9.7195 13.5116 10.8059 13.5116H12.6697C13.2992 13.5116 13.8096 13.0012 13.8096 12.3717V10.9769L13.2704 11.5161C13.1099 11.6766 12.847 11.6766 12.6864 11.5161C12.5259 11.3555 12.5259 11.0966 12.6864 10.9361L13.9334 9.69377C14.0076 9.6155 14.1147 9.57068 14.2217 9.57068C14.3328 9.57068 14.4358 9.61617 14.514 9.69377L15.7563 10.9361C15.9162 11.0959 15.9162 11.3555 15.7557 11.5161Z" fill="white"/>
</g>
<defs>
<clipPath id="clip0_148_139">
<rect width="24" height="24" fill="white"/>
</clipPath>
</defs>
</svg>
