<svg width="24" height="24" viewBox="0 0 24 24" fill="none" xmlns="http://www.w3.org/2000/svg">
<g clip-path="url(#clip0_148_145)">
<rect x="0.5" y="0.5" width="23" height="23" rx="3.5" fill="#1DADAF" stroke="white"/>
<path fill-rule="evenodd" clip-rule="evenodd" d="M9.04468 6.24867H14.9561C15.3416 6.24867 15.6543 5.93593 15.6543 5.55044V4.15696C15.6543 3.77147 15.3416 3.45872 14.9561 3.45872H13.8588C13.6503 2.62324 12.8996 2 12.0004 2C11.1019 2 10.3504 2.62324 10.1419 3.45872H9.04468C8.65919 3.45872 8.34644 3.77147 8.34644 4.15696V5.55044C8.34644 5.93593 8.65919 6.24867 9.04468 6.24867ZM12.0004 3.13023C12.4361 3.13023 12.7901 3.48347 12.7901 3.91997C12.7901 4.35571 12.4369 4.7097 12.0004 4.7097C11.5646 4.7097 11.2106 4.35646 11.2106 3.91997C11.2106 3.48422 11.5639 3.13023 12.0004 3.13023ZM16.5783 4.6047H18.3078C18.6903 4.6047 19 4.9137 19 5.29694V20.3664C19 20.7497 18.6903 21.0587 18.3078 21.0587H5.69224C5.30899 21.0587 5 20.7489 5 20.3664V5.29694C5 4.9137 5.30899 4.6047 5.69224 4.6047H7.42171V5.55044C7.42171 6.44517 8.15069 7.16966 9.04543 7.16966H14.9546C15.8493 7.16966 16.5783 6.44517 16.5783 5.55044V4.6047ZM13.1786 20H11.9159C10.0538 20 8.45463 18.6381 8.11565 16.7593C7.94944 15.8365 7.93356 14.8042 8.26141 13.784C8.2912 13.6911 8.42008 13.6887 8.45503 13.7796C8.60694 14.1729 8.94254 14.8879 9.48089 15.2397C9.96522 15.5561 10.0274 15.2429 9.79921 14.3607C9.58296 13.5252 9.16117 11.5805 9.66437 10.3032C9.69734 10.2191 9.8147 10.2238 9.85322 10.3053C10.2534 11.1497 10.7276 11.7493 11.1692 12.0992C11.1692 12.0992 11.0149 9.51664 12.6464 8.02577C12.7161 7.96219 12.8275 8.02495 12.8134 8.11951C12.7003 8.88369 12.842 9.86633 13.1693 10.5726C13.793 11.9194 13.6046 12.6967 13.6046 12.6967C13.6046 12.6967 14.5429 11.9488 14.3036 10.4624C14.2871 10.3611 14.4082 10.2965 14.4777 10.3703C15.165 11.0972 15.8581 12.2832 15.2653 14.103C14.7399 15.7159 15.0006 16.0827 15.397 15.7381C15.7083 15.4675 16.1553 14.9782 16.2149 13.9672C16.2211 13.8631 16.3537 13.8315 16.4059 13.921C16.7368 14.4867 16.9139 15.1072 16.979 15.7369C17.2155 18.0233 15.4192 20 13.1786 20Z" fill="white"/>
</g>
<defs>
<clipPath id="clip0_148_145">
<rect width="24" height="24" fill="white"/>
</clipPath>
</defs>
</svg>
