<svg width="24" height="24" viewBox="0 0 24 24" fill="none" xmlns="http://www.w3.org/2000/svg">
<g clip-path="url(#clip0_148_133)">
<circle cx="12" cy="12" r="11.5" fill="#055C9D" stroke="white"/>
<path fill-rule="evenodd" clip-rule="evenodd" d="M14.3515 3C14.7333 3 15.0995 3.03282 15.4553 3.09846L15.4363 3.76524C15.4519 4.24201 15.6333 4.58577 15.9805 4.79824L16.8563 5.3061C17.2121 5.5013 17.6008 5.48575 18.0206 5.25946L18.5854 4.91225C19.0985 5.4892 19.4716 6.12489 19.7013 6.81931L19.1071 7.14061C18.7012 7.39109 18.4939 7.7193 18.4852 8.12524V9.13923C18.4939 9.54517 18.7029 9.87338 19.1071 10.1256L19.7013 10.4469C19.4699 11.1396 19.0985 11.7753 18.5854 12.3505L18.0206 12.0016C17.6008 11.7753 17.2121 11.7614 16.8563 11.9549L15.9805 12.461C15.6333 12.6718 15.4519 13.0155 15.4363 13.494L15.4553 14.166C15.1012 14.2316 14.7333 14.2645 14.3515 14.2645C13.9698 14.2645 13.6018 14.2316 13.246 14.166L13.2667 13.4975C13.2512 13.0207 13.0698 12.6787 12.7226 12.468L11.8468 11.9601C11.4892 11.7649 11.1005 11.7804 10.679 12.0067L10.1211 12.3505C9.60459 11.7735 9.23147 11.1361 9 10.4417L9.59423 10.1204C10.0002 9.8682 10.2075 9.53999 10.2161 9.13578V8.12178C10.2075 7.71584 10.0002 7.38763 9.59423 7.13716L9.00173 6.81759C9.2332 6.12662 9.60459 5.49266 10.1176 4.91743L10.679 5.26464C11.1005 5.49093 11.4892 5.50475 11.8468 5.31128L12.7226 4.80342C13.0698 4.59268 13.2512 4.24892 13.2667 3.77388L13.246 3.10019C13.6018 3.03282 13.9698 3 14.3515 3ZM15.9356 7.0456C15.7905 6.90223 15.6367 6.78131 15.4709 6.68457C15.1375 6.48765 14.7627 6.39091 14.3481 6.39091C13.9335 6.39091 13.5586 6.48938 13.2235 6.68457C13.0612 6.78131 12.9074 6.90223 12.764 7.0456C12.327 7.48264 12.1076 8.01123 12.1059 8.62792V8.6331C12.1059 9.25151 12.3253 9.77837 12.764 10.2171C12.9091 10.3622 13.0629 10.4814 13.227 10.5782C13.5604 10.7751 13.9335 10.8736 14.3481 10.8736C14.7644 10.8736 15.141 10.7751 15.4761 10.5764C15.6402 10.4797 15.7922 10.3605 15.9356 10.2171C16.3709 9.7801 16.5903 9.25151 16.5903 8.6331C16.5903 8.01468 16.3726 7.48437 15.9356 7.0456Z" fill="white"/>
<path d="M20.9983 13.7111C20.8209 13.5148 20.6233 13.41 20.4115 13.3999C20.2887 13.3939 20.1625 13.4306 20.0551 13.503C20.053 13.5045 20.0509 13.506 20.0485 13.5073L15.039 16.6947C15.18 17.0799 15.1408 17.4783 14.9194 17.8458C14.5593 18.4433 14.048 18.5773 13.6826 18.5845C13.3082 18.5918 13.0199 18.469 12.9884 18.4551C12.9831 18.4525 12.9775 18.4502 12.9724 18.4474L8.7757 16.2642C8.6364 16.1917 8.58196 16.0199 8.65461 15.8804C8.72705 15.7408 8.89893 15.6866 9.03866 15.7593L13.2248 17.9369C13.2593 17.9506 13.4546 18.0235 13.689 18.0147C14.0083 18.0031 14.2514 17.8516 14.4318 17.552C14.6163 17.2459 14.5589 16.9628 14.4342 16.7397L14.4291 16.7315C14.427 16.7279 14.425 16.7242 14.423 16.7205C14.3872 16.6592 14.3465 16.6028 14.3047 16.552C14.1738 16.3926 14.0319 16.2873 13.9946 16.2608C12.5206 15.4309 8.58346 13.2595 7.87945 13.0724C7.70821 13.0268 7.44439 13 7.13086 13C6.72816 13 6.24361 13.0444 5.76698 13.1517C5.3414 13.2475 4.66634 13.4528 4.20274 13.8553L4.02846 13.3L2 13.9365L3.62448 19.1126L5.65295 18.4761L5.43798 17.7909C6.08681 18.1574 7.1998 18.7284 8.42787 19.254C10.6117 20.1889 12.2145 20.5774 12.9413 20.3481C14.6121 19.8209 20.0009 15.4327 20.9928 14.5904C21.0892 14.5088 21.1571 14.4016 21.1846 14.2891C21.2317 14.0911 21.1711 13.902 20.9983 13.7111Z" fill="white"/>
</g>
<defs>
<clipPath id="clip0_148_133">
<rect width="24" height="24" fill="white"/>
</clipPath>
</defs>
</svg>
