<svg width="24" height="24" viewBox="0 0 24 24" fill="none" xmlns="http://www.w3.org/2000/svg">
<g clip-path="url(#clip0_101_356)">
<circle cx="12" cy="12" r="11.5" fill="#055C9D" stroke="white"/>
<path fill-rule="evenodd" clip-rule="evenodd" d="M11.9997 4L15.6373 7.63749C15.1904 6.86229 15.2863 5.84988 15.9511 5.18412C16.3469 4.78873 16.8654 4.59103 17.3838 4.59103C17.9022 4.59103 18.4205 4.7887 18.8158 5.18401C19.2112 5.57974 19.409 6.09822 19.409 6.61662C19.409 7.13497 19.2113 7.65325 18.816 8.04852C18.15 8.71353 17.1376 8.8094 16.3624 8.36251L20 12L11.9997 20L4 12L6.70106 9.2984C6.75164 9.82397 6.97359 10.3343 7.37655 10.7373C7.84045 11.2012 8.44858 11.4331 9.0567 11.4331C9.66483 11.4331 10.273 11.2012 10.7369 10.7373C11.2008 10.2734 11.4327 9.66529 11.4327 9.05709C11.4327 8.44893 11.2008 7.84066 10.7368 7.37625C10.3339 6.97402 9.82361 6.75225 9.29852 6.70166L11.9997 4Z" fill="white"/>
</g>
<defs>
<clipPath id="clip0_101_356">
<rect width="24" height="24" fill="white"/>
</clipPath>
</defs>
</svg>
