<svg width="24" height="24" viewBox="0 0 24 24" fill="none" xmlns="http://www.w3.org/2000/svg">
<g clip-path="url(#clip0_241_743)">
<circle cx="12" cy="12" r="11.5" fill="#BD97CB" stroke="white"/>
<path d="M20.3607 5.48306C19.974 5.4478 19.6319 5.73274 19.5967 6.11946L19.5035 7.14142C17.9229 4.65917 15.1791 3 12 3C8.57994 3 5.56595 4.95195 4.06977 7.8816C3.89314 8.22744 4.03032 8.65097 4.37615 8.82759C4.72206 9.00422 5.14552 8.86707 5.32214 8.5212C6.58837 6.04184 9.13113 4.40626 12 4.40626C14.6148 4.40626 16.9746 5.7679 18.3265 7.90108L17.3239 7.18505C17.0079 6.95938 16.5688 7.03258 16.3431 7.34856C16.1174 7.66458 16.1906 8.10369 16.5066 8.32939L19.5468 10.5007C19.9923 10.8183 20.6069 10.5275 20.6556 9.99236L20.997 6.24715C21.0323 5.86039 20.7474 5.51832 20.3607 5.48306Z" fill="white"/>
<path fill-rule="evenodd" clip-rule="evenodd" d="M14 7H8V17H16V9L14 7ZM9 11V12H15V11H9ZM9 9H12V10H9V9ZM13 8V10H15L13 8ZM15 13V14H9V13H15ZM15 16V15H9V16H15Z" fill="white"/>
<path d="M18.6779 15.4789C18.8545 15.1331 19.278 14.9959 19.6238 15.1725C19.9697 15.3492 20.1069 15.7727 19.9302 16.1185C18.434 19.0482 15.42 21.0001 12 21.0001C8.82084 21.0001 6.07709 19.341 4.49653 16.8587L4.40337 17.8806C4.36814 18.267 4.02653 18.5522 3.63932 18.517C3.25263 18.4818 2.96769 18.1397 3.00295 17.753L3.34435 14.0078C3.39357 13.4671 4.0131 13.185 4.45322 13.4994L7.49337 15.6707C7.80936 15.8964 7.88255 16.3355 7.65689 16.6516C7.43118 16.9675 6.99208 17.0407 6.67606 16.8151L5.6735 16.099C7.02541 18.2322 9.38517 19.5939 12 19.5939C14.8689 19.5939 17.4116 17.9583 18.6779 15.4789Z" fill="white"/>
</g>
<defs>
<clipPath id="clip0_241_743">
<rect width="24" height="24" fill="white"/>
</clipPath>
</defs>
</svg>
