<svg width="24" height="24" viewBox="0 0 24 24" fill="none" xmlns="http://www.w3.org/2000/svg">
<circle cx="12" cy="12" r="11.5" fill="#4453D9" stroke="white"/>
<path fill-rule="evenodd" clip-rule="evenodd" d="M4.5022 19.4057C4.71742 19.4057 4.96254 19.3338 5.23756 19.1901C5.51257 19.0463 5.80253 18.8575 6.10743 18.6239C6.41234 18.3902 6.72023 18.1236 7.03112 17.824C7.342 17.5245 7.64093 17.2249 7.9279 16.9254C8.11921 16.7456 8.34939 16.515 8.61842 16.2334C8.88745 15.9518 9.14752 15.6732 9.39862 15.3976C9.64972 15.122 9.87391 14.8614 10.0712 14.6157C10.2685 14.3701 10.403 14.1933 10.4748 14.0855C10.5585 14.3491 10.687 14.6666 10.8604 15.0381C11.0337 15.4096 11.231 15.766 11.4522 16.1075C11.6735 16.449 11.9006 16.7456 12.1338 16.9973C12.367 17.2489 12.5852 17.3927 12.7885 17.4286C13.1352 17.2968 13.5029 17.0931 13.8915 16.8175C14.2801 16.5419 14.6418 16.2663 14.9766 15.9907C15.0962 15.8949 15.2247 15.799 15.3622 15.7031C15.4997 15.6073 15.6312 15.5144 15.7568 15.4245C15.8823 15.3347 15.987 15.2478 16.0707 15.1639C16.1544 15.08 16.1962 15.0081 16.1962 14.9482C16.1962 14.8524 16.1603 14.8044 16.0886 14.8044C16.0527 14.8044 16.0288 14.8104 16.0169 14.8224C15.8375 14.9902 15.6163 15.1489 15.3532 15.2987C15.0902 15.4485 14.7494 15.5234 14.3309 15.5234C14.0439 15.5234 13.76 15.4096 13.479 15.1819C13.198 14.9542 12.9439 14.6726 12.7167 14.3371C12.4895 14.0016 12.2982 13.6361 12.1428 13.2407C11.9873 12.8453 11.8917 12.4738 11.8558 12.1263C11.9515 11.4194 12.1398 10.8862 12.4208 10.5267C12.7018 10.1672 13.0515 9.98746 13.47 9.98746C13.6852 9.98746 13.8676 10.0264 14.017 10.1043C14.1665 10.1822 14.295 10.2661 14.4027 10.3559C14.5103 10.4458 14.6059 10.5297 14.6896 10.6076C14.7733 10.6854 14.851 10.7244 14.9228 10.7244C14.9587 10.7244 15.0304 10.6165 15.138 10.4009C15.2456 10.1852 15.3622 9.94252 15.4878 9.67292C15.6133 9.40331 15.7269 9.14868 15.8285 8.90903C15.9302 8.66938 15.987 8.5196 15.9989 8.45968C15.9033 8.35184 15.7867 8.28294 15.6492 8.25298C15.5117 8.22303 15.3413 8.20805 15.138 8.20805C14.8152 8.20805 14.4834 8.28893 14.1426 8.4507C13.8018 8.61246 13.473 8.82515 13.1561 9.08877C12.8393 9.35238 12.5374 9.65195 12.2504 9.98746C11.9634 10.323 11.7063 10.6585 11.4792 10.994C11.3955 10.6705 11.2878 10.3499 11.1563 10.0324C11.0248 9.71486 10.8664 9.42428 10.681 9.16066C10.4957 8.89705 10.2864 8.68436 10.0533 8.52259C9.82011 8.36083 9.55406 8.27995 9.25514 8.27995C9.12361 8.27995 8.90539 8.34884 8.60048 8.48664C8.29558 8.62444 7.98171 8.78321 7.65886 8.96295C7.33602 9.14269 7.05204 9.31344 6.80692 9.4752C6.5618 9.63697 6.43924 9.73583 6.43924 9.77177C6.43924 9.87962 6.48109 9.93354 6.56479 9.93354C6.68436 9.89759 6.79198 9.84367 6.88763 9.77177C6.98329 9.69988 7.07895 9.66393 7.1746 9.66393C7.5094 9.66393 7.83822 9.76878 8.16106 9.97847C8.4839 10.1882 8.77984 10.4578 9.04888 10.7873C9.31791 11.1168 9.55406 11.4763 9.75733 11.8657C9.9606 12.2552 10.1101 12.6296 10.2057 12.9891C9.96658 13.4564 9.67064 13.9597 9.31791 14.4989C8.96518 15.0381 8.59451 15.5324 8.2059 15.9817C7.8173 16.4311 7.42869 16.8055 7.04009 17.1051C6.65148 17.4047 6.30174 17.5544 5.99085 17.5544C5.79954 17.5544 5.65904 17.4975 5.56937 17.3837C5.47969 17.2699 5.41691 17.144 5.38104 17.0062C5.34517 16.8684 5.32126 16.7426 5.3093 16.6288C5.29734 16.515 5.27343 16.458 5.23756 16.458C5.21364 16.458 5.18375 16.476 5.14788 16.512C5.07614 16.7876 4.98347 17.0721 4.86988 17.3657C4.75629 17.6593 4.64269 17.9349 4.5291 18.1925C4.41551 18.4501 4.31088 18.6748 4.21523 18.8665C4.11957 19.0583 4.04783 19.1841 4 19.244C4.03587 19.2679 4.09267 19.3009 4.17039 19.3428C4.24811 19.3848 4.35871 19.4057 4.5022 19.4057Z" fill="white"/>
<path fill-rule="evenodd" clip-rule="evenodd" d="M17.8995 7.92276C17.8922 7.83559 17.8829 7.72117 17.8719 7.57952C17.8608 7.43786 17.8497 7.29076 17.8386 7.13821C17.8276 6.98566 17.8202 6.83674 17.8165 6.69145C17.8128 6.54616 17.8146 6.42267 17.822 6.32097C18.0435 6.48078 18.2521 6.64241 18.4478 6.80586C18.6434 6.96931 18.8262 7.13094 18.996 7.29076C19.0329 7.18906 19.0883 7.07828 19.1621 6.95841C19.2359 6.83855 19.3024 6.7314 19.3614 6.63697C19.1547 6.54979 18.9351 6.44809 18.7025 6.33186C18.4699 6.21563 18.2392 6.09214 18.0103 5.96138C18.2466 5.84515 18.4865 5.73255 18.7302 5.62359C18.9738 5.51462 19.199 5.40929 19.4057 5.30759C19.3467 5.20589 19.2895 5.09874 19.2341 4.98614C19.1787 4.87354 19.1215 4.75913 19.0624 4.6429C18.996 4.71554 18.9129 4.79545 18.8132 4.88262C18.7136 4.96979 18.6083 5.05878 18.4976 5.14959C18.3868 5.24039 18.2724 5.32756 18.1543 5.4111C18.0361 5.49464 17.9291 5.56547 17.8331 5.62359C17.8479 5.36207 17.8719 5.08602 17.9051 4.79545C17.9383 4.50487 17.9697 4.23972 17.9992 4H17.3347C17.3569 4.25425 17.3735 4.52303 17.3846 4.80634C17.3956 5.08966 17.4012 5.3657 17.4012 5.63448C16.9729 5.30759 16.5927 4.97706 16.2604 4.6429C16.2014 4.78092 16.1386 4.90441 16.0722 5.01338C16.0057 5.12235 15.9393 5.22768 15.8728 5.32938C16.0648 5.42382 16.2752 5.5237 16.5041 5.62903C16.733 5.73437 16.9656 5.84515 17.2018 5.96138C16.9803 6.09214 16.7459 6.21018 16.4986 6.31552C16.2512 6.42085 16.0316 6.528 15.8396 6.63697C15.906 6.72414 15.967 6.82584 16.0223 6.94207C16.0777 7.0583 16.1312 7.17453 16.1829 7.29076C16.3675 7.13094 16.5595 6.97113 16.7588 6.81131C16.9582 6.65149 17.1686 6.48805 17.3901 6.32097C17.3753 6.57522 17.3569 6.844 17.3347 7.12731C17.3126 7.41062 17.2867 7.67577 17.2572 7.92276H17.8995Z" fill="white"/>
</svg>
