<svg width="24" height="24" viewBox="0 0 24 24" fill="none" xmlns="http://www.w3.org/2000/svg">
<g clip-path="url(#clip0_64_291)">
<rect x="0.5" y="0.5" width="23" height="23" rx="3.5" fill="#36714D" stroke="white"/>
<path d="M14.1159 15H15.3786C17.6192 15 19.4155 13.0233 19.179 10.7369C19.1139 10.1072 18.9368 9.48668 18.6059 8.92098C18.5537 8.83152 18.4211 8.8631 18.4149 8.96724C18.3553 9.9782 17.9083 10.4675 17.597 10.7381C17.2006 11.0827 16.9399 10.7159 17.4653 9.10295C18.0581 7.28318 17.365 6.09717 16.6777 5.37028C16.6082 5.29651 16.4871 5.36111 16.5036 5.46239C16.7429 6.94878 15.8046 7.69666 15.8046 7.69666C15.8046 7.69666 15.993 6.91943 15.3693 5.57263C15.042 4.86633 14.9002 3.88369 15.0134 3.11951C15.0275 3.02495 14.9161 2.96219 14.8464 3.02577C13.2149 4.51664 13.3692 7.09917 13.3692 7.09917C12.9276 6.74927 12.4534 6.14975 12.0532 5.30527C12.0147 5.22376 11.8973 5.21907 11.8644 5.30324C11.3612 6.58054 11.783 8.52523 11.9992 9.36074C12.2274 10.2429 12.1652 10.5561 11.6809 10.2397C11.1425 9.88792 10.8069 9.17285 10.655 8.77955C10.6201 8.68867 10.4912 8.69111 10.4614 8.78404C10.1336 9.80417 10.1494 10.8365 10.3156 11.7593C10.6546 13.6381 12.2538 15 14.1159 15Z" fill="white"/>
<path d="M20.9983 13.7111C20.8209 13.5148 20.6233 13.41 20.4115 13.3999C20.2887 13.3939 20.1625 13.4306 20.0551 13.503C20.053 13.5045 20.0509 13.506 20.0485 13.5073L15.039 16.6947C15.18 17.0799 15.1408 17.4783 14.9194 17.8458C14.5593 18.4433 14.048 18.5773 13.6826 18.5845C13.3082 18.5918 13.0199 18.469 12.9884 18.4551C12.9831 18.4525 12.9775 18.4502 12.9724 18.4474L8.7757 16.2642C8.6364 16.1917 8.58196 16.0199 8.65461 15.8804C8.72705 15.7408 8.89893 15.6866 9.03866 15.7593L13.2248 17.9369C13.2593 17.9506 13.4546 18.0235 13.689 18.0147C14.0083 18.0031 14.2514 17.8516 14.4318 17.552C14.6163 17.2459 14.5589 16.9628 14.4342 16.7397L14.4291 16.7315C14.427 16.7279 14.425 16.7242 14.423 16.7205C14.3872 16.6592 14.3465 16.6028 14.3047 16.552C14.1738 16.3926 14.0319 16.2873 13.9946 16.2608C12.5206 15.4309 8.58346 13.2595 7.87945 13.0724C7.70821 13.0268 7.44439 13 7.13086 13C6.72816 13 6.24361 13.0444 5.76698 13.1517C5.3414 13.2475 4.66634 13.4528 4.20274 13.8553L4.02846 13.3L2 13.9365L3.62448 19.1126L5.65295 18.4761L5.43798 17.7909C6.08681 18.1574 7.1998 18.7284 8.42787 19.254C10.6117 20.1889 12.2145 20.5774 12.9413 20.3481C14.6121 19.8209 20.0009 15.4327 20.9928 14.5904C21.0892 14.5088 21.1571 14.4016 21.1846 14.2891C21.2317 14.0911 21.1711 13.902 20.9983 13.7111Z" fill="white"/>
</g>
<defs>
<clipPath id="clip0_64_291">
<rect width="24" height="24" fill="white"/>
</clipPath>
</defs>
</svg>
