<svg width="24" height="24" viewBox="0 0 24 24" fill="none" xmlns="http://www.w3.org/2000/svg">
<g clip-path="url(#clip0_64_305)">
<rect x="0.5" y="0.5" width="23" height="23" rx="9.5" fill="#0054DE" stroke="white"/>
<path fill-rule="evenodd" clip-rule="evenodd" d="M18.999 8.38051C18.1351 7.34587 17.0932 5.63455 16.3538 4.41991C15.8519 3.59557 15.4893 3 15.4162 3C15.3479 3 15.094 3.47126 14.7254 4.15552C14.069 5.3739 13.0489 7.26758 12.065 8.37848C11.3525 9.13268 11 10.0541 11 10.9753C11 12.0176 11.4512 13.0597 12.3426 13.8585C14.0332 15.3805 16.799 15.3805 18.4923 13.8585C20.1685 12.3538 20.6012 10.0707 18.999 8.38051ZM14.6328 13.6069C14.5647 13.8931 14.2258 14.0526 13.9236 13.9434C13.0777 13.6374 12.4248 13.048 12.016 12.2135C11.8527 11.8801 11.7548 11.5591 11.6963 11.3043C11.6315 11.0222 11.8617 10.7548 12.1815 10.7404L12.1827 10.7403L12.1916 10.74L12.193 10.7398L12.1947 10.7398C12.4466 10.7339 12.6684 10.8906 12.7195 11.1134C12.7667 11.3202 12.8477 11.5866 12.9847 11.8602C13.2822 12.4536 13.7282 12.8599 14.3137 13.0724C14.5506 13.1582 14.6861 13.3826 14.6328 13.6069Z" fill="white"/>
<path d="M21.7983 13.7111C21.6209 13.5148 21.4233 13.41 21.2115 13.3999C21.0887 13.3939 20.9625 13.4306 20.8551 13.503C20.854 13.5038 20.8528 13.5046 20.8516 13.5054C20.8506 13.5061 20.8496 13.5067 20.8485 13.5073L15.839 16.6947C15.98 17.0799 15.9408 17.4783 15.7194 17.8458C15.3593 18.4433 14.848 18.5773 14.4826 18.5845C14.1082 18.5918 13.8199 18.469 13.7884 18.4551L13.783 18.4526C13.7794 18.4509 13.7758 18.4492 13.7724 18.4474L9.5757 16.2642C9.4364 16.1917 9.38196 16.0199 9.45462 15.8804C9.52705 15.7408 9.69893 15.6866 9.83866 15.7593L14.0248 17.9369C14.0593 17.9506 14.2546 18.0235 14.489 18.0147C14.8083 18.0031 15.0514 17.8516 15.2318 17.552C15.4163 17.2459 15.3589 16.9628 15.2342 16.7397C15.2301 16.7333 15.2265 16.7271 15.223 16.7205C15.1872 16.6592 15.1465 16.6028 15.1047 16.552C14.9738 16.3926 14.8319 16.2873 14.7946 16.2608C13.3206 15.4309 9.38346 13.2595 8.67945 13.0724C8.50822 13.0268 8.2444 13 7.93086 13C7.52817 13 7.04361 13.0444 6.56698 13.1517C6.1414 13.2475 5.46634 13.4528 5.00274 13.8553L4.82846 13.3L2.8 13.9365L4.42448 19.1126L6.45294 18.4761L6.23798 17.7909C6.88681 18.1574 7.9998 18.7284 9.22787 19.254C11.4117 20.1889 13.0146 20.5774 13.7413 20.3481C15.4121 19.8209 20.8009 15.4327 21.7928 14.5904C21.8892 14.5088 21.9571 14.4016 21.9846 14.2891C22.0317 14.0911 21.9711 13.902 21.7983 13.7111Z" fill="white"/>
</g>
<defs>
<clipPath id="clip0_64_305">
<rect width="24" height="24" fill="white"/>
</clipPath>
</defs>
</svg>
