<svg width="24" height="24" viewBox="0 0 24 24" fill="none" xmlns="http://www.w3.org/2000/svg">
<g clip-path="url(#clip0_66_884)">
<circle cx="12" cy="12" r="11.5" fill="#137DDF" stroke="white"/>
<path d="M19.1196 13.2376C19.1391 13.0959 19.1493 12.9512 19.1493 12.8042C19.1493 11.0581 17.7338 9.64246 15.9876 9.64246C15.6081 9.64246 15.2443 9.70934 14.9071 9.83193C14.2138 8.13931 12.5037 7.00053 10.5737 7C8.00084 7 5.91523 9.00047 5.91523 11.468C5.91536 11.5678 5.9193 11.6674 5.92613 11.7668C5.85926 11.761 5.79224 11.7582 5.72523 11.7574C4.22025 11.7572 3.00013 12.9273 3 14.3708C3 15.8143 4.22012 16.9846 5.72523 16.9846C6.30179 16.9838 18.8132 17.0056 19.1159 17.0056C20.1565 17.0056 21 16.1621 21 15.1216C21 14.0822 20.1584 13.2396 19.1196 13.2376ZM15.3683 15.3548C15.2916 15.2025 15.1649 15.0237 14.9707 14.828C11.0284 16.8889 8.42524 10.9025 8.42524 10.9025C15.149 9.77254 15.7264 13.2007 15.6876 14.1188C12.9843 11.5352 10.4809 11.8085 10.4809 11.8085C10.4809 11.8085 12.672 12.0792 15.0998 14.3374C15.4088 14.6249 15.6359 14.9216 15.7655 15.1994L15.3683 15.3548Z" fill="white"/>
</g>
<defs>
<clipPath id="clip0_66_884">
<rect width="24" height="24" fill="white"/>
</clipPath>
</defs>
</svg>
