<svg width="24" height="24" viewBox="0 0 24 24" fill="none" xmlns="http://www.w3.org/2000/svg">
<g clip-path="url(#clip0_66_872)">
<circle cx="12" cy="12" r="11.5" fill="#137DDF" stroke="white"/>
<path fill-rule="evenodd" clip-rule="evenodd" d="M11.6953 11.1147C11.6556 11.6304 11.8395 12.7086 12.2867 14.371C12.7951 16.2461 13.4154 18.1249 14.1474 20H5.79941C6.72616 17.4037 7.33919 15.5429 7.63489 14.4287C7.93058 13.3252 8.11088 12.2218 8.1794 11.1183H11.6953V11.1147Z" fill="white"/>
<path d="M8.01713 4C8.87176 4 9.58936 4.62745 9.76245 5.46045C9.80572 5.45684 9.849 5.45323 9.89227 5.45323C10.4368 5.45323 10.9128 5.75975 11.1724 6.21411C11.3022 6.4449 11.378 6.71174 11.378 6.99662C11.378 7.2851 11.3022 7.55556 11.1688 7.78634C11.4789 7.83683 11.7169 8.1181 11.7169 8.45346C11.7169 8.82849 11.4248 9.13139 11.0642 9.13139C11.021 9.13139 10.9777 9.12779 10.938 9.12058C10.8803 9.91751 10.2132 10.545 9.39824 10.545C8.82849 10.545 8.33085 10.2348 8.06401 9.77688C7.72865 10.0185 7.32116 10.1591 6.88123 10.1591C5.77778 10.1591 4.87627 9.26482 4.80775 8.13613C4.32815 7.88371 4 7.36444 4 6.76583C4 5.9112 4.66351 5.22245 5.48569 5.22245C5.77417 5.22245 6.04462 5.30899 6.27181 5.45684C6.4485 4.62384 7.1625 4 8.01713 4Z" fill="white"/>
<path d="M17.3207 10.6964C17.2738 11.4717 16.6428 12.0883 15.8675 12.0883C15.2977 12.0883 14.8037 11.753 14.5657 11.2662C14.4864 11.1039 14.4359 10.9236 14.4179 10.7361C14.2376 10.8839 14.0104 10.9741 13.7616 10.9741C13.6317 10.9741 13.5019 10.9524 13.3865 10.9092C13.2747 10.8659 13.2026 10.7938 13.1449 10.7505C13.0872 10.7072 12.9214 10.5486 12.8673 10.4548C12.7735 10.2961 12.7194 10.1086 12.7194 9.9103C12.7194 9.71197 12.7735 9.52806 12.8637 9.373C13.044 9.05927 13.3793 8.85012 13.758 8.85012C13.7868 8.85012 13.8193 8.85012 13.8481 8.85373C13.9707 8.28037 14.4719 7.84764 15.0706 7.84764C15.6692 7.84764 16.1668 8.27676 16.293 8.85012C16.4517 8.74915 16.6428 8.68785 16.8447 8.68785C17.4181 8.68785 17.8833 9.16385 17.8833 9.74803C17.8869 10.1663 17.6561 10.5233 17.3207 10.6964Z" fill="white"/>
<path d="M14.9828 20L13.5079 15.5754C13.5262 15.5129 13.5434 15.4528 13.5596 15.3951C13.8156 14.4828 13.9707 13.5704 14.0356 12.6545H17.043C17.0214 13.1016 17.1764 13.9959 17.5587 15.3482C17.995 16.8988 18.5287 18.4494 19.1597 20H15.359H14.9828Z" fill="white"/>
</g>
<defs>
<clipPath id="clip0_66_872">
<rect width="24" height="24" fill="white"/>
</clipPath>
</defs>
</svg>
