<svg width="24" height="24" viewBox="0 0 24 24" fill="none" xmlns="http://www.w3.org/2000/svg">
<g clip-path="url(#clip0_66_879)">
<circle cx="12" cy="12" r="11.5" fill="#137DDF" stroke="white"/>
<path d="M19.1196 13.2376C19.1391 13.0959 19.1493 12.9512 19.1493 12.8042C19.1493 11.0581 17.7338 9.64246 15.9876 9.64246C15.6081 9.64246 15.2443 9.70934 14.9071 9.83193C14.2138 8.13931 12.5037 7.00053 10.5737 7C8.00084 7 5.91523 9.00047 5.91523 11.468C5.91536 11.5678 5.9193 11.6674 5.92613 11.7668C5.85926 11.761 5.79224 11.7582 5.7251 11.7574C4.22025 11.7572 3.00013 12.9273 3 14.3708C3 15.8143 4.22012 16.9846 5.72523 16.9846C6.30179 16.9838 18.8132 17.0056 19.1159 17.0056C20.1565 17.0056 21 16.1621 21 15.1216C21 14.0822 20.1584 13.2396 19.1196 13.2376ZM8.41749 13.7978C8.52011 13.9775 8.66293 14.1177 8.8457 14.2189C9.0286 14.3199 9.23554 14.3705 9.46653 14.3705C9.82261 14.3705 10.1226 14.2374 10.3664 13.9711L10.7706 14.3561C10.6135 14.539 10.4201 14.6785 10.1908 14.7747C9.96136 14.8709 9.70869 14.9191 9.4329 14.9191C9.09285 14.9191 8.78565 14.8445 8.51143 14.6953C8.23708 14.5462 8.02213 14.34 7.86656 14.077C7.71085 13.8139 7.6332 13.5173 7.6332 13.1867C7.6332 12.8562 7.71177 12.5595 7.86892 12.2963C8.02607 12.0333 8.24182 11.8271 8.51616 11.678C8.79051 11.5289 9.09758 11.4542 9.43776 11.4542C9.71369 11.4542 9.96544 11.5023 10.1933 11.5986C10.4211 11.6948 10.6136 11.8345 10.7707 12.0173L10.3666 12.3974C10.1227 12.1343 9.82274 12.0028 9.46667 12.0028C9.23568 12.0028 9.02873 12.0534 8.84583 12.1544C8.66293 12.2555 8.52024 12.3959 8.41762 12.5756C8.31487 12.7553 8.26363 12.959 8.26363 13.1867C8.26349 13.4144 8.31474 13.6182 8.41749 13.7978ZM14.7622 14.0769C14.6049 14.3399 14.3884 14.5461 14.1126 14.6952C13.8367 14.8443 13.527 14.919 13.1838 14.919C12.8405 14.919 12.5309 14.8443 12.255 14.6952C11.979 14.5461 11.7625 14.3391 11.6054 14.0744C11.4482 13.8097 11.3696 13.5137 11.3696 13.1865C11.3696 12.8594 11.4482 12.5633 11.6054 12.2987C11.7625 12.0341 11.979 11.8271 12.255 11.6779C12.5309 11.5287 12.8405 11.4541 13.1838 11.4541C13.527 11.4541 13.8367 11.5287 14.1126 11.6779C14.3884 11.827 14.6051 12.0332 14.7622 12.2962C14.9194 12.5593 14.9979 12.8561 14.9979 13.1865C14.9979 13.517 14.9194 13.8138 14.7622 14.0769ZM16.9942 15.044H15.6365V14.75L16.3295 14.036C16.4031 13.9595 16.4527 13.8937 16.4784 13.8385C16.504 13.7835 16.5169 13.7288 16.5169 13.6747C16.5169 13.5962 16.4924 13.536 16.4437 13.494C16.3949 13.452 16.3234 13.4309 16.2294 13.4309C16.1507 13.4309 16.0797 13.4474 16.0164 13.4799C15.9532 13.5125 15.9002 13.5615 15.8575 13.6267L15.6059 13.3421C15.6696 13.2622 15.7489 13.1968 15.8445 13.1467C15.9678 13.0823 16.1089 13.0501 16.268 13.0501C16.4015 13.0501 16.5183 13.0739 16.6183 13.1215C16.7184 13.1691 16.7962 13.2363 16.8518 13.3231C16.9074 13.4099 16.9352 13.5121 16.9352 13.6297C16.9352 13.7362 16.9147 13.836 16.8736 13.9293C16.8325 14.0226 16.753 14.129 16.6348 14.2485L16.2216 14.674H16.9941V15.044H16.9942Z" fill="white"/>
<path d="M13.7902 12.1543C13.6104 12.0533 13.4083 12.0027 13.1838 12.0027C12.9592 12.0027 12.757 12.0533 12.5774 12.1543C12.3977 12.2553 12.2565 12.3966 12.1539 12.5778C12.0512 12.7591 11.9999 12.962 11.9999 13.1865C11.9999 13.4111 12.0512 13.6141 12.1539 13.7953C12.2565 13.9766 12.3977 14.1177 12.5774 14.2188C12.757 14.3198 12.9591 14.3704 13.1838 14.3704C13.4083 14.3704 13.6104 14.3198 13.7902 14.2188C13.9698 14.1177 14.1109 13.9766 14.2136 13.7953C14.3163 13.6141 14.3676 13.4111 14.3676 13.1865C14.3676 12.962 14.3163 12.7591 14.2136 12.5778C14.1109 12.3966 13.9698 12.2553 13.7902 12.1543Z" fill="white"/>
</g>
<defs>
<clipPath id="clip0_66_879">
<rect width="24" height="24" fill="white"/>
</clipPath>
</defs>
</svg>
