<svg width="24" height="24" viewBox="0 0 24 24" fill="none" xmlns="http://www.w3.org/2000/svg">
<g clip-path="url(#clip0_15_6)">
<rect x="0.5" y="0.5" width="23" height="23" rx="3.5" fill="#C47849" stroke="white"/>
<path fill-rule="evenodd" clip-rule="evenodd" d="M15.5093 17.5667H15.8651V14.2496H15.9225L16.4849 13.9397L17.7704 8.01722L13.5696 9.36012L15.5093 17.5667ZM18.792 17.5667H20.3874V20H5.54663V17.5667H8.53085L9.96557 10.5079L6.45337 11.6327L6.99283 13.4347L5.50072 13.9168L3.01004 11.7704L2 7.69584L4.98422 6.74319L5.47776 8.39598L18.5739 4.2066L19.2166 4L19.4118 4.65423L19.9971 6.59397L20.1923 7.24821L19.561 7.44333L18.9412 7.63845L17.7245 13.2511L18.9986 12.5395L18.3558 11.2999L19.6758 10.5653L21.5811 14.2267L20.2611 14.9613L19.6069 13.7102L18.6428 14.2496H18.792V17.5667ZM18.3443 5.71019L18.5395 6.34146L6.06313 10.3357L5.87948 9.70445L18.3443 5.71019Z" fill="white"/>
</g>
<defs>
<clipPath id="clip0_15_6">
<rect width="24" height="24" fill="white"/>
</clipPath>
</defs>
</svg>
