<svg width="24" height="24" viewBox="0 0 24 24" fill="none" xmlns="http://www.w3.org/2000/svg">
<circle cx="12" cy="12" r="11.5" fill="#4453D9" stroke="white"/>
<path fill-rule="evenodd" clip-rule="evenodd" d="M20.7644 8.2962L20.5311 6.31926C20.4852 5.93983 20.1669 5.66152 19.7996 5.68239L19.2885 5.71208L17.7016 4.22265C17.5485 4.07932 17.3512 4.00046 17.1455 4.00046L13.9216 4C13.1981 4 12.4964 4.25744 11.9323 4.72964L10.1336 6.23531L7.7146 6.86522C7.40383 6.94593 7.18566 7.23723 7.18566 7.57074V8.29713C7.08326 8.29667 7 8.38294 7 8.48963V9.45027C7 9.5871 7.10641 9.69796 7.23775 9.69796H8.60329C8.60129 9.67673 8.59856 9.65582 8.59584 9.63496C8.59065 9.59522 8.58548 9.55565 8.58548 9.51428C8.58548 8.48128 9.38868 7.64542 10.3798 7.64542C11.3709 7.64542 12.1736 8.48128 12.1736 9.51428C12.1736 9.55571 12.1683 9.59516 12.163 9.63457L12.163 9.63459C12.1602 9.65563 12.1574 9.67666 12.1554 9.69796H15.9367C15.9348 9.67581 15.932 9.65402 15.9293 9.63226L15.9293 9.63225C15.9243 9.59342 15.9194 9.55471 15.9194 9.51428C15.9194 8.48128 16.7226 7.64542 17.7132 7.64542C18.7048 7.64542 19.5066 8.48128 19.5066 9.51428C19.5066 9.55769 19.5012 9.59894 19.4958 9.64023V9.64024V9.64025V9.64026C19.4933 9.65941 19.4908 9.67857 19.4888 9.69796H20.7626C20.894 9.69796 21 9.5871 21 9.45027V8.54436C21.0022 8.40799 20.8957 8.2962 20.7644 8.2962ZM10.3802 8.02763C9.59215 8.02763 8.95413 8.6928 8.95413 9.51382C8.95413 10.3348 9.59259 11 10.3802 11C11.1674 11 11.8063 10.3348 11.8063 9.51382C11.8063 8.6928 11.1674 8.02763 10.3802 8.02763ZM16.288 9.51382C16.288 8.6928 16.926 8.02763 17.7141 8.02763C18.5017 8.02763 19.1402 8.6928 19.1402 9.51382C19.1402 10.3348 18.5017 11 17.7141 11C16.9265 11 16.288 10.3348 16.288 9.51382ZM15.3434 5.86701L11.4817 6.10403L12.3428 5.38274C12.8107 4.99079 13.3922 4.77742 13.9928 4.77742H15.3434V5.86701ZM16.0905 4.77788V5.82758L18.2114 5.74873L17.2934 4.88781C17.2181 4.81685 17.1206 4.77788 17.0191 4.77788H16.0905Z" fill="white"/>
<path fill-rule="evenodd" clip-rule="evenodd" d="M19.4306 14.1589L19.7139 16.4183C19.8734 16.4183 20.0026 16.546 20 16.7019V17.7372C20 17.8936 19.8712 18.0203 19.7118 18.0203H18.165C18.1674 17.9981 18.1704 17.9762 18.1735 17.9543C18.18 17.9071 18.1866 17.86 18.1866 17.8103C18.1866 16.6298 17.2129 15.6745 16.0089 15.6745C14.806 15.6745 13.8307 16.6298 13.8307 17.8103C13.8307 17.8566 13.8367 17.9008 13.8427 17.9452L13.8427 17.9453C13.846 17.9701 13.8494 17.995 13.8517 18.0203H9.26008C9.26253 17.9959 9.26596 17.9719 9.26939 17.9478L9.26939 17.9478L9.26939 17.9478L9.26939 17.9478C9.27582 17.9028 9.28225 17.8577 9.28225 17.8103C9.28225 16.6298 8.30747 15.6745 7.10401 15.6745C5.90054 15.6745 4.92522 16.6298 4.92522 17.8103C4.92522 17.8576 4.9315 17.9029 4.9378 17.9483C4.94111 17.9721 4.94443 17.996 4.94685 18.0203H3.2887C3.12921 18.0203 3 17.8936 3 17.7372V16.6393C3 16.5174 3.1011 16.4188 3.22545 16.4193V15.5892C3.22545 15.208 3.49036 14.8751 3.86773 14.7828L6.80503 14.0629L8.98922 12.3422C9.67421 11.8025 10.5263 11.5083 11.4048 11.5083L15.3196 11.5088C15.5694 11.5088 15.8089 11.599 15.9948 11.7628L17.9217 13.465L18.5423 13.431C18.9884 13.4072 19.3749 13.7253 19.4306 14.1589ZM8.44209 13.9129L13.1313 13.642V12.3968H11.4913C10.762 12.3968 10.0559 12.6406 9.48769 13.0886L8.44209 13.9129ZM14.0385 13.597V12.3973H15.166C15.2893 12.3973 15.4077 12.4419 15.4991 12.523L16.6139 13.5069L14.0385 13.597ZM7.10454 16.1113C6.14761 16.1113 5.37287 16.8715 5.37287 17.8098C5.37287 18.7481 6.14815 19.5083 7.10454 19.5083C8.0604 19.5083 8.83622 18.7481 8.83622 17.8098C8.83622 16.8715 8.0604 16.1113 7.10454 16.1113ZM16.01 16.1113C15.0531 16.1113 14.2783 16.8715 14.2783 17.8098C14.2783 18.7481 15.0536 19.5083 16.01 19.5083C16.9664 19.5083 17.7417 18.7481 17.7417 17.8098C17.7417 16.8715 16.9664 16.1113 16.01 16.1113Z" fill="white"/>
</svg>
