<svg width="24" height="24" viewBox="0 0 24 24" fill="none" xmlns="http://www.w3.org/2000/svg">
<circle cx="12" cy="12" r="11.5" fill="#BD4A3E" stroke="white"/>
<path d="M9.41137 21.7802L9.41124 17.7413C7.9242 17.098 6.72966 15.9155 6.07985 14.4433L2 14.4432C2.933 18.0315 5.78665 20.8565 9.41137 21.7802Z" fill="white"/>
<path d="M14.5694 21.7802C18.1941 20.8565 21.0478 18.0315 21.9808 14.4432L17.9009 14.4433C17.2511 15.9155 16.0566 17.098 14.5696 17.7413L14.5694 21.7802Z" fill="white"/>
<path d="M9.41124 6.03889L9.41137 2C5.78665 2.92364 2.933 5.74863 2 9.33696L6.07985 9.33682C6.72966 7.86471 7.9242 6.68217 9.41124 6.03889Z" fill="white"/>
<path d="M21.9808 9.33696C21.0478 5.74863 18.1941 2.92364 14.5694 2L14.5696 6.03889C16.0566 6.68217 17.2511 7.86471 17.9009 9.33682L21.9808 9.33696Z" fill="white"/>
<path d="M12 8L15.4641 14H8.5359L12 8Z" fill="white"/>
</svg>
