<svg width="24" height="24" viewBox="0 0 24 24" fill="none" xmlns="http://www.w3.org/2000/svg">
<circle cx="12" cy="12" r="11.5" fill="#055C9D" stroke="white"/>
<path d="M7.22449 3.6V4.12569C7.95095 3.57169 8.72128 3.21439 9.53548 3.05377C11.0351 2.75796 11.8486 3.71828 12.9587 5.0588C14.0243 6.34558 15.2742 5.66652 15.8371 5.36067L15.904 5.32447C16.1453 5.19495 16.4358 4.97912 16.7755 4.67698V3.6C16.7755 3.45272 16.8852 3.33333 17.0204 3.33333H17.7551C17.8904 3.33333 18 3.45272 18 3.6V6.4C18 6.54728 17.8904 6.66667 17.7551 6.66667H17.0204C16.8852 6.66667 16.7755 6.54728 16.7755 6.4V5.9565C16.3499 6.2371 15.8586 6.50944 15.3017 6.77352C14.1245 7.3318 12.6089 6.77352 11.9388 6.01513C11.7808 5.83634 11.6414 5.64527 11.5044 5.45764C11.0605 4.84939 10.6431 4.27735 9.70636 4.27735C9.00636 4.27735 8.17907 4.6571 7.22449 5.41659V6.4C7.22449 6.54728 7.11485 6.66667 6.97959 6.66667H6.2449C6.10964 6.66667 6 6.54728 6 6.4V3.6C6 3.45272 6.10964 3.33333 6.2449 3.33333H6.97959C7.11485 3.33333 7.22449 3.45272 7.22449 3.6Z" fill="white"/>
<path fill-rule="evenodd" clip-rule="evenodd" d="M18 15.9996V18.9333C18 19.5224 17.5224 20 16.9333 20H7.06667C6.47756 20 6 19.5224 6 18.9333V15.9996L9.41089 16.0001C9.56171 16.3726 9.91684 16.6405 10.3373 16.6649L10.4 16.6667H13.6C14.0476 16.6667 14.4309 16.3909 14.5891 16.0001L18 15.9996ZM14.592 18.704H15.9493C16.3175 18.704 16.616 18.4055 16.616 18.0373V16.896H15.8693V17.6427C15.8693 17.8268 15.7201 17.976 15.536 17.976H14.592V17.528L13.7333 18.3342L14.592 19.1333V18.704ZM9.408 18.704H8.05067C7.68248 18.704 7.38401 18.4055 7.38401 18.0373V16.896H8.13067V17.6427C8.13067 17.8268 8.27991 17.976 8.46401 17.976H9.408V17.528L10.2667 18.3342L9.408 19.1333V18.704Z" fill="white"/>
<path d="M9.33333 14.3332V15.3333H6V14.3332H9.33333Z" fill="white"/>
<path d="M18 14.3332V15.3333H14.6667V14.3332H18Z" fill="white"/>
<path d="M9.33333 12.6667V13.6665H6V12.6667H9.33333Z" fill="white"/>
<path d="M18 12.6667V13.6665H14.6667V12.6667H18Z" fill="white"/>
<path fill-rule="evenodd" clip-rule="evenodd" d="M16.9333 8C17.5224 8 18 8.47756 18 9.06667V12L14.5891 11.9999C14.4309 11.6091 14.0476 11.3333 13.6 11.3333H10.4C9.95237 11.3333 9.56915 11.6091 9.41089 11.9999L6 12V9.06667C6 8.47756 6.47756 8 7.06667 8H16.9333ZM15.9493 9.296H14.592V8.86667L13.7333 9.66578L14.592 10.472V10.024H15.536C15.7201 10.024 15.8693 10.1732 15.8693 10.3573V11.104H16.616V9.96267C16.616 9.59448 16.3175 9.296 15.9493 9.296ZM8.05067 9.296H9.408V8.86667L10.2667 9.66578L9.408 10.472V10.024H8.46401C8.27991 10.024 8.13067 10.1732 8.13067 10.3573V11.104H7.38401V9.96267C7.38401 9.59448 7.68248 9.296 8.05067 9.296Z" fill="white"/>
</svg>
