<svg width="24" height="24" viewBox="0 0 24 24" fill="none" xmlns="http://www.w3.org/2000/svg">
<g clip-path="url(#clip0_66_815)">
<circle cx="12" cy="12" r="11.5" fill="#C26DBC" stroke="white"/>
<path d="M16.8099 16.4941V9.53931C16.9754 9.49202 17.1071 9.36029 17.1341 9.18803C17.1679 8.94821 17.0058 8.73879 16.7862 8.69488C16.6376 7.59035 15.8202 6.69863 14.7562 6.43517V4.9422C15.2257 4.87127 15.5871 4.46256 15.5871 3.97617C15.5871 3.43911 15.1514 3 14.611 3H8.53101C7.99057 3 7.55485 3.43911 7.55485 3.97617C7.55485 4.46256 7.91626 4.87127 8.38577 4.9422V6.43179C7.32178 6.69525 6.50774 7.59035 6.35575 8.6915C6.13282 8.73541 5.97406 8.94483 6.00784 9.18465C6.03148 9.35691 6.16659 9.48865 6.3321 9.53594V16.4907C6.16321 16.5448 6.02811 16.6731 6.00446 16.8488C5.97068 17.0886 6.13282 17.298 6.35237 17.3419C6.50099 18.4464 7.3184 19.3382 8.38239 19.6016V19.7874C8.38239 20.4596 8.92621 21 9.595 21H13.5436C14.2158 21 14.7562 20.4562 14.7562 19.7874V19.6016C15.8202 19.3382 16.6342 18.443 16.7862 17.3419C17.0092 17.298 17.1679 17.0886 17.1341 16.8488C17.1105 16.6731 16.9754 16.5448 16.8099 16.4941ZM9.5646 5.91837C9.5646 5.87446 9.56798 5.83055 9.57136 5.79002C9.63216 5.30362 10.0746 4.95571 10.5644 4.95571H12.5674C13.0572 4.95571 13.5031 5.30362 13.5605 5.79002C13.5639 5.83055 13.5672 5.87446 13.5672 5.91837V6.3541H11.8952V5.86433H12.608V5.20567H10.5273V5.86433H11.24V6.35072H9.5646V5.91837ZM10.7502 19.7165C10.6894 19.9461 10.4833 20.115 10.2334 20.115C9.98344 20.115 9.77402 19.9461 9.7166 19.7165C9.71322 19.7063 9.70985 19.6928 9.70985 19.6827H10.7603C10.7569 19.6962 10.7536 19.7063 10.7502 19.7165ZM13.422 19.7165C13.3612 19.9461 13.1551 20.115 12.9052 20.115C12.6586 20.115 12.4492 19.9461 12.3884 19.7165C12.385 19.7063 12.3816 19.6928 12.3816 19.6827H13.4321C13.4287 19.6962 13.4287 19.7063 13.422 19.7165ZM12.787 16.5954C12.7633 16.6191 12.7262 16.5887 12.7464 16.565C13.0065 16.1968 13.3916 15.5449 13.324 14.9977C13.2869 14.714 13.1484 14.4742 13.1484 14.4742C12.9356 14.0418 12.7025 13.9608 12.5843 13.6331C12.5303 13.4811 12.4864 13.2413 12.5843 12.89C12.4931 12.9103 12.1959 12.9914 11.9628 13.2751C11.7128 13.5859 11.7128 13.927 11.7162 14.0148C11.598 13.9338 11.2298 13.6669 11.0677 13.1636C10.8549 12.4915 11.1758 11.9274 11.2298 11.8362C11.0576 11.9341 10.0274 12.5489 9.77402 13.7885C9.5646 14.8187 9.96655 15.9097 10.8076 16.6427C10.8313 16.663 10.8042 16.7001 10.7772 16.6832C10.2199 16.3421 9.36194 15.6733 9.02079 14.5857C8.42293 12.6874 9.62203 10.2149 12.1486 8.93132C12.0168 9.24883 11.8784 9.72171 11.9459 10.2622C12.1452 11.87 13.9219 12.3057 14.2259 13.5892C14.3813 14.2344 14.182 15.1869 12.787 16.5954Z" fill="white"/>
</g>
<defs>
<clipPath id="clip0_66_815">
<rect width="24" height="24" fill="white"/>
</clipPath>
</defs>
</svg>
