<svg width="24" height="24" viewBox="0 0 24 24" fill="none" xmlns="http://www.w3.org/2000/svg">
<g clip-path="url(#clip0_66_783)">
<circle cx="12" cy="12" r="11.5" fill="#C26DBC" stroke="white"/>
<path fill-rule="evenodd" clip-rule="evenodd" d="M16.1919 6.4457L21.6703 13.3009C22.1197 13.8997 21.9987 14.7497 21.3999 15.1992L14.2303 20.7282C13.6315 21.178 12.7818 21.057 12.3319 20.4582L6.92466 13.2571C6.47486 12.6583 6.59585 11.8086 7.19469 11.3587L8.47883 10.3945C9.11355 9.91771 9.41434 9.11619 9.25027 8.33962C9.10364 7.64645 9.3723 6.93072 9.939 6.50518L11.6043 5.27128C11.97 5.00023 12.4458 4.92708 12.8761 5.07542L15.564 6.00273C15.8111 6.08784 16.0289 6.24165 16.1919 6.4457ZM12.0968 8.20186L14.3264 8.97399C14.8486 9.1548 15.4188 8.87795 15.5996 8.35568C15.7804 7.8334 15.5035 7.26328 14.9812 7.08247L12.7517 6.31034C12.2294 6.12953 11.6593 6.40639 11.4785 6.92866C11.2977 7.45093 11.5745 8.02105 12.0968 8.20186Z" fill="white"/>
<path d="M3.7801 10.9657C3.65226 10.6868 3.27389 10.1659 2.93551 9.6518C2.59713 10.1659 2.21875 10.6868 2.09092 10.9657C2.03281 11.0877 2 11.2244 2 11.3687C2 11.8855 2.41871 12.3042 2.93551 12.3042C3.45231 12.3042 3.87102 11.8855 3.87102 11.3687C3.87102 11.2244 3.8382 11.0877 3.7801 10.9657Z" fill="white"/>
<path d="M6.66252 8.44146C6.48546 8.27534 6.2691 8.15674 6.03429 8.09624L3.43626 7.42905C3.28655 7.36889 3.11805 7.45126 3.07361 7.60644L2.90852 8.18169C2.874 8.30269 2.92664 8.43121 3.03601 8.49307L4.75698 9.0984C4.94599 9.16505 5.1145 9.27955 5.24575 9.43097L6.5463 10.9318C6.62116 11.018 6.74968 11.032 6.84094 10.9633L8.02938 10.0708C8.13738 9.98982 8.14593 9.83088 8.04749 9.73859L6.66252 8.44146Z" fill="white"/>
</g>
<defs>
<clipPath id="clip0_66_783">
<rect width="24" height="24" fill="white"/>
</clipPath>
</defs>
</svg>
