<svg width="24" height="24" viewBox="0 0 24 24" fill="none" xmlns="http://www.w3.org/2000/svg">
<g clip-path="url(#clip0_66_772)">
<circle cx="12" cy="12" r="11.5" fill="#C26DBC" stroke="white"/>
<path d="M21.7428 12.0752L19.9345 11.889L21.6094 11.7153C21.4512 11.2997 21.2465 10.8655 20.9767 10.4095C20.9208 10.3164 20.8185 10.2575 20.7099 10.2575H16.0759L19.3079 9.46036C19.1963 8.95477 19.0381 8.4864 18.8458 8.05525L16.4946 7.80401L18.6131 7.57758C18.3526 7.0906 18.0486 6.66565 17.7198 6.30585L15.896 6.06701L17.298 5.88401C16.811 5.45286 16.2868 5.15819 15.7781 5.01551C15.7502 5.0031 15.7223 5 15.6943 5H8.25318C8.24388 5 8.23457 5.0031 8.22217 5.0062C8.20666 5.0062 8.19115 5.00931 8.17874 5.01551C8.15082 5.02171 8.12601 5.03412 8.1012 5.04653C8.09189 5.04963 8.08259 5.05273 8.07638 5.05583C8.03916 5.08685 8.01745 5.11166 7.99574 5.14268C7.99263 5.14889 7.98643 5.15199 7.98333 5.15819C7.96472 5.19231 7.95231 5.22953 7.94611 5.26675C7.91509 5.65137 7.33816 6.92 7.15515 7.21157C7.12724 7.25499 6.98145 7.40388 6.85738 7.53415C6.29906 8.11108 5.29719 9.15018 5.00252 10.2544H3.96343C3.95412 10.2544 3.94481 10.2575 3.93551 10.2606C3.9138 10.2637 3.89208 10.2668 3.87037 10.273C3.85176 10.2792 3.83625 10.2854 3.82074 10.2947C3.81144 10.2978 3.80213 10.3009 3.79283 10.3071C3.72149 10.3537 2 11.5013 2 13.5082C2 15.5678 3.53538 16.8953 3.60052 16.9511C3.61603 16.9636 3.63464 16.9729 3.65325 16.9822C3.66565 16.9884 3.67496 16.9977 3.68737 17.0008C3.72459 17.0163 3.76181 17.0225 3.79903 17.0225H9.77616L9.37603 15.788C10.1236 16.4952 11.0727 17.0256 12.0715 17.0256C12.1056 17.0256 12.1397 17.0194 12.1738 17.0194C12.18 17.0194 18.7713 17.0194 18.7713 17.0194C18.7775 17.0194 18.7868 17.0194 18.793 17.0194C18.8302 17.0194 18.8675 17.0225 18.9047 17.0225C19.4289 17.0225 19.9345 16.8767 20.409 16.5913C20.8929 16.2998 21.321 15.8593 21.6156 15.2886L20.5952 15.1087L21.7862 14.8978C21.8514 14.7148 21.9072 14.5256 21.9413 14.3208L18.396 14.1006L21.9941 13.8773C22.022 13.3376 21.9537 12.7389 21.7428 12.0752ZM13.1943 13.1763C13.1912 13.809 12.9865 14.3953 12.6763 14.6682C12.4778 14.845 12.2142 14.9102 11.8947 14.8668C11.4573 14.8047 10.9827 14.5411 10.5919 14.1627L12.9027 11.9387C13.0889 12.2737 13.1974 12.7079 13.1943 13.1763ZM7.26372 8.00562C7.32575 8.03664 7.39089 8.07386 7.44982 8.10488C7.9275 8.34992 8.05467 8.44297 8.05467 8.62288C8.05467 8.72524 7.94921 8.92375 7.87167 9.02921C7.76931 9.16569 7.80032 9.3611 7.9368 9.46346C7.99263 9.50378 8.05777 9.52549 8.11981 9.52549C8.21596 9.52549 8.30902 9.48207 8.37105 9.39832C8.42068 9.33008 8.67502 8.97028 8.67502 8.62288C8.67502 8.03974 8.21596 7.80091 7.73208 7.55276C7.71658 7.54656 7.70107 7.53415 7.68556 7.52795C7.73208 7.45351 7.80343 7.31703 7.88407 7.15263C8.19115 7.29842 8.46721 7.48452 8.70294 7.71095C8.9821 7.97771 9.40394 8.38094 9.35742 8.85861C9.33881 9.07263 9.18682 9.43554 9.11548 9.5286C9.01312 9.66507 9.04414 9.86049 9.18061 9.96284C9.23645 10.0032 9.30158 10.0249 9.36362 10.0249C9.45977 10.0249 9.55283 9.98145 9.61486 9.89771C9.73893 9.72711 9.94365 9.26184 9.97467 8.91755C10.046 8.1421 9.45047 7.57137 9.13099 7.2643C8.84562 6.99134 8.51373 6.76801 8.14152 6.59121C8.26869 6.29344 8.39276 5.98016 8.47341 5.71961C8.52304 5.74132 8.57577 5.76304 8.6254 5.78785C8.64091 5.79406 8.65331 5.80026 8.66572 5.80646C8.82701 5.89021 8.9883 5.99257 9.1496 6.11044C9.1558 6.11664 9.16511 6.12284 9.17131 6.12905C9.24575 6.18488 9.31709 6.24381 9.38843 6.30585C9.39774 6.31205 9.40394 6.32136 9.41325 6.32756C9.48769 6.3927 9.56213 6.46094 9.63347 6.53538C9.79787 6.70288 9.94986 6.87658 10.0956 7.06578L11.8357 7.28291L10.3748 7.46591C10.3779 7.47212 10.3841 7.48142 10.3872 7.48763C10.4461 7.58068 10.502 7.67373 10.5547 7.76989C10.5733 7.80711 10.5919 7.84433 10.6136 7.88155C10.6509 7.95289 10.6912 8.02423 10.7253 8.09868C10.747 8.1421 10.7656 8.18553 10.7842 8.22895C10.8184 8.30029 10.8494 8.37163 10.8804 8.44297C10.899 8.4895 10.9176 8.53913 10.9362 8.58566C10.9641 8.6601 10.9921 8.73454 11.02 8.80898C11.0386 8.85861 11.0541 8.90824 11.0696 8.96097C11.0944 9.03851 11.1192 9.11606 11.1409 9.1936C11.1564 9.24633 11.172 9.29906 11.1844 9.35179C11.2061 9.43244 11.2247 9.51309 11.2433 9.59373C11.2557 9.64956 11.2681 9.7023 11.2805 9.75813C11.296 9.84188 11.3115 9.92562 11.327 10.0125C11.3364 10.0683 11.3457 10.1241 11.355 10.1831C11.3581 10.2048 11.3612 10.2265 11.3612 10.2482H5.64769C5.94546 9.38281 6.77053 8.51742 7.26372 8.00562ZM6.17189 13.8028L4.72956 15.301L6.94423 15.5367L4.22087 15.8283L3.79283 16.2719C3.40821 15.8624 2.62036 14.8543 2.62036 13.5082C2.62036 12.2364 3.49195 11.3524 3.9138 10.9957L4.92187 12.2458L8.25629 12.5373L5.35923 12.7886L6.17189 13.8028ZM13.2532 16.064C11.9474 16.855 10.5423 16.1323 9.58695 15.1273L10.1422 14.5938C10.6322 15.0715 11.2309 15.4034 11.8078 15.484C11.9009 15.4964 11.9908 15.5026 12.0777 15.5026C12.4654 15.5026 12.8097 15.3785 13.0858 15.1366C13.5355 14.7396 13.8085 14.0107 13.8147 13.1825C13.8178 12.5373 13.6565 11.948 13.3618 11.4951L13.8054 11.0702C15.1919 13.654 14.4536 15.3351 13.2532 16.064Z" fill="white"/>
</g>
<defs>
<clipPath id="clip0_66_772">
<rect width="24" height="24" fill="white"/>
</clipPath>
</defs>
</svg>
