<svg width="24" height="24" viewBox="0 0 24 24" fill="none" xmlns="http://www.w3.org/2000/svg">
<g clip-path="url(#clip0_66_809)">
<circle cx="12" cy="12" r="11.5" fill="#C26DBC" stroke="white"/>
<path d="M20.0693 14.1683L19.8086 12.4026L17.9901 10.769L16.5347 10.4059L16.1188 8.26073L14.6139 7.46865L13.5248 5H10.9274L9.0066 6.75908L8.48185 9.15512L6.47525 9.34983L5.57756 12.2343L3.72607 13.3729L3 15.9802L5.28713 16.033L6.62376 17.4224L8.46865 17.3894L10.0528 19H15.3432L17.4719 17.495H20.2244L21.3168 15.5842L20.0693 14.1683ZM10.1452 6.94719L11.3531 6L11.1188 8.73597L9.76238 9.0099L10.1452 6.94719ZM6.57756 12.538L7.14851 10.3333L9.17162 10.0957L6.57756 12.538ZM12.2673 15.495H10.6172L10.2871 17.5743L9.16832 16.429L10.2079 14.4554H13.0726L12.2673 15.495Z" fill="white"/>
</g>
<defs>
<clipPath id="clip0_66_809">
<rect width="24" height="24" fill="white"/>
</clipPath>
</defs>
</svg>
