<svg width="24" height="24" viewBox="0 0 24 24" fill="none" xmlns="http://www.w3.org/2000/svg">
<g clip-path="url(#clip0_66_831)">
<circle cx="12" cy="12" r="11.5" fill="#C26DBC" stroke="white"/>
<path d="M16.7778 11.0708C14.8238 8.46554 12.1942 3 11.9503 3C11.6946 3 9.50516 8.46553 7.43496 11.0677C6.47496 12.199 6 13.5812 6 14.9629C6 16.5264 6.60801 18.0895 7.80902 19.2877C10.0869 21.5708 13.8136 21.5708 16.0952 19.2877C18.3536 17.0307 18.9367 13.6061 16.7778 11.0708ZM10.8948 18.9104C10.8031 19.3396 10.3464 19.5789 9.93929 19.4151C8.79953 18.9561 7.91978 18.0719 7.36902 16.8202C7.14891 16.3202 7.01703 15.8386 6.93818 15.4564C6.85089 15.0333 7.16111 14.6322 7.59195 14.6107L7.5936 14.6104L7.60556 14.61C7.60697 14.6097 7.60838 14.6097 7.60979 14.6097C7.94911 14.6008 8.24807 14.8359 8.31683 15.1701C8.38042 15.4803 8.48954 15.8799 8.67422 16.2904C9.07502 17.1804 9.676 17.7899 10.4649 18.1085C10.7841 18.2374 10.9666 18.5739 10.8948 18.9104Z" fill="white"/>
</g>
<defs>
<clipPath id="clip0_66_831">
<rect width="24" height="24" fill="white"/>
</clipPath>
</defs>
</svg>
