<svg width="24" height="24" viewBox="0 0 24 24" fill="none" xmlns="http://www.w3.org/2000/svg">
<g clip-path="url(#clip0_66_792)">
<circle cx="12" cy="12" r="11.5" fill="#C26DBC" stroke="white"/>
<path d="M12.0539 11.3744C12.7467 11.3744 13.3051 10.8156 13.3051 10.1228C13.3051 9.9368 13.2647 9.7612 13.1915 9.6028V9.6024C12.9943 9.1732 12.5599 8.8752 12.0539 8.8752C11.7335 8.8752 11.4415 8.9956 11.2207 9.1936C10.9663 9.4224 10.8063 9.7536 10.8063 10.1228C10.8063 10.8156 11.3639 11.3744 12.0539 11.3744ZM13.9091 9.8484C13.9247 9.94 13.9311 10.0312 13.9311 10.1228C13.9311 11.1608 13.0911 12 12.0539 12C11.0195 12 10.1803 11.1608 10.1803 10.1228C10.1803 10.0312 10.1867 9.94 10.2015 9.8484C8.60227 10.9836 4.76347 13.7724 5.01147 14.2028C5.25827 14.6304 9.57587 12.7108 11.3639 11.89L10.8063 21.3744C10.8063 21.3744 11.1171 22 12.0539 22C12.9935 22 13.3051 21.3744 13.3051 21.3744L12.7467 11.89C14.5379 12.7108 18.8523 14.6332 19.0999 14.2028C19.3471 13.7724 15.5083 10.9836 13.9091 9.8484ZM12.4111 8.2836C12.7171 8.3424 12.9959 8.4752 13.2287 8.6612C13.0459 6.7084 12.5515 2 12.0539 2C11.6655 2 11.2779 4.8992 11.0391 7.0912C10.9735 7.6928 10.9191 8.2408 10.8787 8.6612C11.2023 8.4048 11.6115 8.2496 12.0539 8.2496C12.1763 8.2496 12.2955 8.2612 12.4111 8.2836Z" fill="white"/>
</g>
<defs>
<clipPath id="clip0_66_792">
<rect width="24" height="24" fill="white"/>
</clipPath>
</defs>
</svg>
