<svg width="24" height="24" viewBox="0 0 24 24" fill="none" xmlns="http://www.w3.org/2000/svg">
<g clip-path="url(#clip0_66_775)">
<circle cx="12" cy="12" r="11.5" fill="#C26DBC" stroke="white"/>
<path d="M9.62757 13.3591L4.24063 14.3531L3 16.7146L4.86457 18.7025H10.0411L11.9855 15.3071L9.62757 13.3591Z" fill="white"/>
<path d="M19.9952 14.6759L16.8827 13.8996L13.4039 15.4087L11.9855 17.0085L13.1753 18.7025H19.8102L21 15.8658L19.9952 14.6759Z" fill="white"/>
<path d="M12.9396 12.5611L13.8174 14.179L16.5562 13.0218L18.6058 13.0725L19.4039 12.3942L18.2104 8.99153L14.4232 9.06045L12.9396 12.5611Z" fill="white"/>
<path d="M9.14146 12.1911L11.1729 12.7787L12.5804 9.79686L10.5925 7.1052L6.44981 7.72915L4.66867 11.2878L5.66262 12.7787L9.14146 12.1911Z" fill="white"/>
<path d="M15.3882 7.80895L16.4946 6.11125L13.6759 4L10.4873 5.36759L12.8489 8.56711L15.3882 7.80895Z" fill="white"/>
</g>
<defs>
<clipPath id="clip0_66_775">
<rect width="24" height="24" fill="white"/>
</clipPath>
</defs>
</svg>
