<svg width="24" height="24" viewBox="0 0 24 24" fill="none" xmlns="http://www.w3.org/2000/svg">
<g clip-path="url(#clip0_66_834)">
<circle cx="12" cy="12" r="11.5" fill="#C26DBC" stroke="white"/>
<path d="M8.87672 5H5V8.87672H8.87672V5Z" fill="white"/>
<path d="M13.6791 5H9.8024V8.87672H13.6791V5Z" fill="white"/>
<path d="M18.4815 5H14.6048V8.87672H18.4815V5Z" fill="white"/>
<path d="M8.87672 9.59409H5V13.4708H8.87672V9.59409Z" fill="white"/>
<path d="M13.6791 9.59409H9.8024V13.4708H13.6791V9.59409Z" fill="white"/>
<path d="M18.4815 9.59409H14.6048V13.4708H18.4815V9.59409Z" fill="white"/>
<path d="M8.87672 14.1882H5V18.065H8.87672V14.1882Z" fill="white"/>
<path d="M13.6791 14.1882H9.8024V18.065H13.6791V14.1882Z" fill="white"/>
<path d="M18.4815 14.1882H14.6048V18.065H18.4815V14.1882Z" fill="white"/>
<path d="M13.469 21.0956V22H10.0144V21.0956H10.9123V18.9916H12.5702V21.0956H13.469Z" fill="white"/>
</g>
<defs>
<clipPath id="clip0_66_834">
<rect width="24" height="24" fill="white"/>
</clipPath>
</defs>
</svg>
