<svg width="24" height="24" viewBox="0 0 24 24" fill="none" xmlns="http://www.w3.org/2000/svg">
<g clip-path="url(#clip0_66_763)">
<circle cx="12" cy="12" r="11.5" fill="#C26DBC" stroke="white"/>
<path d="M9.99454 15.8225L5.12295 16.7228L4 18.2026L5.68607 20H10.3678L12.1291 17.5838L9.99454 15.8225Z" fill="white"/>
<path d="M16.5751 15.8225L13.1015 17.4955L12.1291 18.9556L13.2063 20H19.2041L20.2812 17.9211L19.371 16.8439L16.5751 15.8225Z" fill="white"/>
<path d="M9.59513 13.6944L8.54092 14.8174L10.6788 15.5409L12.5155 17.1517L16.4507 15.2037L16.0742 14.6635L12.964 12.8301L9.59513 13.6944Z" fill="white"/>
<path d="M8.45254 9.77228C8.63261 11.1801 9.51329 12.1884 10.6362 12.6533C10.1321 12.1393 9.84396 11.3569 10.2794 10.3714C10.3809 10.4729 11.0389 11.2521 11.9163 11.2194C12.82 11.1833 13.8676 10.4107 13.3176 8.73117C13.4289 8.80975 14.4111 9.73954 14.4274 10.9673C14.434 11.4976 14.2572 12.0935 13.8742 12.5551C15.5144 11.7694 16.2052 9.92943 15.5962 8.40706C14.9447 6.78319 13.5991 5.95817 13.3045 3.73845C13.2063 2.99527 13.3078 2.36995 13.3896 2C11.6381 3.32266 11.2878 4.38341 11.3041 5.11677C11.3369 6.53438 12.0931 7.08439 12.1652 7.89633C12.2045 8.32193 11.9589 8.82284 11.4809 8.82284C11.0815 8.82284 10.7148 8.39723 10.8491 7.90942C10.9178 7.6606 11.1077 6.66206 9.45764 6.12841C9.79158 7.28738 8.207 7.83412 8.45254 9.77228Z" fill="white"/>
<path d="M19.1943 14.5391C19.2008 14.9778 19.0535 15.4689 18.7359 15.8519C20.0913 15.2037 20.661 13.6846 20.1568 12.4274C19.6199 11.0851 18.5067 10.4041 18.2645 8.574C18.1826 7.95851 18.2677 7.4445 18.3365 7.13675C16.8894 8.23024 16.6013 9.10438 16.6144 9.71005C16.6406 10.8821 17.3281 11.5042 17.9469 12.2375C18.3856 12.7613 19.1779 13.5274 19.1943 14.5391Z" fill="white"/>
<path d="M7.26409 15.5213C6.80247 14.968 6.78282 13.3081 7.39505 12.1655C7.88941 11.239 8.21353 9.58893 6.61258 8.92433C6.8483 10.1062 5.22444 10.522 5.31611 12.4765C5.38159 13.8941 6.17715 14.968 7.26409 15.5213Z" fill="white"/>
</g>
<defs>
<clipPath id="clip0_66_763">
<rect width="24" height="24" fill="white"/>
</clipPath>
</defs>
</svg>
