<svg width="24" height="24" viewBox="0 0 24 24" fill="none" xmlns="http://www.w3.org/2000/svg">
<g clip-path="url(#clip0_66_850)">
<circle cx="12" cy="12" r="11.5" fill="#C26DBC" stroke="white"/>
<path d="M13.1218 15.1002C13.3784 15.2564 13.5086 15.4837 13.5199 15.7816H15.1879C15.2522 15.7816 15.3037 15.7288 15.3004 15.6645C15.2846 15.3058 15.1968 14.9628 15.0351 14.6391C14.8248 14.2172 14.5212 13.8807 14.1286 13.6256C14.0746 13.5905 14.0027 13.6076 13.9701 13.6627C13.6866 14.1431 13.4041 14.6211 13.1218 15.1002ZM12.7383 16.2521C12.9969 16.2521 13.2093 16.0406 13.2093 15.7809C13.2115 15.5209 12.999 15.3084 12.7393 15.3084C12.4793 15.3084 12.2668 15.5209 12.2668 15.7809C12.2671 16.0406 12.4796 16.2521 12.7383 16.2521ZM5.34045 19.4465C5.1637 19.5947 5.19416 19.7467 5.2155 19.8053C5.23685 19.8638 5.31143 20 5.54214 20H19.9372C20.1679 20 20.2425 19.8638 20.2638 19.8053C20.2849 19.7467 20.3154 19.5945 20.1386 19.4462C20.1094 19.4218 17.2079 18.9425 17.2079 15.5501C17.2079 12.6535 17.9742 10.3376 17.9821 10.3145C18.0253 10.1865 18.008 10.0548 17.9351 9.95311C17.8622 9.85167 17.7428 9.79363 17.6075 9.79363H7.87132C7.73534 9.79363 7.61591 9.85239 7.54372 9.95479C7.47178 10.0572 7.45667 10.1893 7.50271 10.3172C7.51039 10.3388 8.27111 12.5039 8.27111 15.5501C8.27111 18.9425 5.36947 19.4218 5.34045 19.4465ZM9.66545 16.2207C9.64315 16.071 9.63188 15.918 9.63188 15.7619C9.63188 15.6809 9.63524 15.601 9.64099 15.5211C9.70527 14.6865 10.0986 13.9443 10.6914 13.4236C10.9871 13.1639 11.3325 12.9603 11.7116 12.8274C12.0332 12.7149 12.3796 12.6533 12.7395 12.6533C14.4557 12.6545 15.8469 14.0455 15.8469 15.7629C15.8469 17.4805 14.4557 18.8705 12.7395 18.8705C11.1783 18.8703 9.88705 17.7198 9.66545 16.2207ZM12.3469 16.4545C12.069 16.9359 11.7903 17.4172 11.5114 17.8995C11.4824 17.9558 11.5035 18.0268 11.5596 18.0558C11.932 18.247 12.3246 18.3439 12.7386 18.3424C13.1535 18.3439 13.5461 18.247 13.9173 18.0558C13.9746 18.0266 13.996 17.9546 13.9634 17.8995C13.6844 17.4172 13.4067 16.9356 13.1278 16.4545C13.0065 16.5229 12.8772 16.5591 12.7388 16.5591H12.7364C12.5976 16.5591 12.4671 16.5241 12.3469 16.4545ZM11.3502 13.6258C10.9579 13.881 10.654 14.2174 10.4439 14.6393C10.2818 14.9633 10.1943 15.3062 10.1784 15.665C10.1751 15.7291 10.2269 15.7818 10.2912 15.7818H11.9589C11.9702 15.484 12.1018 15.2568 12.357 15.1005C12.0747 14.6213 11.7925 14.1433 11.509 13.663C11.4764 13.6078 11.4044 13.5908 11.3502 13.6258ZM12.7383 8.18303C12.7383 8.71808 12.3007 9.15576 11.7656 9.15576H3.97273C3.43768 9.156 3 8.71808 3 8.18303C3 7.6957 3.3631 7.2892 3.83219 7.22061C3.83219 7.21725 3.83195 7.21365 3.83195 7.2103C3.83195 6.29704 4.57229 5.55646 5.48579 5.55646C5.68244 5.55646 5.8707 5.591 6.04578 5.65383C6.41727 4.68662 7.35474 4 8.4529 4C9.70646 4 10.7509 4.89479 10.9828 6.08048C10.9986 6.07976 11.0147 6.07928 11.031 6.07928C11.5615 6.07928 11.9918 6.50929 11.9918 7.04002C11.9918 7.10597 11.985 7.17049 11.9723 7.2326C12.4088 7.32805 12.7383 7.71897 12.7383 8.18303Z" fill="white"/>
</g>
<defs>
<clipPath id="clip0_66_850">
<rect width="24" height="24" fill="white"/>
</clipPath>
</defs>
</svg>
