<svg width="24" height="24" viewBox="0 0 24 24" fill="none" xmlns="http://www.w3.org/2000/svg">
<g clip-path="url(#clip0_66_800)">
<circle cx="12" cy="12" r="11.5" fill="#C26DBC" stroke="white"/>
<path d="M16.7928 4.13438H13.5822C12.7849 4.13438 12.0601 4.59646 11.7235 5.31937C11.3466 6.12902 10.5348 6.64661 9.64153 6.64661H7.83551C6.99305 6.64661 6.3102 7.32946 6.3102 8.17192V11.3285C6.40671 11.1856 6.50512 11.0409 6.60479 10.8936C6.98012 10.34 7.36807 9.76788 7.74215 9.19983L8.15975 8.56555C8.37202 8.2432 8.8445 8.2432 9.05677 8.56555L9.47437 9.19983C9.84844 9.76788 10.2364 10.3403 10.6117 10.8936C11.5819 12.3246 12.42 13.5603 12.807 14.4031C13.0517 14.8851 13.2536 16.0517 13.2536 16.3921C13.2536 17.0188 13.1306 17.6272 12.888 18.2006C12.654 18.7538 12.3193 19.2506 11.8929 19.6767C11.8418 19.7278 11.7898 19.7777 11.7365 19.8259H17.3179C18.1604 19.8259 18.8432 19.1431 18.8432 18.3006V6.18453C18.8432 5.05222 17.9254 4.13438 16.7928 4.13438ZM17.3731 6.53243C17.3731 7.1541 16.8691 7.65812 16.2474 7.65812H14.4685C13.8469 7.65812 13.3428 7.1541 13.3428 6.53243C13.3428 5.91076 13.8469 5.40674 14.4685 5.40674H16.2474C16.8691 5.40674 17.3731 5.91076 17.3731 6.53243Z" fill="white"/>
<path d="M9.4665 5.96657H7.75005C7.20692 5.96657 6.76692 5.52626 6.76692 4.98344C6.76692 4.44031 7.20723 4 7.75005 4H9.46618C10.0093 4 10.4493 4.44031 10.4493 4.98313C10.4496 5.52626 10.0093 5.96657 9.4665 5.96657Z" fill="white"/>
<path fill-rule="evenodd" clip-rule="evenodd" d="M9.75198 11.4732C10.6765 12.8366 11.515 14.0732 11.8655 14.838C12.0907 15.3086 12.2165 15.8354 12.2165 16.3917C12.2165 18.3845 10.601 20 8.60826 20C6.61552 20 5 18.3845 5 16.3917C5 15.8354 5.12616 15.3086 5.35105 14.838C5.7015 14.0732 6.54 12.8366 7.46455 11.4731C7.84057 10.9186 8.23082 10.3431 8.60826 9.76975C8.98571 10.3431 9.37596 10.9186 9.75198 11.4732ZM6.72179 15.8328C6.72179 17.185 7.81783 18.281 9.16998 18.281C9.76768 18.281 10.3152 18.0668 10.7401 17.7111C10.3196 18.4538 9.52261 18.955 8.60824 18.955C7.25609 18.955 6.16005 17.859 6.16005 16.5068C6.16005 15.7524 6.50163 15.0777 7.03814 14.6286C6.83691 14.9844 6.72179 15.395 6.72179 15.8328Z" fill="white"/>
</g>
<defs>
<clipPath id="clip0_66_800">
<rect width="24" height="24" fill="white"/>
</clipPath>
</defs>
</svg>
