<svg width="24" height="24" viewBox="0 0 24 24" fill="none" xmlns="http://www.w3.org/2000/svg">
<g clip-path="url(#clip0_66_818)">
<circle cx="12" cy="12" r="11.5" fill="#C26DBC" stroke="white"/>
<path d="M11.6807 16.0353H13.0884C15.586 16.0353 17.5885 13.8881 17.3248 11.4044C17.2522 10.7203 17.0548 10.0463 16.686 9.4318C16.6277 9.33462 16.4799 9.36893 16.473 9.48205C16.4066 10.5802 15.9083 11.1117 15.5612 11.4057C15.1194 11.78 14.8287 11.3816 15.4145 9.62947C16.0752 7.6527 15.3027 6.36437 14.5365 5.57477C14.4591 5.49464 14.324 5.56481 14.3424 5.67483C14.6091 7.28945 13.5632 8.10185 13.5632 8.10185C13.5632 8.10185 13.7733 7.25757 13.078 5.79458C12.7132 5.02734 12.5551 3.95993 12.6813 3.12982C12.697 3.0271 12.5728 2.95892 12.4951 3.02799C10.6764 4.64748 10.8484 7.45281 10.8484 7.45281C10.3561 7.07273 9.82748 6.42148 9.38143 5.50416C9.33849 5.41561 9.20766 5.41052 9.17091 5.50194C8.60998 6.88944 9.08016 9.00191 9.32122 9.9095C9.57557 10.8678 9.50628 11.208 8.96637 10.8642C8.36626 10.4822 7.99216 9.7054 7.82281 9.27817C7.78385 9.17944 7.64019 9.1821 7.60699 9.28304C7.24152 10.3912 7.25922 11.5126 7.44451 12.5149C7.82237 14.5559 9.60501 16.0353 11.6807 16.0353Z" fill="white"/>
<path d="M17.4966 17.247H17.2411C17.0477 17.247 16.8907 17.404 16.8907 17.5974V18.4275C16.8907 18.621 16.7338 18.778 16.5403 18.778H15.5287C15.3352 18.778 15.1783 18.621 15.1783 18.4275V17.5974C15.1783 17.404 15.0215 17.247 14.8278 17.247H13.5386C13.3452 17.247 13.1882 17.404 13.1882 17.5974V18.4275C13.1882 18.621 13.0315 18.778 12.8378 18.778H11.8262C11.6327 18.778 11.4757 18.621 11.4757 18.4275V17.5974C11.4757 17.404 11.3188 17.247 11.1253 17.247H9.83611C9.64264 17.247 9.4857 17.404 9.4857 17.5974V18.4275C9.4857 18.621 9.32875 18.778 9.13528 18.778H8.12365C7.93018 18.778 7.77323 18.621 7.77323 18.4275V17.5974C7.77323 17.404 7.61629 17.247 7.42282 17.247H7.16736C5.97023 17.247 5 18.2173 5 19.4142V20.4189C5 20.7399 5.2601 21 5.58108 21L6.5 22.5L12 23.5L16.5 22.5L19.0827 21C19.4036 21 19.6637 20.7399 19.6637 20.4189V19.4142C19.6637 18.2173 18.6933 17.247 17.4966 17.247Z" fill="white"/>
</g>
<defs>
<clipPath id="clip0_66_818">
<rect width="24" height="24" fill="white"/>
</clipPath>
</defs>
</svg>
