<svg width="24" height="24" viewBox="0 0 24 24" fill="none" xmlns="http://www.w3.org/2000/svg">
<g clip-path="url(#clip0_66_795)">
<circle cx="12" cy="12" r="11.5" fill="#C26DBC" stroke="white"/>
<path d="M11.6776 11.802C11.2791 12.3308 11.0211 13.0461 11.0466 13.3093C11.1156 14.0705 11.7568 14.2162 12.0148 13.9837C12.4159 13.6184 11.4502 13.0717 11.6776 11.802Z" fill="white"/>
<path d="M17.9417 12.0013C17.9417 11.7765 17.8753 11.5951 17.5713 11.452V5.48683C17.8753 5.34376 17.9417 5.16238 17.9417 4.93757C17.9417 4.30145 17.4027 4 12.4696 4C7.53904 4 7 4.30145 7 4.93757C7 5.16238 7.06642 5.34376 7.37043 5.48683V11.4495C7.06642 11.5925 7 11.7765 7 12.0013C7 12.2261 7.06642 12.4075 7.37043 12.5505V18.5208C7.19671 18.6077 7 18.7686 7 19.0624C7 19.6985 7.53904 20 12.4696 20C17.4027 20 17.9417 19.6985 17.9417 19.0624C17.9417 18.7686 17.7425 18.6077 17.5713 18.5208V12.5505C17.8753 12.4075 17.9417 12.2261 17.9417 12.0013ZM12.4721 15.2892C11.2919 15.2892 10.3364 14.3337 10.3364 13.1534C10.3364 11.9732 12.3521 8.91522 12.4721 8.91522C12.5922 8.91522 14.6079 11.9732 14.6079 13.1534C14.6079 14.3337 13.6498 15.2892 12.4721 15.2892Z" fill="white"/>
</g>
<defs>
<clipPath id="clip0_66_795">
<rect width="24" height="24" fill="white"/>
</clipPath>
</defs>
</svg>
