<svg width="24" height="24" viewBox="0 0 24 24" fill="none" xmlns="http://www.w3.org/2000/svg">
<g clip-path="url(#clip0_234_580)">
<rect x="0.5" y="0.5" width="23" height="23" rx="3.5" fill="#891DAF" stroke="white"/>
<path fill-rule="evenodd" clip-rule="evenodd" d="M3.65061 8.07276H7.33411L11.3246 9.17429L12.5524 11.671L13.6004 11.7192L11.2005 15.319L14.2004 17.1189L16.0003 13.5191L18.1544 15.9301L20.1496 16.4442V18.4268H3.65061V8.07276Z" fill="white"/>
<path d="M20.55 18.9187H3.25103C3.00251 18.9187 2.80105 19.1202 2.80105 19.3687V19.55C2.80105 19.7985 3.00251 20 3.25103 20H20.55C20.7985 20 21 19.7985 21 19.55V19.3687C21 19.1202 20.7985 18.9187 20.55 18.9187Z" fill="white"/>
<path d="M17.8347 8.91816L16.4925 8.14321L12.3939 15.242L13.7362 16.017L17.8347 8.91816Z" fill="white"/>
<path fill-rule="evenodd" clip-rule="evenodd" d="M20.7431 4.42998C20.9584 4.55424 21.032 4.82943 20.9078 5.04465L18.6371 8.97755C18.5129 9.19277 18.2377 9.26644 18.0225 9.14225L16.2039 8.09231C15.9887 7.96805 15.9149 7.69286 16.0393 7.47764L18.3099 3.54474C18.4342 3.32952 18.7093 3.25579 18.9246 3.38004L20.7431 4.42998ZM19.3629 4.87069L19.233 4.79569C19.0178 4.67143 18.7426 4.74517 18.6184 4.96039L17.4194 7.03693C17.2952 7.25215 17.3689 7.52735 17.5842 7.6516L17.714 7.7266C17.9293 7.85086 18.2044 7.77712 18.3287 7.5619L19.5276 5.48536C19.6519 5.27014 19.5781 4.99494 19.3629 4.87069Z" fill="white"/>
</g>
<defs>
<clipPath id="clip0_234_580">
<rect width="24" height="24" fill="white"/>
</clipPath>
</defs>
</svg>
