<svg width="24" height="24" viewBox="0 0 24 24" fill="none" xmlns="http://www.w3.org/2000/svg">
<g clip-path="url(#clip0_128_1245)">
<circle cx="12" cy="12" r="11.5" fill="#FF7A00" stroke="white"/>
<path fill-rule="evenodd" clip-rule="evenodd" d="M8.31492 7.79857C7.29479 8.81723 6.78265 10.0504 6.78265 11.4938C6.78265 12.9373 7.29272 14.1683 8.31492 15.1891C9.33505 16.2077 10.57 16.7191 12.0155 16.7191C13.461 16.7191 14.6939 16.2098 15.7161 15.1891C16.7362 14.1704 17.2483 12.9373 17.2483 11.4938C17.2483 10.0504 16.7383 8.8193 15.7161 7.79857C14.6959 6.7799 13.461 6.2685 12.0155 6.2685C10.57 6.27057 9.33712 6.7799 8.31492 7.79857ZM8.90965 2L12.001 4.25179L15.0986 2L16.2777 5.62926H20.0981L18.9128 9.26883L22 11.5062L18.9128 13.7456L20.0981 17.3707V17.379H16.2777L15.0986 21H15.0924L12.001 18.7544L8.91585 21H8.90965L7.73051 17.379H3.90811V17.3707L5.08725 13.7456L2 11.5L5.08518 9.26058L3.90811 5.62926H7.73051L8.90965 2Z" fill="white"/>
</g>
<defs>
<clipPath id="clip0_128_1245">
<rect width="24" height="24" fill="white"/>
</clipPath>
</defs>
</svg>
