<svg width="24" height="24" viewBox="0 0 24 24" fill="none" xmlns="http://www.w3.org/2000/svg">
<g clip-path="url(#clip0_128_1284)">
<circle cx="12" cy="12" r="11.5" fill="#E89C28" stroke="white"/>
<path d="M20.6402 12C20.6402 13.1905 20.407 14.3455 19.9468 15.4335C19.7258 15.9563 19.452 16.4605 19.1335 16.932C18.8183 17.399 18.4558 17.838 18.057 18.237C17.658 18.636 17.219 18.9982 16.752 19.3135C16.2805 19.6322 15.7763 19.9058 15.2535 20.1268C14.3455 20.5108 13.3907 20.7367 12.4075 20.801L13.1545 19.3343C16.6302 18.7038 19.2742 15.6548 19.2742 12C19.2742 9.38575 17.9213 7.08125 15.8788 5.75025L15.8128 5.8525L15.4275 6.449L14.673 5.268L14.596 5.1475L14.259 4.62025L13.7643 3.846L14.3777 3.8475L15.3805 3.85L15.4338 3.85025L17.1033 3.85425L16.6723 4.52175L16.6215 4.6005C16.6652 4.629 16.7088 4.65775 16.752 4.687C17.219 5.0025 17.658 5.36475 18.057 5.76375C18.456 6.16275 18.8183 6.60175 19.1335 7.06875C19.4523 7.54025 19.7258 8.0445 19.9468 8.56725C20.407 9.6545 20.6402 10.8095 20.6402 12ZM16.1005 10.5405L12.0177 10.932L12.9793 4.636L13.1855 3.2845L13.3817 2L12.7552 3.2285L12.0813 4.5505L7.55475 13.427L11.6258 13.053L10.665 19.3648L10.4592 20.7163L10.264 22L10.8895 20.772L11.563 19.4498L15.8962 10.942L16.1005 10.5405ZM9.0155 19.348L8.79525 18.8123L8.698 18.576L8.4125 17.8825L8.11025 17.1475L7.477 18.0545C5.59425 16.7005 4.366 14.491 4.366 12C4.366 8.344 7.01175 5.294 10.4895 4.665L11.2372 3.19875C10.2525 3.2625 9.29625 3.48875 8.38675 3.87325C7.864 4.09425 7.35975 4.368 6.88825 4.6865C6.42125 5.002 5.98225 5.36425 5.58325 5.76325C5.18425 6.16225 4.822 6.60125 4.5065 7.06825C4.188 7.53975 3.91425 8.044 3.69325 8.56675C3.23325 9.6545 3 10.8095 3 12C3 13.1905 3.23325 14.3455 3.6935 15.4335C3.9145 15.9563 4.18825 16.4605 4.50675 16.932C4.82225 17.399 5.1845 17.838 5.5835 18.237C5.92625 18.5797 6.29875 18.8955 6.693 19.1777L6.54975 19.3828L6.1985 19.8858L7.11675 19.9212L7.742 19.9453L7.885 19.9508L8.00675 19.9555L9.18625 20.001L9.28525 20.0048L9.2125 19.828L9.0155 19.348Z" fill="white"/>
</g>
<defs>
<clipPath id="clip0_128_1284">
<rect width="24" height="24" fill="white"/>
</clipPath>
</defs>
</svg>
