<svg width="24" height="24" viewBox="0 0 24 24" fill="none" xmlns="http://www.w3.org/2000/svg">
<g clip-path="url(#clip0_66_1026)">
<circle cx="12" cy="12" r="11.5" fill="#C69517" stroke="white"/>
<path d="M11.7748 2H12.225C12.5048 2 12.7316 2.22438 12.7316 2.50116V3.37543C12.4596 3.34963 12.1839 3.33644 11.9051 3.33644C11.6909 3.33644 11.4785 3.34422 11.2683 3.35953V2.50116C11.2683 2.22438 11.4951 2 11.7748 2Z" fill="white"/>
<path d="M9.69639 3.62125L9.40401 2.82643C9.30834 2.56634 9.01768 2.43224 8.75481 2.5269L8.33174 2.67927C8.06887 2.77393 7.93333 3.06152 8.02901 3.32161L8.32022 4.11326C8.76004 3.91213 9.22004 3.74686 9.69639 3.62125Z" fill="white"/>
<path d="M6.94 4.90722L6.38957 4.25817C6.20976 4.04614 5.89027 4.01848 5.67598 4.1964L5.33109 4.48275C5.1168 4.66066 5.08884 4.97677 5.26866 5.1888L5.82579 5.84576C5.8359 5.83566 5.84603 5.82558 5.85619 5.81553C6.19106 5.48419 6.55357 5.18019 6.94 4.90722Z" fill="white"/>
<path d="M4.81677 7.06068L4.05182 6.62369C3.80956 6.4853 3.49978 6.56743 3.35991 6.80713L3.1348 7.19293C2.99493 7.43263 3.07793 7.73914 3.32019 7.87753L4.10296 8.32469C4.30483 7.88176 4.54409 7.45911 4.81677 7.06068Z" fill="white"/>
<path d="M3.59153 9.79797L2.67273 9.63767C2.39724 9.58961 2.13454 9.77161 2.08596 10.0442L2.00778 10.4829C1.95921 10.7555 2.14315 11.0154 2.41864 11.0635L3.36986 11.2294C3.40283 10.7397 3.4779 10.2614 3.59153 9.79797Z" fill="white"/>
<path d="M3.40555 12.7644L2.41864 12.9366C2.14315 12.9846 1.9592 13.2446 2.00778 13.5171L2.08596 13.9559C2.13454 14.2284 2.39724 14.4104 2.67273 14.3624L3.69457 14.1841C3.55889 13.7258 3.46134 13.2514 3.40555 12.7644Z" fill="white"/>
<path d="M4.25352 15.5894L3.32019 16.1225C3.07793 16.2609 2.99493 16.5674 3.1348 16.8071L3.35991 17.1929C3.49978 17.4326 3.80956 17.5148 4.05182 17.3764L5.01931 16.8237C4.7301 16.4362 4.4735 16.0234 4.25352 15.5894Z" fill="white"/>
<path d="M6.01146 17.9353L5.26865 18.8112C5.08884 19.0233 5.11679 19.3394 5.33108 19.5173L5.67598 19.8036C5.89027 19.9815 6.20975 19.9539 6.38957 19.7419L7.15413 18.8403C6.74723 18.5709 6.36498 18.2679 6.01146 17.9353Z" fill="white"/>
<path d="M8.44622 19.5442L8.029 20.6784C7.93333 20.9385 8.06886 21.2261 8.33173 21.3207L8.75481 21.4731C9.01767 21.5678 9.30833 21.4337 9.40401 21.1736L9.83055 20.014C9.35189 19.896 8.88918 19.7382 8.44622 19.5442Z" fill="white"/>
<path d="M11.2683 20.2415V21.4988C11.2683 21.7756 11.4951 22 11.7748 22H12.225C12.5048 22 12.7316 21.7756 12.7316 21.4988V20.2256C12.4596 20.2514 12.1839 20.2646 11.9051 20.2646C11.6909 20.2646 11.4785 20.2568 11.2683 20.2415Z" fill="white"/>
<path d="M14.1529 19.9694L14.5959 21.1736C14.6916 21.4337 14.9822 21.5678 15.2451 21.4731L15.6682 21.3208C15.9311 21.2261 16.0666 20.9385 15.9709 20.6784L15.5267 19.4709C15.0878 19.6741 14.6286 19.8415 14.1529 19.9694Z" fill="white"/>
<path d="M16.7768 18.7589L17.6104 19.7419C17.7902 19.9539 18.1097 19.9815 18.324 19.8036L18.6689 19.5173C18.8832 19.3394 18.9111 19.0233 18.7313 18.8112L17.9035 17.8351C17.5557 18.1735 17.1788 18.4828 16.7768 18.7589Z" fill="white"/>
<path d="M18.8471 16.7474L19.9482 17.3764C20.1904 17.5148 20.5002 17.4326 20.6401 17.1929L20.8652 16.8071C21.005 16.5674 20.922 16.2609 20.6798 16.1225L19.5988 15.505C19.3837 15.9415 19.1318 16.3569 18.8471 16.7474Z" fill="white"/>
<path d="M20.1248 14.1526L21.3273 14.3624C21.6028 14.4105 21.8655 14.2284 21.914 13.9559L21.9922 13.5172C22.0408 13.2446 21.8568 12.9846 21.5814 12.9366L20.4082 12.7319C20.3544 13.2191 20.2587 13.6939 20.1248 14.1526Z" fill="white"/>
<path d="M20.4424 11.2622L21.5814 11.0635C21.8568 11.0154 22.0408 10.7555 21.9922 10.4829L21.914 10.0442C21.8655 9.7716 21.6028 9.5896 21.3273 9.63766L20.2263 9.82974C20.3381 10.2936 20.4113 10.7722 20.4424 11.2622Z" fill="white"/>
<path d="M19.7459 8.411L20.6798 7.87752C20.922 7.73913 21.005 7.43262 20.8652 7.19292L20.6401 6.80713C20.5002 6.56742 20.1904 6.4853 19.9482 6.62369L19.0463 7.1389C19.3145 7.54031 19.549 7.96565 19.7459 8.411Z" fill="white"/>
<path d="M18.0863 5.94938L18.7313 5.1888C18.9111 4.97677 18.8832 4.66065 18.6689 4.48274L18.324 4.19639C18.1097 4.01848 17.7902 4.04613 17.6104 4.25816L16.988 4.99201C17.3305 5.24271 17.6534 5.5181 17.9539 5.81553C17.9986 5.85966 18.0427 5.90428 18.0863 5.94938Z" fill="white"/>
<path d="M15.6517 4.1893L15.9709 3.3216C16.0666 3.06151 15.931 2.77392 15.6682 2.67925L15.2451 2.52689C14.9822 2.43222 14.6916 2.56633 14.5959 2.82642L14.2861 3.66863C14.7595 3.80409 15.216 3.97892 15.6517 4.1893Z" fill="white"/>
<path fill-rule="evenodd" clip-rule="evenodd" d="M11.9613 4.2274C14.0905 4.2274 16.018 5.08167 17.4133 6.46284C18.8085 7.844 19.6715 9.75205 19.6715 11.8596C19.6715 13.9672 18.8085 15.8752 17.4133 17.2564C16.018 18.6376 14.0905 19.4918 11.9613 19.4918C9.83222 19.4918 7.90467 18.6376 6.50939 17.2564C5.11413 15.8752 4.25114 13.9672 4.25114 11.8596C4.25114 9.75205 5.11413 7.844 6.50939 6.46284C7.90467 5.08167 9.83222 4.2274 11.9613 4.2274ZM11.9613 8.79552C11.1066 8.79552 10.3328 9.13848 9.77263 9.69296C9.21247 10.2475 8.86601 11.0135 8.86601 11.8596C8.86601 12.7058 9.21247 13.4718 9.77263 14.0263C10.3328 14.5808 11.1066 14.9237 11.9613 14.9237C12.8161 14.9237 13.5899 14.5808 14.1501 14.0263C14.7102 13.4718 15.0567 12.7058 15.0567 11.8596C15.0567 11.0135 14.7102 10.2475 14.1501 9.69296C13.5899 9.13848 12.8161 8.79552 11.9613 8.79552ZM16.9913 14.8964L15.9994 13.9563C15.9081 13.8697 15.7631 13.8728 15.6757 13.9632L15.5171 14.127C15.4296 14.2173 15.4327 14.3607 15.5241 14.4472L16.516 15.3874C16.6073 15.4739 16.7522 15.4708 16.8397 15.3805L16.9982 15.2167C17.0857 15.1263 17.0826 14.983 16.9913 14.8964ZM15.0489 14.9381L16.0409 15.8783C16.1322 15.9648 16.1353 16.1082 16.0478 16.1986L15.8892 16.3624C15.8018 16.4527 15.6569 16.4558 15.5656 16.3693L14.5736 15.4291C14.4823 15.3426 14.4792 15.1992 14.5667 15.1088L14.7252 14.945C14.8127 14.8547 14.9576 14.8516 15.0489 14.9381ZM17.9417 13.9145L16.9498 12.9744C16.8585 12.8878 16.7135 12.8909 16.6261 12.9813L16.4675 13.1451C16.38 13.2354 16.3832 13.3788 16.4745 13.4653L17.4664 14.4055C17.5577 14.492 17.7026 14.4889 17.7901 14.3986L17.9487 14.2348C18.0361 14.1444 18.033 14.0011 17.9417 13.9145ZM12.3246 16.172V17.5311C12.3246 17.6562 12.2221 17.7576 12.0957 17.7576H11.8664C11.74 17.7576 11.6375 17.6562 11.6375 17.5311V16.172C11.6375 16.0469 11.74 15.9455 11.8664 15.9455H12.0957C12.2221 15.9455 12.3246 16.0469 12.3246 16.172ZM10.9505 17.5312V16.1721C10.9505 16.047 10.848 15.9456 10.7216 15.9456H10.4924C10.3659 15.9456 10.2634 16.047 10.2634 16.1721L10.2634 17.5312C10.2634 17.6563 10.3659 17.7577 10.4924 17.7577H10.7216C10.848 17.7577 10.9505 17.6563 10.9505 17.5312ZM13.6987 16.1719V17.531C13.6987 17.6561 13.5962 17.7575 13.4698 17.7575H13.2405C13.1141 17.7575 13.0116 17.6561 13.0116 17.531L13.0116 16.1719C13.0116 16.0468 13.1141 15.9454 13.2405 15.9454H13.4698C13.5962 15.9454 13.6987 16.0468 13.6987 16.1719Z" fill="white"/>
</g>
<defs>
<clipPath id="clip0_66_1026">
<rect width="24" height="24" fill="white"/>
</clipPath>
</defs>
</svg>
