<svg width="24" height="24" viewBox="0 0 24 24" fill="none" xmlns="http://www.w3.org/2000/svg">
<g clip-path="url(#clip0_128_1229)">
<circle cx="12" cy="12" r="11.5" fill="#003060" stroke="white"/>
<path d="M19.5118 10.2903L19.3767 10.7151H5.1555L5.02047 10.2843C4.97747 10.1452 5.00304 10.0005 5.08944 9.8835C5.17584 9.7663 5.3126 9.68436 5.45828 9.68436H6.16265C6.12875 9.51272 6.11054 9.34573 6.11054 9.16286C6.11054 7.62859 7.35423 6.39768 8.8885 6.39768C8.99621 6.39768 9.10237 6.40447 9.20698 6.41648C9.26296 5.35082 10.1448 4.50367 11.2246 4.50367C11.2414 4.50367 11.2581 4.50426 11.2748 4.50464C11.4977 4.19876 11.8586 4 12.2662 4C12.6752 4 13.0372 4.20031 13.2602 4.50813C13.3108 4.50426 13.3617 4.50232 13.4132 4.50232C14.4927 4.50232 15.3745 5.34772 15.4305 6.41357C15.5351 6.40156 15.6412 6.39149 15.7489 6.39149C17.2832 6.39149 18.5269 7.62878 18.5269 9.16305C18.5269 9.34593 18.5087 9.51291 18.4748 9.68455H19.074C19.2193 9.68455 19.3562 9.7601 19.4426 9.8773C19.529 9.99412 19.5546 10.152 19.5118 10.2903ZM6.96408 16.5781C7.02335 16.7701 7.201 16.9012 7.40208 16.9012H7.56345C7.91525 16.3859 8.52857 15.9921 9.22519 15.9921C9.9222 15.9921 10.5351 16.3859 10.8869 16.9012H13.6876C14.0393 16.3859 14.6523 15.9921 15.3493 15.9921C16.0459 15.9921 16.6592 16.3859 17.0112 16.9012H17.1306C17.3312 16.9012 17.5089 16.7701 17.5682 16.5781L19.0941 11.6322H5.43833L6.96408 16.5781ZM18.2208 19.3224H6.73936C6.68899 19.3224 6.64773 19.3636 6.64773 19.4142V19.9084C6.64773 19.9587 6.68899 20 6.73936 20H18.2208C18.2714 20 18.3126 19.9587 18.3126 19.9084V19.4142C18.3126 19.3636 18.2714 19.3224 18.2208 19.3224ZM10.2711 18.0155C10.2711 17.4446 9.80809 16.9816 9.2372 16.9816C8.6663 16.9816 8.20331 17.4446 8.20331 18.0155C8.20331 18.5866 8.6663 19.0494 9.2372 19.0494C9.80809 19.0494 10.2711 18.5866 10.2711 18.0155ZM16.4492 18.0155C16.4492 17.4446 15.9864 16.9816 15.4153 16.9816C14.8445 16.9816 14.3815 17.4446 14.3815 18.0155C14.3815 18.5866 14.8445 19.0494 15.4153 19.0494C15.9864 19.0494 16.4492 18.5866 16.4492 18.0155Z" fill="white"/>
</g>
<defs>
<clipPath id="clip0_128_1229">
<rect width="24" height="24" fill="white"/>
</clipPath>
</defs>
</svg>
