<svg width="24" height="24" viewBox="0 0 24 24" fill="none" xmlns="http://www.w3.org/2000/svg">
<g clip-path="url(#clip0_128_1240)">
<circle cx="12" cy="12" r="11.5" fill="#55B90F" stroke="white"/>
<path d="M14.1317 20.684C10.5585 19.2629 3 15.4239 3 8.3685C6.85249 8.74141 9.66626 9.51164 11.7071 10.5002C11.6935 11.6732 11.8061 12.9126 12.0475 14.2089C11.8644 14.0462 11.6773 13.8876 11.4861 13.733C10.6806 13.0834 9.7856 12.5451 8.84993 12.1044C8.1014 11.7504 7.32439 11.4928 6.52976 11.2609C7.38813 11.5918 8.20853 11.9661 9.00181 12.4325C10.2399 13.1607 11.3355 14.1289 12.2617 15.2314C12.7879 17.5136 13.5784 19.4717 14.1317 20.684Z" fill="white"/>
<path d="M16.7502 21C16.959 20.4535 17.1407 19.8975 17.2695 19.3239C17.6587 17.5855 17.732 15.8037 17.5123 14.0354C17.3509 12.7323 17.0702 11.3952 16.5658 10.1788C16.7136 10.6806 16.8112 11.2013 16.8912 11.7193C17.1556 13.4157 17.1678 15.1501 16.8953 16.8451C16.6783 18.1889 16.239 19.4623 15.6233 20.6664C14.3717 18.0886 10.3565 8.60584 15.9623 3C25.959 15.1446 19.2032 19.8067 16.7502 21Z" fill="white"/>
</g>
<defs>
<clipPath id="clip0_128_1240">
<rect width="24" height="24" fill="white"/>
</clipPath>
</defs>
</svg>
