<svg width="24" height="24" viewBox="0 0 24 24" fill="none" xmlns="http://www.w3.org/2000/svg">
<g clip-path="url(#clip0_128_1264)">
<circle cx="12" cy="12" r="11.5" fill="#7B0898" stroke="white"/>
<path d="M12 10.1902C11.0005 10.1902 10.1902 11.0005 10.1902 12C10.1902 12.9998 11.0005 13.8098 12 13.8098C12.9995 13.8098 13.8098 12.9998 13.8098 12C13.8098 11.0005 12.9995 10.1902 12 10.1902ZM12 10.1902C11.0005 10.1902 10.1902 11.0005 10.1902 12C10.1902 12.9998 11.0005 13.8098 12 13.8098C12.9995 13.8098 13.8098 12.9998 13.8098 12C13.8098 11.0005 12.9995 10.1902 12 10.1902ZM12 10.1902C11.0005 10.1902 10.1902 11.0005 10.1902 12C10.1902 12.9998 11.0005 13.8098 12 13.8098C12.9995 13.8098 13.8098 12.9998 13.8098 12C13.8098 11.0005 12.9995 10.1902 12 10.1902ZM12 10.1902C11.0005 10.1902 10.1902 11.0005 10.1902 12C10.1902 12.9998 11.0005 13.8098 12 13.8098C12.9995 13.8098 13.8098 12.9998 13.8098 12C13.8098 11.0005 12.9995 10.1902 12 10.1902ZM12 2C6.486 2 2 6.486 2 12C2 17.5143 6.486 22 12 22C17.514 22 22 17.5143 22 12C22 6.486 17.514 2 12 2ZM15.958 19.4305L13.2915 14.5093C12.904 14.7095 12.4653 14.8233 12 14.8233C11.5348 14.8233 11.096 14.7095 10.7085 14.5093L8.042 19.4305C5.39275 18.0137 3.58475 15.2218 3.5795 12.0143L9.17875 12.0045C9.178 11.975 9.17675 11.9455 9.17675 11.9162C9.17675 10.9275 9.688 10.1402 10.4595 9.63575L7.5635 4.84625C8.85275 4.044 10.373 3.5795 12 3.5795C13.6268 3.5795 15.147 4.0435 16.4363 4.846L13.541 9.6365C14.3123 10.1407 14.8233 10.9245 14.8233 11.913C14.8233 11.9427 14.822 11.972 14.821 12.0012L20.4205 12.0145C20.4148 15.2217 18.6073 18.0137 15.958 19.4305ZM12 10.1902C11.0005 10.1902 10.1902 11.0005 10.1902 12C10.1902 12.9998 11.0005 13.8098 12 13.8098C12.9995 13.8098 13.8098 12.9998 13.8098 12C13.8098 11.0005 12.9995 10.1902 12 10.1902ZM12 10.1902C11.0005 10.1902 10.1902 11.0005 10.1902 12C10.1902 12.9998 11.0005 13.8098 12 13.8098C12.9995 13.8098 13.8098 12.9998 13.8098 12C13.8098 11.0005 12.9995 10.1902 12 10.1902ZM12 10.1902C11.0005 10.1902 10.1902 11.0005 10.1902 12C10.1902 12.9998 11.0005 13.8098 12 13.8098C12.9995 13.8098 13.8098 12.9998 13.8098 12C13.8098 11.0005 12.9995 10.1902 12 10.1902ZM12 10.1902C11.0005 10.1902 10.1902 11.0005 10.1902 12C10.1902 12.9998 11.0005 13.8098 12 13.8098C12.9995 13.8098 13.8098 12.9998 13.8098 12C13.8098 11.0005 12.9995 10.1902 12 10.1902ZM12 10.1902C11.0005 10.1902 10.1902 11.0005 10.1902 12C10.1902 12.9998 11.0005 13.8098 12 13.8098C12.9995 13.8098 13.8098 12.9998 13.8098 12C13.8098 11.0005 12.9995 10.1902 12 10.1902Z" fill="white"/>
</g>
<defs>
<clipPath id="clip0_128_1264">
<rect width="24" height="24" fill="white"/>
</clipPath>
</defs>
</svg>
