<svg width="24" height="24" viewBox="0 0 24 24" fill="none" xmlns="http://www.w3.org/2000/svg">
<g clip-path="url(#clip0_241_769)">
<circle cx="12" cy="12" r="11.5" fill="#C26DBC" stroke="white"/>
<path d="M3 12.9109H7.95382C8.10859 15.7957 9.0216 18.5873 10.5994 21C8.62307 20.6873 6.80531 19.7239 5.43035 18.2604C4.05538 16.7968 3.20072 14.9156 3 12.9109ZM3 11.0891C3.20072 9.08439 4.05538 7.2032 5.43035 5.73964C6.80531 4.27608 8.62307 3.31265 10.5994 3C9.0216 5.4127 8.10859 8.20428 7.95382 11.0891H3ZM20.9991 11.0891H16.0453C15.8905 8.20428 14.9775 5.4127 13.3997 3C15.376 3.31265 17.1938 4.27608 18.5688 5.73964C19.9437 7.2032 20.7984 9.08439 20.9991 11.0891ZM20.9991 12.9109C20.7984 14.9156 19.9437 16.7968 18.5688 18.2604C17.1938 19.7239 15.376 20.6873 13.3997 21C14.9775 18.5873 15.8905 15.7957 16.0453 12.9109H20.9991ZM9.76549 12.9109H14.2336C14.0847 15.37 13.3158 17.7502 11.9995 19.8267C10.6833 17.7502 9.91436 15.37 9.76549 12.9109ZM9.76549 11.0891C9.91436 8.63003 10.6833 6.2498 11.9995 4.17328C13.3158 6.2498 14.0847 8.63003 14.2336 11.0891H9.76549Z" fill="white"/>
</g>
<defs>
<clipPath id="clip0_241_769">
<rect width="24" height="24" fill="white"/>
</clipPath>
</defs>
</svg>
