<svg width="24" height="24" viewBox="0 0 24 24" fill="none" xmlns="http://www.w3.org/2000/svg">
<g clip-path="url(#clip0_241_837)">
<circle cx="12" cy="12" r="11.5" fill="#C26DBC" stroke="white"/>
<path d="M4 17.6C4 18.96 5.04 20 6.4 20H17.6C18.96 20 20 18.96 20 17.6V11.2H4V17.6ZM17.6 5.6H16V4.8C16 4.32 15.68 4 15.2 4C14.72 4 14.4 4.32 14.4 4.8V5.6H9.6V4.8C9.6 4.32 9.28 4 8.8 4C8.32 4 8 4.32 8 4.8V5.6H6.4C5.04 5.6 4 6.64 4 8V9.6H20V8C20 6.64 18.96 5.6 17.6 5.6Z" fill="white"/>
</g>
<defs>
<clipPath id="clip0_241_837">
<rect width="24" height="24" fill="white"/>
</clipPath>
</defs>
</svg>
