<svg width="24" height="24" viewBox="0 0 24 24" fill="none" xmlns="http://www.w3.org/2000/svg">
<circle cx="12" cy="12" r="11.5" fill="#055C9D" stroke="white"/>
<path fill-rule="evenodd" clip-rule="evenodd" d="M2 12C2 6.477 6.477 2 12 2C17.523 2 22 6.477 22 12C22 17.523 17.523 22 12 22C6.477 22 2 17.523 2 12ZM14.617 4.4485C15.3685 6.077 15.876 8.3875 15.98 11H19.9305C19.5475 7.9475 17.4415 5.4305 14.617 4.4485ZM8.02 11C8.124 8.3875 8.632 6.077 9.383 4.4485C6.5585 5.4305 4.4525 7.948 4.0695 11H8.02ZM9.383 19.5515C8.6315 17.923 8.124 15.6125 8.02 13H4.0695C4.4525 16.052 6.5585 18.5695 9.383 19.5515ZM15.98 13C15.876 15.6125 15.368 17.923 14.617 19.5515C17.4415 18.5695 19.5475 16.052 19.931 13H15.98ZM12.6126 15.8464V17H11.4275V15.8822C10.5916 15.8424 9.78626 15.6471 9.01145 15.2965V13.312C9.4542 13.5471 9.93511 13.7434 10.4542 13.9008C10.9733 14.0582 11.4294 14.1369 11.8225 14.1369C12.1469 14.1369 12.3845 14.096 12.5353 14.0143C12.6861 13.9327 12.7614 13.7962 12.7614 13.6049C12.7614 13.4734 12.7071 13.3618 12.5983 13.2702C12.4895 13.1785 12.3082 13.0749 12.0544 12.9594C11.8006 12.8438 11.458 12.7043 11.0267 12.5409C10.542 12.3537 10.1508 12.1435 9.85305 11.9103C9.55534 11.6772 9.33874 11.4162 9.20324 11.1273C9.06775 10.8384 9 10.4788 9 10.0484C9 9.39091 9.20229 8.87687 9.60687 8.50628C10.0115 8.13568 10.6183 7.90656 11.4275 7.81889V7H12.6126V7.80693C13.3721 7.85077 14.1374 8.04603 14.9084 8.39271L14.2271 10.0962C13.4294 9.72166 12.7099 9.53437 12.0687 9.53437C11.7634 9.53437 11.5487 9.57322 11.4246 9.65093C11.3006 9.72863 11.2385 9.8432 11.2385 9.99462C11.2385 10.1261 11.2834 10.2347 11.3731 10.3204C11.4628 10.4061 11.6183 10.5017 11.8397 10.6073C12.0611 10.7129 12.3683 10.8354 12.7614 10.9749C13.5592 11.2698 14.1317 11.6055 14.479 11.9821C14.8263 12.3586 15 12.8438 15 13.4375C15 14.107 14.7968 14.6509 14.3903 15.0693C13.9838 15.4877 13.3912 15.7468 12.6126 15.8464Z" fill="white"/>
</svg>
