<svg width="24" height="24" viewBox="0 0 24 24" fill="none" xmlns="http://www.w3.org/2000/svg">
<circle cx="12" cy="12" r="11.5" fill="#055C9D" stroke="white"/>
<path d="M8.52 18L7 20C11 21 13 21 17 20L15.4 18C15.4 18 11 18 8.52 18Z" fill="white"/>
<path d="M13 15H11V17H13V15Z" fill="white"/>
<path d="M7 7V13.1964C7 13.1964 12.4366 15.0045 17 13.1964V7C17 7 14.5778 8.02056 12.1175 8.01387C9.58467 8.00699 7.01156 7 7 7Z" fill="white"/>
<path d="M17 5.5C17 6.11728 14.4357 7 11.912 7C9.38836 7 7 6.1358 7 5.5C7 4.8642 9.39513 4 11.912 4C14.429 4 17 4.8642 17 5.5Z" fill="white"/>
</svg>
