<svg width="24" height="24" viewBox="0 0 24 24" fill="none" xmlns="http://www.w3.org/2000/svg">
<circle cx="12" cy="12" r="11.5" fill="#4453D9" stroke="white"/>
<path fill-rule="evenodd" clip-rule="evenodd" d="M3 12L12 3L21 12L12 21L3 12ZM11.9155 18.9033C12.5809 18.9033 13.1203 18.3639 13.1203 17.6985C13.1203 17.0331 12.5809 16.4937 11.9155 16.4937C11.2501 16.4937 10.7107 17.0331 10.7107 17.6985C10.7107 18.3639 11.2501 18.9033 11.9155 18.9033ZM10.9314 15.0778L10.2353 6.82624C10.1542 5.86553 10.8409 5.01838 11.7691 4.93438C12.6972 4.85055 13.5152 5.56142 13.5962 6.52237C13.6047 6.62172 13.6037 6.72985 13.5962 6.82624L12.9001 15.0778C12.8526 15.6406 12.3734 16.057 11.8299 16.0079C11.3445 15.9639 10.9721 15.5636 10.9314 15.0778Z" fill="white"/>
</svg>
