<svg width="24" height="24" viewBox="0 0 24 24" fill="none" xmlns="http://www.w3.org/2000/svg">
<g clip-path="url(#clip0_241_937)">
<circle cx="12" cy="12" r="11.5" fill="#1592B4" stroke="white"/>
<path d="M19.4317 6.20716C19.088 6.17582 18.7839 6.4291 18.7526 6.77285L18.6698 7.68126C17.2648 5.47482 14.8259 4 12 4C8.95995 4 6.28085 5.73507 4.95091 8.3392C4.79391 8.64661 4.91584 9.02308 5.22325 9.18008C5.53072 9.33708 5.90713 9.21518 6.06413 8.90774C7.18967 6.70385 9.44989 5.25 12 5.25C14.3243 5.25 16.4219 6.46035 17.6235 8.35652L16.7324 7.72005C16.4515 7.51945 16.0611 7.58451 15.8605 7.86539C15.6599 8.1463 15.725 8.53661 16.0059 8.73724L18.7082 10.6673C19.1043 10.9496 19.6506 10.6912 19.6939 10.2154L19.9974 6.88635C20.0287 6.54257 19.7755 6.23851 19.4317 6.20716Z" fill="white"/>
<path d="M18.7767 14.82C18.4693 14.663 18.0929 14.7849 17.9359 15.0923C16.8103 17.2962 14.5501 18.75 12 18.75C9.67571 18.75 7.57814 17.5397 6.37644 15.6435L7.26761 16.28C7.54851 16.4806 7.93883 16.4155 8.13945 16.1346C8.34005 15.8537 8.27499 15.4634 7.99411 15.2628L5.29175 13.3328C4.90053 13.0533 4.34984 13.304 4.30609 13.7846L4.00262 17.1137C3.97128 17.4574 4.22456 17.7615 4.56828 17.7928C4.91247 17.8241 5.21613 17.5706 5.24744 17.2271L5.33025 16.3187C6.73519 18.5252 9.17408 20 12 20C15.04 20 17.7191 18.265 19.0491 15.6608C19.2061 15.3534 19.0842 14.977 18.7767 14.82Z" fill="white"/>
<path d="M11.9984 16.8204C12.3225 16.8204 12.5856 16.5729 12.5856 16.2672C12.5856 15.9618 12.5856 15.7143 12.5856 15.7143C14.1888 15.5675 15.25 14.7207 15.25 13.3432V13.3206C15.25 11.9206 14.3468 11.2772 12.5517 10.8596V9.5499C12.8102 9.61306 13.0778 9.70256 13.3393 9.81865C13.7603 10.0052 14.2718 9.88828 14.5273 9.47046C14.7831 9.0529 14.6449 8.46636 14.1711 8.25365C13.6993 8.04208 13.1815 7.89633 12.6079 7.83361V7.4948C12.6079 7.30802 12.3452 7.15623 12.021 7.15623C11.6967 7.15623 11.4338 7.30042 11.4338 7.47761C11.4338 7.65549 11.4338 7.79946 11.4338 7.79946C9.70608 7.92377 8.7352 8.84955 8.7352 10.1817V10.2045C8.7352 11.6043 9.66096 12.2257 11.4788 12.643V13.998C11.0427 13.9277 10.6157 13.7829 10.1812 13.561C9.7183 13.3249 9.1512 13.4084 8.87067 13.823C8.58989 14.2374 8.70327 14.8263 9.16995 15.0552C9.85558 15.392 10.6305 15.612 11.411 15.692V16.2564C11.4112 16.5678 11.6742 16.8204 11.9984 16.8204ZM12.5401 12.8239C13.1276 12.993 13.2967 13.1627 13.2967 13.4673V13.4901C13.2967 13.8175 13.0597 14.0092 12.5401 14.0659V12.8239ZM10.7222 10.0349V10.0124C10.7222 9.7189 10.9369 9.49299 11.49 9.44793V10.6674C10.8805 10.498 10.7222 10.3284 10.7222 10.0349Z" fill="white"/>
</g>
<defs>
<clipPath id="clip0_241_937">
<rect width="24" height="24" fill="white"/>
</clipPath>
</defs>
</svg>
