<svg width="24" height="24" viewBox="0 0 24 24" fill="none" xmlns="http://www.w3.org/2000/svg">
<circle cx="12" cy="12" r="11.5" fill="#055C9D" stroke="white"/>
<path fill-rule="evenodd" clip-rule="evenodd" d="M4.46305 10.9006H10.5189C10.3162 12.0676 10.0652 12.7638 9.76588 12.9892C9.3169 13.3273 7.31795 14.1848 5.78145 13.2577C4.75711 12.6397 4.31764 11.854 4.46305 10.9006Z" fill="white"/>
<path fill-rule="evenodd" clip-rule="evenodd" d="M13.5055 14.537H19.5614C19.3587 15.7039 19.1077 16.4001 18.8084 16.6255C18.3594 16.9636 16.3604 17.8212 14.8239 16.8941C13.7996 16.276 13.3601 15.4903 13.5055 14.537Z" fill="white"/>
<path d="M19.9983 14.5415C19.9961 14.5191 19.9919 14.4971 19.9857 14.4756C19.9819 14.45 19.9755 14.4249 19.9666 14.4007C19.9666 14.3975 19.9666 14.3942 19.9642 14.3909L16.841 7.83782C16.8379 7.83127 16.8313 7.82873 16.8278 7.82255C16.8035 7.77853 16.7704 7.74046 16.7308 7.71091C16.7178 7.70075 16.7041 7.69163 16.6898 7.68364C16.6786 7.67515 16.667 7.66738 16.655 7.66036L12.3567 5.93127V4.54327C12.3567 4.34244 12.2009 4.17964 12.0089 4.17964C11.8168 4.17964 11.6611 4.34244 11.6611 4.54327V5.65164L7.61595 4.024C7.58222 4.01267 7.54705 4.00667 7.51162 4.00618C7.50397 4.00618 7.49805 4 7.49006 4C7.48797 4 7.48658 4 7.48449 4C7.428 4.00185 7.37282 4.01821 7.32381 4.04764C7.27349 4.08062 7.23064 4.12467 7.19826 4.17673C7.19304 4.18545 7.18331 4.18982 7.17878 4.19891L4.03652 10.7524C4.03652 10.7556 4.03652 10.7593 4.03374 10.7625C4.02518 10.786 4.019 10.8104 4.0153 10.8353C4.00885 10.8577 4.00443 10.8807 4.00209 10.904C4.00209 10.908 4 10.9113 4 10.9149C4 12.7098 5.56157 14.1702 7.47997 14.1702C9.39837 14.1702 10.9603 12.7098 10.9603 10.9149C10.9603 10.9109 10.9582 10.9076 10.9582 10.9036C10.9502 10.8558 10.9394 10.8086 10.9259 10.7622C10.9259 10.7593 10.9259 10.756 10.9234 10.7535L8.19954 5.03745L11.6593 6.42945V19.2727H8.84573C8.65366 19.2727 8.49795 19.4355 8.49795 19.6364C8.49795 19.8372 8.65366 20 8.84573 20H15.1028C15.2949 20 15.4506 19.8372 15.4506 19.6364C15.4506 19.4355 15.2949 19.2727 15.1028 19.2727H12.3553V6.71091L16.046 8.19564L13.0759 14.3902C13.0759 14.3938 13.0759 14.3975 13.0731 14.4011C13.0647 14.4239 13.0587 14.4475 13.055 14.4716C13.0483 14.4944 13.0437 14.5178 13.0415 14.5415C13.0415 14.5455 13.0394 14.5487 13.0394 14.5527C13.0394 16.3476 14.6009 17.8076 16.5193 17.8076C18.4377 17.8076 20 16.3476 20 14.5527C20 14.5487 20 14.5455 19.9983 14.5415ZM7.4904 5.17673L10.0522 10.5527H4.91294L7.4904 5.17673ZM7.48136 13.4444C6.08151 13.4444 4.9199 12.5022 4.72479 11.28H10.2379C10.0432 12.5022 8.88121 13.4444 7.48136 13.4444ZM19.0909 14.1895H13.9513L16.5291 8.81345L19.0909 14.1895ZM16.52 17.0811C15.1202 17.0811 13.9586 16.1389 13.7638 14.9167H19.2766C19.0818 16.1385 17.9202 17.0811 16.52 17.0811Z" fill="white"/>
</svg>
