<svg width="24" height="24" viewBox="0 0 24 24" fill="none" xmlns="http://www.w3.org/2000/svg">
<g clip-path="url(#clip0_64_75)">
<rect x="0.5" y="0.5" width="23" height="23" rx="3.5" fill="#36714D" stroke="white"/>
<path d="M12.6032 15H11.4808C9.82558 15 8.40411 13.7516 8.10281 12.0293C7.95506 11.1835 7.94094 10.2372 8.23237 9.30203C8.25884 9.21686 8.3734 9.21462 8.40446 9.29793C8.5395 9.65845 8.83781 10.3139 9.31635 10.6364C9.74686 10.9265 9.80211 10.6393 9.5993 9.83068C9.40707 9.06481 9.03215 7.28217 9.47944 6.1113C9.50874 6.03415 9.61307 6.03845 9.64731 6.11318C10.003 6.88727 10.4245 7.43683 10.8171 7.75757C10.8171 7.75757 10.6799 5.39025 12.1302 4.02362C12.1921 3.96533 12.2911 4.02288 12.2786 4.10955C12.178 4.81005 12.304 5.7108 12.5949 6.35825C13.1494 7.59281 12.9818 8.30527 12.9818 8.30527C12.9818 8.30527 13.8159 7.61971 13.6032 6.25719C13.5885 6.16435 13.6962 6.10514 13.758 6.17276C14.3689 6.83907 14.9849 7.92626 14.458 9.59438C13.991 11.0729 14.2227 11.4091 14.5751 11.0933C14.8519 10.8452 15.2492 10.3967 15.3021 9.46997C15.3076 9.37451 15.4255 9.34555 15.4719 9.42757C15.766 9.94612 15.9235 10.5149 15.9814 11.0921C16.1916 13.188 14.5948 15 12.6032 15Z" fill="white"/>
<path d="M6 16H7V17H10V16H14V17H17V16H18V20H17V19H14V20H10V19H7V20H6V16Z" fill="white"/>
</g>
<defs>
<clipPath id="clip0_64_75">
<rect width="24" height="24" fill="white"/>
</clipPath>
</defs>
</svg>
