<svg width="24" height="24" viewBox="0 0 24 24" fill="none" xmlns="http://www.w3.org/2000/svg">
<g clip-path="url(#clip0_64_97)">
<rect x="0.5" y="0.5" width="23" height="23" rx="9.5" fill="#0054DE" stroke="white"/>
<path fill-rule="evenodd" clip-rule="evenodd" d="M12.7589 5.30158C13.4162 6.415 14.3423 7.98372 15.1102 8.93213C16.5344 10.4815 16.1497 12.5743 14.6599 13.9536C13.1547 15.3488 10.6961 15.3488 9.19342 13.9536C8.40111 13.2214 8 12.2662 8 11.3107C8 10.4663 8.31333 9.62162 8.94665 8.93027C9.82121 7.91195 10.728 6.17608 11.3115 5.05923C11.6391 4.43199 11.8648 4 11.9255 4C11.9905 4 12.3128 4.54594 12.7589 5.30158ZM10.5988 14.0315C10.8674 14.1316 11.1686 13.9853 11.2291 13.723C11.2765 13.5174 11.1561 13.3117 10.9455 13.233C10.4251 13.0383 10.0286 12.6658 9.7642 12.1219C9.64236 11.8711 9.57038 11.6269 9.52842 11.4373C9.48306 11.2331 9.28584 11.0894 9.06199 11.0948L9.0592 11.095L9.0513 11.0953L9.05022 11.0954C8.76599 11.1086 8.56134 11.3537 8.61892 11.6122C8.67094 11.8458 8.75794 12.1401 8.90315 12.4457C9.26649 13.2106 9.84686 13.751 10.5988 14.0315Z" fill="white"/>
<path d="M6 16H7V17H10V16H14V17H17V16H18V20H17V19H14V20H10V19H7V20H6V16Z" fill="white"/>
</g>
<defs>
<clipPath id="clip0_64_97">
<rect width="24" height="24" fill="white"/>
</clipPath>
</defs>
</svg>
