<svg width="24" height="24" viewBox="0 0 24 24" fill="none" xmlns="http://www.w3.org/2000/svg">
<g clip-path="url(#clip0_127_1150)">
<circle cx="12" cy="12" r="11.5" fill="#129698" stroke="white"/>
<path fill-rule="evenodd" clip-rule="evenodd" d="M13.2379 8.71537L16.0032 10.9968L15.6289 11.1187L7.69246 13.6987L6.45898 14.0997L5.31342 14.4721L6.22752 13.7993L7.18998 13.0912L11.6848 9.78398L8.93752 7.49904L17.2213 4.81052L18.4549 4.41002L19.6014 4.03795L18.6862 4.71055L17.7234 5.41837L13.2379 8.71537ZM7 15H6V19H7V18H10V19H14V18H17V19H18V15H17V16H14V15H10V16H7V15Z" fill="white"/>
</g>
<defs>
<clipPath id="clip0_127_1150">
<rect width="24" height="24" fill="white"/>
</clipPath>
</defs>
</svg>
