<svg width="24" height="24" viewBox="0 0 24 24" fill="none" xmlns="http://www.w3.org/2000/svg">
<circle cx="12" cy="12" r="11.5" fill="#A06204" stroke="white"/>
<path fill-rule="evenodd" clip-rule="evenodd" d="M11.0625 16.184C11.1886 16.184 11.3321 16.1419 11.4931 16.0578C11.6541 15.9736 11.8239 15.863 12.0025 15.7262C12.181 15.5894 12.3613 15.4333 12.5433 15.2579C12.7253 15.0825 12.9004 14.9071 13.0684 14.7317C13.1804 14.6264 13.3152 14.4914 13.4727 14.3265C13.6303 14.1616 13.7826 13.9985 13.9296 13.8371C14.0766 13.6757 14.2079 13.5231 14.3234 13.3793C14.4389 13.2355 14.5177 13.132 14.5597 13.0688C14.6087 13.2232 14.684 13.4091 14.7855 13.6266C14.887 13.8441 15.0025 14.0529 15.1321 14.2528C15.2616 14.4528 15.3946 14.6264 15.5311 14.7738C15.6677 14.9211 15.7954 15.0053 15.9145 15.0264C16.1175 14.9492 16.3328 14.8299 16.5603 14.6685C16.7879 14.5072 16.9997 14.3458 17.1957 14.1844C17.2657 14.1283 17.341 14.0721 17.4215 14.016C17.502 13.9599 17.579 13.9055 17.6525 13.8529C17.7261 13.8003 17.7873 13.7494 17.8363 13.7003C17.8853 13.6512 17.9098 13.6091 17.9098 13.574C17.9098 13.5179 17.8888 13.4898 17.8468 13.4898C17.8258 13.4898 17.8118 13.4933 17.8048 13.5003C17.6998 13.5986 17.5703 13.6915 17.4163 13.7792C17.2622 13.8669 17.0627 13.9108 16.8176 13.9108C16.6496 13.9108 16.4833 13.8441 16.3188 13.7108C16.1543 13.5775 16.0055 13.4126 15.8725 13.2162C15.7394 13.0197 15.6274 12.8057 15.5364 12.5742C15.4454 12.3426 15.3894 12.1251 15.3684 11.9217C15.4244 11.5077 15.5346 11.1955 15.6992 10.985C15.8637 10.7745 16.0685 10.6693 16.3135 10.6693C16.4396 10.6693 16.5463 10.6921 16.6339 10.7377C16.7214 10.7833 16.7966 10.8324 16.8596 10.885C16.9227 10.9376 16.9787 10.9867 17.0277 11.0324C17.0767 11.078 17.1222 11.1008 17.1642 11.1008C17.1852 11.1008 17.2272 11.0376 17.2902 10.9113C17.3532 10.785 17.4215 10.6429 17.495 10.4851C17.5685 10.3272 17.635 10.1781 17.6946 10.0378C17.7541 9.89747 17.7873 9.80977 17.7943 9.77469C17.7383 9.71154 17.6701 9.6712 17.5895 9.65366C17.509 9.63611 17.4093 9.62734 17.2902 9.62734C17.1012 9.62734 16.9069 9.6747 16.7074 9.76942C16.5078 9.86414 16.3153 9.98868 16.1298 10.143C15.9442 10.2974 15.7674 10.4728 15.5994 10.6693C15.4314 10.8657 15.2808 11.0622 15.1478 11.2586C15.0988 11.0692 15.0358 10.8815 14.9588 10.6956C14.8818 10.5096 14.789 10.3395 14.6805 10.1851C14.572 10.0308 14.4494 9.90624 14.3129 9.81152C14.1764 9.7168 14.0206 9.66944 13.8456 9.66944C13.7685 9.66944 13.6408 9.70979 13.4622 9.79047C13.2837 9.87116 13.0999 9.96412 12.9109 10.0694C12.7218 10.1746 12.5556 10.2746 12.412 10.3693C12.2685 10.464 12.1967 10.5219 12.1967 10.543C12.1967 10.6061 12.2213 10.6377 12.2703 10.6377C12.3403 10.6166 12.4033 10.5851 12.4593 10.543C12.5153 10.5009 12.5713 10.4798 12.6273 10.4798C12.8234 10.4798 13.0159 10.5412 13.2049 10.664C13.394 10.7868 13.5673 10.9446 13.7248 11.1376C13.8823 11.3305 14.0206 11.541 14.1396 11.7691C14.2586 11.9971 14.3462 12.2163 14.4022 12.4268C14.2621 12.7005 14.0889 12.9952 13.8823 13.3109C13.6758 13.6266 13.4587 13.916 13.2312 14.1791C13.0037 14.4423 12.7761 14.6615 12.5486 14.8369C12.321 15.0123 12.1162 15.1 11.9342 15.1C11.8222 15.1 11.7399 15.0667 11.6874 15C11.6349 14.9334 11.5981 14.8597 11.5771 14.779C11.5561 14.6983 11.5421 14.6247 11.5351 14.558C11.5281 14.4914 11.5141 14.458 11.4931 14.458C11.4791 14.458 11.4616 14.4686 11.4406 14.4896C11.3986 14.651 11.3443 14.8176 11.2778 14.9895C11.2113 15.1614 11.1448 15.3228 11.0783 15.4736C11.0118 15.6245 10.9505 15.7561 10.8945 15.8683C10.8385 15.9806 10.7965 16.0542 10.7685 16.0893C10.7895 16.1034 10.8227 16.1227 10.8682 16.1472C10.9138 16.1718 10.9785 16.184 11.0625 16.184Z" fill="white"/>
<path d="M18.219 9.32963V8.64316C18.219 8.47089 18.2438 8.34756 18.2934 8.27317C18.343 8.19878 18.4235 8.16158 18.5348 8.16158C18.6166 8.16158 18.6762 8.1879 18.7136 8.24054C18.751 8.29318 18.7697 8.37214 18.7697 8.47741V9.32963H19.1678V8.37823C19.1678 8.20509 19.1238 8.07262 19.036 7.98083C18.9481 7.88904 18.8193 7.84315 18.6497 7.84315C18.5505 7.84315 18.462 7.8612 18.3841 7.89731C18.3062 7.93341 18.2451 7.9867 18.2007 8.05718H18.1785L18.125 7.87055H17.8209V9.32963H18.219Z" fill="white"/>
<path fill-rule="evenodd" clip-rule="evenodd" d="M8.46394 12.2194C8.33231 12.3511 8.25089 12.5329 8.25089 12.7338C8.25089 12.9346 8.33231 13.1165 8.46394 13.2481C8.59557 13.3798 8.77742 13.4612 8.97828 13.4612C9.17915 13.4612 9.361 13.3798 9.49263 13.2481C9.62426 13.1165 9.70568 12.9346 9.70568 12.7338C9.70568 12.5329 9.62426 12.3511 9.49263 12.2194C9.37688 12.1037 9.25494 11.9524 8.46394 12.2194ZM7.95472 11.2646C7.82308 11.3963 7.74167 11.5781 7.74167 11.779C7.74167 11.9799 7.82308 12.1617 7.95472 12.2933C8.08635 12.425 8.2682 12.5064 8.46906 12.5064C8.66993 12.5064 8.85178 12.425 8.98341 12.2933C9.11504 12.1617 9.19646 11.9799 9.19646 11.779C9.19646 11.5781 9.11504 11.3963 8.98341 11.2646C8.86766 11.1489 8.74572 10.9976 7.95472 11.2646Z" fill="white"/>
<path fill-rule="evenodd" clip-rule="evenodd" d="M12.9071 7.6771C13.2648 7.58987 13.4866 7.42369 13.5727 7.17854C13.7017 6.81082 13.7684 5.91849 13.1069 5.44229C12.4454 4.9661 11.3621 4.88925 10.8039 5.14062C10.4318 5.3082 10.1705 5.50456 10.02 5.72972C9.74797 5.50171 9.48759 5.4059 9.23881 5.44229C8.99002 5.47869 8.80443 5.5745 8.68203 5.72972C7.47057 5.52069 6.51569 5.72363 5.8174 6.33855C4.76996 7.26092 4.68591 8.79637 5.8174 9.81117C6.94889 10.826 6.49473 10.7687 6.77049 11.1803C7.04625 11.5919 7.74793 11.9851 8.36183 11.9336C8.97573 11.882 10.123 11.9867 10.431 11.1803C10.7391 10.374 10.4829 10.1368 10.1332 10.0526C9.78357 9.96843 8.9823 9.89583 8.57768 9.69614C8.17305 9.49645 7.00136 8.95562 6.77049 8.46858C6.53962 7.98154 6.41498 7.07272 7.204 6.87811C7.99301 6.6835 8.28643 6.69476 8.43205 6.81472C8.57768 6.93468 9.24367 7.09536 9.42451 6.84369C9.60536 6.59202 9.77153 6.5292 9.89574 6.5292C10.02 6.5292 10.3659 6.71984 10.4885 6.5292C10.611 6.33855 11.2085 5.69216 12.0125 5.96838C12.8166 6.2446 12.9607 6.76439 12.9607 6.96048C12.9607 7.09121 12.9428 7.33008 12.9071 7.6771Z" fill="white"/>
<path d="M9.13741 7.2094C9.6897 7.2094 10.1374 6.76168 10.1374 6.2094C10.1374 5.65711 9.6897 5.2094 9.13741 5.2094C8.58513 5.2094 8.13741 5.65711 8.13741 6.2094C8.13741 6.76168 8.58513 7.2094 9.13741 7.2094Z" fill="white"/>
<path fill-rule="evenodd" clip-rule="evenodd" d="M12.9071 16.8993C13.2648 16.9866 13.4866 17.1527 13.5727 17.3979C13.7017 17.7656 13.7684 18.6579 13.1069 19.1341C12.4454 19.6103 11.3621 19.6872 10.8039 19.4358C10.4318 19.2682 10.1705 19.0719 10.02 18.8467C9.74797 19.0747 9.48759 19.1705 9.23881 19.1341C8.99002 19.0977 8.80443 19.0019 8.68203 18.8467C7.47057 19.0557 6.51569 18.8528 5.8174 18.2379C4.76996 17.3155 4.68591 15.7801 5.8174 14.7653C6.94889 13.7505 6.49473 13.8077 6.77049 13.3961C7.04625 12.9845 7.74793 12.5913 8.36183 12.6429C8.97573 12.6944 10.123 12.5898 10.431 13.3961C10.7391 14.2024 10.4829 14.4396 10.1332 14.5238C9.78357 14.608 8.9823 14.6806 8.57768 14.8803C8.17305 15.08 7.00136 15.6208 6.77049 16.1079C6.53962 16.5949 6.41498 17.5037 7.204 17.6983C7.99301 17.8929 8.28643 17.8817 8.43205 17.7617C8.57768 17.6418 9.24367 17.4811 9.42451 17.7327C9.60536 17.9844 9.77153 18.0472 9.89574 18.0472C10.02 18.0472 10.3659 17.8566 10.4885 18.0472C10.611 18.2379 11.2085 18.8843 12.0125 18.6081C12.8166 18.3318 12.9607 17.812 12.9607 17.6159C12.9607 17.4852 12.9428 17.2464 12.9071 16.8993Z" fill="white"/>
<path d="M9.13741 19.367C9.6897 19.367 10.1374 18.9193 10.1374 18.367C10.1374 17.8147 9.6897 17.367 9.13741 17.367C8.58513 17.367 8.13741 17.8147 8.13741 18.367C8.13741 18.9193 8.58513 19.367 9.13741 19.367Z" fill="white"/>
</svg>
