<svg width="24" height="24" viewBox="0 0 24 24" fill="none" xmlns="http://www.w3.org/2000/svg">
<circle cx="12" cy="12" r="11.5" fill="#4453D9" stroke="white"/>
<path fill-rule="evenodd" clip-rule="evenodd" d="M8.77785 10.7192L9.15552 8.6875H2.66666L5.70201 12.4511L2.66666 16.4425H8.77785L9.45229 14.1762L8.44635 15.3047H5.10099L7.07432 12.4511L5.10099 9.66549H8.19395L8.77785 10.7192Z" fill="white"/>
<path fill-rule="evenodd" clip-rule="evenodd" d="M20.5444 11.0341L20.7995 9.83333H16.4167L18.4669 12.0577L16.4167 14.4167H20.5444L21 13.0772L20.3205 13.7442H18.0609L19.3938 12.0577L18.0609 10.4113H20.1501L20.5444 11.0341Z" fill="white"/>
<path fill-rule="evenodd" clip-rule="evenodd" d="M19.6334 8.85232L20.3986 5.25H7.25L12.9792 12.125L7.25 19H19.6334L21 14.9817L18.9616 16.9826H12.1828L16.4167 12.125L12.1828 6.98402H18.4502L19.6334 8.85232Z" fill="white"/>
</svg>
