<svg width="24" height="24" viewBox="0 0 24 24" fill="none" xmlns="http://www.w3.org/2000/svg">
<g clip-path="url(#clip0_66_696)">
<rect x="0.5" y="0.5" width="23" height="23" rx="3.5" fill="#36714D" stroke="white"/>
<path d="M16.0075 2.78953C16.1271 2.98672 16.2168 3.24024 16.2466 3.46559C16.3065 3.88813 16.0673 4.11349 15.6488 4.11349C15.5169 4.11349 15.3885 4.11025 15.2624 4.10706C15.0167 4.10086 14.7797 4.09488 14.5427 4.11349C14.0344 4.14166 13.6159 4.47969 13.4964 4.95856C13.317 5.63462 12.8087 5.88813 11.9716 5.69095C11.872 5.66749 11.7673 5.63915 11.6595 5.60998C11.5084 5.56912 11.3514 5.52664 11.1944 5.49376C10.5964 5.35292 10.2676 5.71912 10.4471 6.25433C10.5067 6.39517 10.5666 6.53602 10.6264 6.64869C10.6562 6.67686 10.6264 6.7332 10.5666 6.7332H9.75936C9.72953 6.7332 9.69953 6.70503 9.69953 6.67686C9.69953 6.45152 9.63986 6.19799 9.52019 5.97263C9.40069 5.77547 9.34085 5.57829 9.28102 5.38112C9.13168 4.81773 9.58002 4.33883 10.2676 4.42333C10.3461 4.43566 10.4303 4.45337 10.5177 4.47176C10.6301 4.49541 10.7478 4.52018 10.8656 4.53602C11.2541 4.62053 11.6728 4.42333 11.882 4.08532C11.9622 3.95089 12.0398 3.81395 12.1171 3.6775C12.299 3.35647 12.4793 3.0381 12.6892 2.76137C13.3468 1.9163 15.2601 1.57827 16.0075 2.78953Z" fill="white"/>
<path fill-rule="evenodd" clip-rule="evenodd" d="M17.3334 19.2404C17.3632 19.3531 17.4829 19.4657 17.6322 19.4657L20.6712 19.4939C20.8505 19.4939 21 19.6347 21 19.8037V20.691C21 20.86 20.8505 21.0008 20.6712 21.0008H3.29895C3.11959 21.0008 3 20.86 3 20.7192V19.7474C3 19.5784 3.14947 19.4657 3.29895 19.4657H5.78327C5.93274 19.4657 6.05233 19.3812 6.08221 19.2404L7.72645 7.83186C7.72645 7.69102 7.87595 7.57833 8.02546 7.57833H15.3901C15.5396 7.57833 15.6592 7.69102 15.6892 7.83186L17.3334 19.2404ZM12.6032 19H11.4808C9.82559 19 8.40411 17.8651 8.1028 16.2994C7.95506 15.5304 7.94094 14.6701 8.23237 13.82C8.25884 13.7426 8.3734 13.7406 8.40447 13.8163C8.5395 14.144 8.83781 14.7399 9.31634 15.033C9.74686 15.2968 9.80211 15.0358 9.5993 14.3006C9.40707 13.6044 9.03215 11.9838 9.47944 10.9194C9.50874 10.8492 9.61306 10.8531 9.64731 10.9211C10.003 11.6248 10.4245 12.1244 10.8171 12.416C10.8171 12.416 10.6799 10.2639 12.1302 9.02147C12.1921 8.96849 12.2911 9.02079 12.2786 9.09959C12.178 9.73641 12.304 10.5553 12.5949 11.1439C13.1494 12.2662 12.9819 12.9139 12.9819 12.9139C12.9819 12.9139 13.8159 12.2906 13.6032 11.052C13.5885 10.9676 13.6962 10.9138 13.758 10.9752C14.3689 11.581 14.9849 12.5693 14.458 14.0858C13.991 15.4299 14.2228 15.7356 14.5751 15.4484C14.8518 15.2229 15.2492 14.8152 15.3021 13.9727C15.3076 13.8859 15.4255 13.8596 15.4719 13.9341C15.766 14.4056 15.9235 14.9227 15.9814 15.4474C16.1916 17.3528 14.5948 19 12.6032 19Z" fill="white"/>
</g>
<defs>
<clipPath id="clip0_66_696">
<rect width="24" height="24" fill="white"/>
</clipPath>
</defs>
</svg>
