<svg width="24" height="24" viewBox="0 0 24 24" fill="none" xmlns="http://www.w3.org/2000/svg">
<g clip-path="url(#clip0_66_549)">
<circle cx="12" cy="12" r="11.5" fill="#1592B4" stroke="white"/>
<path fill-rule="evenodd" clip-rule="evenodd" d="M14.5555 10.5766L16.5981 9.15924L18.4225 10.9486L20.5 8.99381L19.994 8.24937L18.4225 9.87334L16.5981 8.08394L14.359 9.51628L14.5555 10.5766Z" fill="white"/>
<path fill-rule="evenodd" clip-rule="evenodd" d="M15.0224 13.0951L16.5981 11.8433L18.4225 13.6327L20.5 11.6779L19.994 10.9335L18.4225 12.5574L16.5981 10.768L14.8446 12.1358L15.0224 13.0951Z" fill="white"/>
<path fill-rule="evenodd" clip-rule="evenodd" d="M15.4531 15.4182L16.5981 14.5274L18.4225 16.3168L20.5 14.362L19.994 13.6176L18.4225 15.2415L16.5981 13.4521L15.2703 14.4324L15.4531 15.4182Z" fill="white"/>
<path fill-rule="evenodd" clip-rule="evenodd" d="M14.3658 2.7064C14.4749 2.88282 14.5567 3.10964 14.584 3.31126C14.6385 3.6893 14.4204 3.89094 14.0386 3.89094C13.9183 3.89094 13.8011 3.88805 13.6861 3.88519C13.462 3.87964 13.2458 3.87428 13.0296 3.89094C12.5659 3.91614 12.1841 4.21857 12.0751 4.64702C11.9115 5.25188 11.4477 5.47869 10.6842 5.30228C10.5935 5.28134 10.4982 5.25604 10.4001 5.23001C10.2623 5.19344 10.1184 5.15528 9.97519 5.12586C9.42965 4.99985 9.12967 5.32749 9.29342 5.80634C9.34785 5.93235 9.40244 6.05837 9.45702 6.15918C9.48424 6.18438 9.45702 6.23478 9.40244 6.23478H8.66609C8.63887 6.23478 8.6115 6.20958 8.6115 6.18438C8.6115 5.98277 8.55707 5.75594 8.4479 5.5543C8.33889 5.37789 8.2843 5.20146 8.22972 5.02505C8.09349 4.52099 8.50249 4.09255 9.12967 4.16816C9.20119 4.17915 9.27788 4.19497 9.35748 4.21139C9.46003 4.23255 9.56777 4.25479 9.6752 4.26898C10.0296 4.34458 10.4116 4.16816 10.6024 3.86574C10.6756 3.74546 10.7463 3.62295 10.8168 3.50088C10.9828 3.21364 11.1473 2.9288 11.3387 2.6812C11.9387 1.92511 13.684 1.62268 14.3658 2.7064ZM15.5753 17.4249C15.6025 17.5257 15.7117 17.6265 15.8479 17.6265L18.6201 17.6517C18.7837 17.6517 18.9201 17.7778 18.9201 17.929V18.7228C18.9201 18.874 18.7837 19 18.6201 19H4.77271C4.60909 19 4.5 18.874 4.5 18.748V17.8786C4.5 17.7273 4.63635 17.6265 4.77271 17.6265H5.03897C5.17533 17.6265 5.28442 17.5509 5.31168 17.4249L6.8116 7.21775C6.8116 7.09175 6.94798 6.99093 7.08437 6.99093H13.8026C13.939 6.99093 14.048 7.09175 14.0754 7.21775L14.4107 9.49918L13.6997 10.0523L10.9631 8.26288L7.97337 10.2177L8.47938 10.9621L10.9631 9.33817L13.6997 11.1276L14.557 10.4947L14.7623 11.8922L13.6997 12.7364L10.9631 10.947L7.97337 12.9018L8.47938 13.6462L10.9631 12.0223L13.6997 13.8117L14.9061 12.8707L15.1345 14.4248L13.6997 15.4205L10.9631 13.6311L7.97337 15.5859L8.47938 16.3303L10.9631 14.7064L13.6997 16.4957L15.2894 15.4789L15.5753 17.4249ZM15.2894 15.4789L15.9389 15.0634L15.7423 14.0031L15.1345 14.4248L15.2894 15.4789ZM14.9061 12.8707L15.4532 12.4439L15.2754 11.4846L14.7623 11.8922L14.9061 12.8707ZM14.557 10.4947L15.0275 10.1473L14.8447 9.16146L14.4107 9.49918L14.557 10.4947Z" fill="white"/>
</g>
<defs>
<clipPath id="clip0_66_549">
<rect width="24" height="24" fill="white"/>
</clipPath>
</defs>
</svg>
