<svg width="24" height="24" viewBox="0 0 24 24" fill="none" xmlns="http://www.w3.org/2000/svg">
<g clip-path="url(#clip0_66_702)">
<rect x="0.5" y="0.5" width="23" height="23" rx="9.5" fill="#0054DE" stroke="white"/>
<path fill-rule="evenodd" clip-rule="evenodd" d="M16.0075 2.78954C16.1271 2.98673 16.2168 3.24024 16.2466 3.4656C16.3065 3.88813 16.0673 4.11349 15.6488 4.11349C15.5169 4.11349 15.3885 4.11025 15.2624 4.10707H15.2624H15.2624C15.0167 4.10086 14.7797 4.09488 14.5427 4.11349C14.0344 4.14166 13.6159 4.47969 13.4964 4.95856C13.317 5.63462 12.8087 5.88813 11.9716 5.69096C11.872 5.6675 11.7672 5.63915 11.6595 5.60999C11.5084 5.56912 11.3514 5.52664 11.1944 5.49377C10.5964 5.35293 10.2676 5.71913 10.4471 6.25433C10.5067 6.39517 10.5666 6.53603 10.6264 6.6487C10.6562 6.67687 10.6264 6.7332 10.5666 6.7332H9.75936C9.72953 6.7332 9.69953 6.70503 9.69953 6.67687C9.69953 6.45152 9.63986 6.198 9.52019 5.97264C9.40069 5.77547 9.34085 5.57829 9.28102 5.38113L9.28101 5.3811C9.13167 4.81771 9.58002 4.33884 10.2676 4.42334C10.3461 4.43566 10.4303 4.45337 10.5177 4.47176L10.5177 4.47176L10.5177 4.47177C10.6301 4.49541 10.7478 4.52018 10.8656 4.53603C11.2541 4.62053 11.6728 4.42334 11.882 4.08532C11.9622 3.95089 12.0398 3.81396 12.1171 3.67751L12.1171 3.6775L12.1171 3.67748L12.1171 3.67748C12.299 3.35645 12.4793 3.0381 12.6892 2.76137C13.3468 1.9163 15.2601 1.57827 16.0075 2.78954ZM17.3334 19.2404C17.3632 19.3531 17.4829 19.4657 17.6322 19.4657L18.6712 19.4939C18.8505 19.4939 19 19.6347 19 19.8037V20.691C19 20.86 18.8505 21.0008 18.6712 21.0008H5.29895C5.11959 21.0008 5 20.86 5 20.7192V19.7474C5 19.5784 5.14947 19.4657 5.29895 19.4657H5.78327C5.93274 19.4657 6.05233 19.3812 6.08221 19.2404L7.72645 7.83186C7.72645 7.69102 7.87595 7.57834 8.02546 7.57834H15.3901C15.5396 7.57834 15.6592 7.69102 15.6892 7.83186L17.3334 19.2404ZM12.4615 10.1833C13.0777 11.1955 13.9459 12.6216 14.6658 13.4838C16.001 14.8923 15.6404 16.7949 14.2436 18.0487C12.8325 19.3171 10.5276 19.3171 9.11883 18.0487C8.37604 17.3831 8 16.5147 8 15.646C8 14.8784 8.29375 14.1106 8.88749 13.4821C9.70739 12.5563 10.5575 10.9783 11.1045 9.96294C11.4117 9.39272 11.6232 9 11.6801 9C11.7411 9 12.0432 9.49631 12.4615 10.1833ZM10.4363 18.1195C10.6882 18.2105 10.9706 18.0775 11.0273 17.8391C11.0717 17.6522 10.9588 17.4652 10.7614 17.3936C10.2735 17.2166 9.90182 16.878 9.65393 16.3835C9.53971 16.1555 9.47223 15.9335 9.4329 15.7612C9.39037 15.5755 9.20547 15.4449 8.99561 15.4498L8.993 15.45L8.9856 15.4502L8.98458 15.4504C8.71812 15.4624 8.52625 15.6852 8.58024 15.9202C8.62901 16.1326 8.71057 16.4001 8.84671 16.6779C9.18733 17.3733 9.73144 17.8645 10.4363 18.1195Z" fill="white"/>
</g>
<defs>
<clipPath id="clip0_66_702">
<rect width="24" height="24" fill="white"/>
</clipPath>
</defs>
</svg>
