<svg width="24" height="24" viewBox="0 0 24 24" fill="none" xmlns="http://www.w3.org/2000/svg">
<g clip-path="url(#clip0_234_493)">
<circle cx="12" cy="12" r="11.5" fill="white" stroke="white"/>
<path d="M8.17832 4C6.87053 4 5.7962 5.08705 5.7962 6.41034C5.7962 7.18242 6.16349 7.87249 6.72817 8.3148L4.82153 12.3012C4.67665 12.2729 4.52947 12.2586 4.38193 12.2583C3.07433 12.2585 2 13.3456 2 14.6689C2 15.9922 3.07433 17.0792 4.38212 17.0792C5.35584 17.0792 6.19291 16.474 6.55791 15.619L16.2908 17.0998C16.5247 18.1809 17.483 19 18.6179 19C19.8813 19 20.9172 17.9827 20.9867 16.7208C20.9954 16.6776 20.9998 16.6336 21 16.5895C21 16.5443 20.9955 16.4993 20.9865 16.455C20.9153 15.1947 19.8801 14.1791 18.6179 14.1791C18.5924 14.1791 18.5678 14.182 18.5427 14.1828L17.2402 10.1651C17.8619 9.75658 18.2859 9.06152 18.3294 8.27005C18.3381 8.22681 18.3425 8.1828 18.3427 8.13868C18.3426 8.09352 18.3381 8.04848 18.3292 8.00424C18.258 6.74395 17.2228 5.72834 15.9605 5.72834C14.9997 5.72834 14.1665 6.31604 13.791 7.15246L10.5487 6.28493C10.5481 6.28191 10.5474 6.2789 10.5468 6.2759C10.4758 5.01542 9.44056 4 8.17832 4ZM10.2402 7.59304L13.6073 8.4938C13.7791 9.65038 14.7721 10.5492 15.9605 10.5492L15.9668 10.5488L17.2803 14.5997C16.8724 14.8829 16.5606 15.2862 16.3872 15.755L6.72286 14.285C6.63803 13.7611 6.38547 13.28 6.00405 12.9156L7.96706 8.80973C8.03691 8.81607 8.10695 8.82068 8.17832 8.82068C9.06132 8.82068 9.83157 8.32306 10.2402 7.59304Z" fill="#354C85"/>
</g>
<defs>
<clipPath id="clip0_234_493">
<rect width="24" height="24" fill="white"/>
</clipPath>
</defs>
</svg>
