<svg width="24" height="24" viewBox="0 0 24 24" fill="none" xmlns="http://www.w3.org/2000/svg">
<g clip-path="url(#clip0_99_173)">
<circle cx="12" cy="12" r="11.5" fill="#C69517" stroke="white"/>
<path d="M20.6762 14.7129L19.426 14.531C19.3477 14.5251 19.2802 14.4758 19.2502 14.4033L18.8449 13.4252C18.8146 13.3529 18.8272 13.27 18.8785 13.2106L19.6265 12.2058C19.7453 12.0666 19.7375 11.859 19.6078 11.7294L19.0159 11.1378C18.8866 11.0082 18.6787 10.9997 18.5398 11.1192L17.5347 11.8668C17.4756 11.9179 17.3922 11.931 17.3201 11.901L16.3418 11.4954C16.2694 11.4657 16.22 11.397 16.2136 11.3196L16.0324 10.0697C16.018 9.8867 15.8656 9.7457 15.6826 9.7457H14.8455C14.6623 9.7457 14.5098 9.8867 14.4957 10.0697L14.3139 11.3196C14.3082 11.3976 14.2587 11.4657 14.1864 11.4954L13.2077 11.901C13.1354 11.931 13.0526 11.9179 12.9929 11.8668L11.9884 11.1192C11.8495 11 11.6419 11.0081 11.512 11.1378L10.9203 11.7294C10.7907 11.859 10.7829 12.0666 10.9017 12.2058L11.6494 13.2109C11.7001 13.27 11.7136 13.3531 11.6833 13.4252L11.278 14.4033C11.2486 14.4759 11.1802 14.5251 11.1025 14.5314L9.85166 14.7129C9.66923 14.7273 9.52823 14.8797 9.52823 15.063V15.8998C9.52823 16.0828 9.66927 16.2358 9.85166 16.2496L11.1025 16.4311C11.1802 16.4375 11.2486 16.4869 11.278 16.5593L11.6833 17.5374C11.7136 17.61 11.7001 17.6931 11.6494 17.7522L10.9017 18.7573C10.7829 18.8965 10.7907 19.1035 10.9203 19.2337L11.512 19.8254C11.6419 19.955 11.8495 19.9628 11.9884 19.8437L12.9929 19.0957C13.0526 19.0453 13.1354 19.0318 13.2077 19.0621L14.1864 19.4671C14.2587 19.4975 14.3082 19.5653 14.3142 19.6435L14.4958 20.8935C14.5102 21.0762 14.6623 21.2175 14.8456 21.2175H15.6827C15.866 21.2175 16.0181 21.0762 16.0325 20.8935L16.2137 19.6435C16.22 19.5653 16.2695 19.4975 16.3418 19.4671L17.3205 19.0621C17.3925 19.0318 17.4759 19.0453 17.535 19.0957L18.5398 19.8437C18.6787 19.9628 18.8867 19.955 19.016 19.8254L19.6079 19.2337C19.7378 19.1035 19.7453 18.8965 19.6265 18.7573L18.8785 17.7522C18.8281 17.6931 18.8146 17.61 18.8449 17.5374L19.2502 16.5593C19.2802 16.4869 19.3477 16.4375 19.426 16.4311L20.6763 16.2496C20.859 16.2358 21 16.0828 21 15.8998V15.063C21 14.8797 20.859 14.7273 20.6762 14.7129ZM16.6393 16.8569C16.2718 17.2238 15.7837 17.4261 15.264 17.4261C14.7447 17.4261 14.2559 17.2238 13.8887 16.8569C13.5215 16.4891 13.319 16.0009 13.319 15.4813C13.319 14.9619 13.5215 14.4735 13.8887 14.1062C14.2559 13.7384 14.7447 13.5368 15.264 13.5368C15.7837 13.5368 16.2718 13.7384 16.6393 14.1062C17.0066 14.4734 17.2088 14.9619 17.2088 15.4813C17.2088 16.0009 17.0066 16.4891 16.6393 16.8569Z" fill="white"/>
<path d="M10.1915 12.4795C10.3271 12.4309 10.4018 12.2862 10.3637 12.1476L10.1654 11.1773C10.1495 11.1179 10.1678 11.0546 10.2131 11.0132L10.8272 10.4543C10.8722 10.4132 10.9377 10.4009 10.9944 10.4225L11.9346 10.7072C12.0688 10.7579 12.22 10.6973 12.2812 10.5671L12.5602 9.97336C12.622 9.84285 12.5725 9.68802 12.4477 9.61721L11.6292 9.07445C11.5761 9.04385 11.544 8.98594 11.5473 8.92474L11.5863 8.09548C11.5896 8.03397 11.6262 7.97966 11.6818 7.95444L12.5564 7.48789C12.6874 7.42938 12.7508 7.27879 12.7022 7.14438L12.4801 6.52661C12.4312 6.39129 12.2866 6.3163 12.148 6.3544L11.1774 6.5521C11.118 6.56891 11.0553 6.55031 11.0136 6.50468L10.4549 5.8909C10.4132 5.84527 10.4006 5.78111 10.4228 5.72351L10.7076 4.78381C10.7582 4.6491 10.6977 4.49817 10.5672 4.43724L9.9737 4.15793C9.84349 4.09669 9.68807 4.14562 9.61698 4.27072L9.07453 5.08922C9.04419 5.14235 8.98632 5.1744 8.92509 5.17144L8.09582 5.13213C8.03462 5.12944 7.9794 5.0916 7.95452 5.03639L7.48857 4.16213C7.42945 4.03105 7.27944 3.9677 7.14442 4.01632L6.52698 4.23863C6.39166 4.28726 6.31667 4.43159 6.35508 4.57017L6.55308 5.54107C6.56929 5.59986 6.55099 5.66348 6.50539 5.70457L5.89122 6.2638C5.84562 6.3049 5.78112 6.31751 5.72351 6.29592L4.78382 6.01089C4.64971 5.95991 4.49879 6.02111 4.43728 6.15129L4.15824 6.74478C4.09704 6.87499 4.14593 7.03042 4.27076 7.1012L5.08923 7.64396C5.14263 7.67429 5.17444 7.73189 5.17114 7.7931L5.13213 8.62236C5.12975 8.68417 5.09222 8.73817 5.03673 8.76336L4.16214 9.22988C4.03099 9.28869 3.9677 9.43901 4.01633 9.57342L4.23864 10.1912C4.28724 10.3265 4.43187 10.4015 4.57018 10.3637L5.54139 10.1651C5.6002 10.1489 5.66379 10.1675 5.70488 10.2131L6.26351 10.827C6.30521 10.8726 6.31725 10.9374 6.29559 10.9947L6.0109 11.9344C5.96049 12.0688 6.02112 12.2197 6.15129 12.2809L6.74476 12.5599C6.87527 12.6214 7.03036 12.5719 7.10148 12.4474L7.64363 11.6286C7.67423 11.5758 7.73184 11.5434 7.79334 11.547L8.62264 11.586C8.68414 11.589 8.73875 11.6256 8.76424 11.6817L9.22989 12.5556C9.28931 12.6868 9.43902 12.7507 9.574 12.7021L10.1915 12.4795ZM8.87589 9.79395C8.49273 9.93166 8.07844 9.91246 7.70967 9.73904C7.34095 9.56562 7.06251 9.259 6.9242 8.87554C6.78649 8.49212 6.80569 8.07809 6.97914 7.70967C7.15253 7.34063 7.45945 7.0622 7.84261 6.92422C8.22603 6.78618 8.64006 6.80538 9.00848 6.9794C9.37691 7.15222 9.65595 7.45887 9.79423 7.84229C9.93197 8.22575 9.91247 8.63948 9.73935 9.00824C9.56533 9.37663 9.25898 9.65564 8.87589 9.79395Z" fill="white"/>
</g>
<defs>
<clipPath id="clip0_99_173">
<rect width="24" height="24" fill="white"/>
</clipPath>
</defs>
</svg>
