<svg width="24" height="24" viewBox="0 0 24 24" fill="none" xmlns="http://www.w3.org/2000/svg">
<g clip-path="url(#clip0_17_202)">
<circle cx="12" cy="12" r="11.5" fill="#76B947" stroke="white"/>
<path d="M4.02488 7.51777H19.6238V5H4.02488V7.51777Z" fill="white"/>
<path d="M6.35008 7.02855H8.43923V9.30079H6.35008V7.02855Z" fill="white"/>
<path d="M15.3377 7.02855H17.4268V9.30079H15.3377V7.02855Z" fill="white"/>
<path fill-rule="evenodd" clip-rule="evenodd" d="M16.3077 13.3685C17.2234 13.3685 17.9657 14.1138 17.9657 15.0332V15.0665C17.9657 15.9858 17.2234 16.7311 16.3077 16.7311C15.8629 16.7337 15.4357 16.5567 15.1221 16.24C14.8031 15.9268 14.6233 15.4978 14.6233 15.0498C14.6233 14.6019 14.8031 14.1728 15.1221 13.8596C15.4357 13.5429 15.8629 13.366 16.3077 13.3685ZM15.3377 14.8251V15.2413H17.261V14.8251H15.3377Z" fill="white"/>
<path fill-rule="evenodd" clip-rule="evenodd" d="M13.0579 11.4459V17.0828C13.0579 17.262 13.0579 17.4545 13.0579 17.4545C13.0579 18.0489 13.0579 18.0315 13.0579 18.0315C13.0579 18.0315 13.0295 18.0315 13.0579 18.3329V19.9464C14.1224 19.9714 15.1413 19.943 16.1081 19.916C17.4003 19.8799 18.5994 19.8465 19.6901 19.9464V11.6185C19.7065 11.5865 19.7149 11.5539 19.7149 11.5208C19.7149 11.082 18.2266 10.7263 16.3906 10.7263C14.6603 10.7263 13.2387 11.0422 13.0807 11.4459H13.0579ZM18.3817 14.6227C18.1825 13.6328 17.3136 12.9226 16.3077 12.9274C15.7541 12.9292 15.2236 13.1506 14.832 13.5433C14.1191 14.2559 14.0078 15.3752 14.5663 16.2152C15.1248 17.0552 16.1972 17.3813 17.126 16.9936C18.0549 16.6059 18.581 15.6127 18.3817 14.6227Z" fill="white"/>
<path fill-rule="evenodd" clip-rule="evenodd" d="M9.00297 15.0332C9.02125 14.3441 8.61463 13.7151 7.98038 13.4511C7.34612 13.1872 6.61545 13.343 6.14283 13.843C5.82379 14.1562 5.64396 14.5852 5.64396 15.0332C5.64396 15.4812 5.82379 15.9102 6.14283 16.2234C6.60925 16.7312 7.33959 16.8971 7.97829 16.6402C8.61698 16.3833 9.03131 15.7572 9.01955 15.0665L9.00297 15.0332ZM7.53559 14.0594V14.8251H8.2983V15.2413H7.53559V16.007H7.12108V15.2413H6.35837V14.8251H7.12108V14.0594H7.53559Z" fill="white"/>
<path fill-rule="evenodd" clip-rule="evenodd" d="M10.6942 11.6185C10.7106 11.5865 10.719 11.5539 10.719 11.5208C10.719 11.082 9.23067 10.7263 7.39465 10.7263C5.66436 10.7263 4.24282 11.0422 4.08484 11.4459H4.06197V19.988C5.11701 19.8896 6.29824 19.9232 7.57309 19.9594C8.56217 19.9875 9.60761 20.0171 10.6942 19.988V11.6185ZM7.34491 12.9274C8.3455 12.9282 9.20619 13.6385 9.40066 14.6239C9.59513 15.6093 9.06923 16.5954 8.14455 16.9792C7.21986 17.363 6.15391 17.0376 5.59854 16.202C5.04316 15.3664 5.15303 14.2533 5.86096 13.5433C6.25567 13.1501 6.78883 12.9288 7.34491 12.9274Z" fill="white"/>
</g>
<defs>
<clipPath id="clip0_17_202">
<rect width="24" height="24" fill="white"/>
</clipPath>
</defs>
</svg>
