<svg width="24" height="24" viewBox="0 0 24 24" fill="none" xmlns="http://www.w3.org/2000/svg">
<circle cx="12" cy="12" r="11.5" fill="#4453D9" stroke="white"/>
<path fill-rule="evenodd" clip-rule="evenodd" d="M10.8511 6.625H10.8973L11.5375 4H8.7836L7.40426 6.625H10.8511ZM12.4625 4L13.1136 6.625H13.1489H16.5957L15.2164 4H12.4625ZM5.10638 13.75H18.8936V13.9662C20.0866 14.1465 21 15.1563 21 16.375C21 17.5937 20.0866 18.6035 18.8936 18.7838V19H5.10638V18.7838C3.91337 18.6035 3 17.5937 3 16.375C3 15.1563 3.91337 14.1465 5.10638 13.9662V13.75ZM16.5483 14.875C16.2181 15.2886 16.0213 15.8093 16.0213 16.375C16.0213 16.9407 16.2181 17.4614 16.5483 17.875H7.45168C7.78191 17.4614 7.97872 16.9407 7.97872 16.375C7.97872 15.8093 7.78191 15.2886 7.45168 14.875H16.5483ZM10.8511 10V7H7.40426V13.2217H16.5734V7H13.1489V10L11.9995 9.2692L10.8511 10Z" fill="white"/>
</svg>
