<svg width="24" height="24" viewBox="0 0 24 24" fill="none" xmlns="http://www.w3.org/2000/svg">
<g clip-path="url(#clip0_241_811)">
<circle cx="12" cy="12" r="11.5" fill="#C26DBC" stroke="white"/>
<path fill-rule="evenodd" clip-rule="evenodd" d="M20 8C20 10.2091 18.2091 12 16 12C13.7909 12 12 10.2091 12 8C12 5.79086 13.7909 4 16 4C18.2091 4 20 5.79086 20 8ZM14.9626 5.87115C14.7731 5.76461 14.5393 5.90306 14.5417 6.12047L14.5852 9.98617C14.5877 10.2036 14.8245 10.3368 15.0115 10.226L18.3376 8.25544C18.5246 8.14466 18.5215 7.87304 18.3321 7.7664L14.9626 5.87115Z" fill="white"/>
<path fill-rule="evenodd" clip-rule="evenodd" d="M20 17C20 19.2091 18.2091 21 16 21C13.7909 21 12 19.2091 12 17C12 14.7909 13.7909 13 16 13C18.2091 13 20 14.7909 20 17ZM14.9626 14.8712C14.7731 14.7646 14.5393 14.9031 14.5417 15.1205L14.5852 18.9862C14.5877 19.2036 14.8245 19.3368 15.0115 19.226L18.3376 17.2554C18.5246 17.1447 18.5215 16.873 18.3321 16.7664L14.9626 14.8712Z" fill="white"/>
<path d="M12 4H6L5.15452 4.96627C3.42451 6.94342 2.32586 9.39311 2 12H12C9.79086 9.79086 9.79086 6.20914 12 4Z" fill="white"/>
<path d="M12 21H8L6.77647 20.1435C4.34734 18.4431 2.64323 15.8945 2 13H12C9.79086 15.2091 9.79086 18.7909 12 21Z" fill="white"/>
</g>
<defs>
<clipPath id="clip0_241_811">
<rect width="24" height="24" fill="white"/>
</clipPath>
</defs>
</svg>
