<svg width="24" height="24" viewBox="0 0 24 24" fill="none" xmlns="http://www.w3.org/2000/svg">
<g clip-path="url(#clip0_99_267)">
<circle cx="12" cy="12" r="11.5" fill="#055C9D" stroke="white"/>
<path fill-rule="evenodd" clip-rule="evenodd" d="M11.1305 9.3298H13.8085V12.3983L13.0571 13.3067C13.008 13.3635 12.9845 13.4283 12.9845 13.5028V16.7145H11.9506L11.9564 13.5028C11.9564 13.4283 11.9309 13.3635 11.8819 13.3067L11.1305 12.3983V9.3298Z" fill="white"/>
<path fill-rule="evenodd" clip-rule="evenodd" d="M14.4304 8.10359C14.4403 7.9741 14.4932 7.86031 14.5874 7.76418C14.6953 7.65823 14.8268 7.60526 14.9798 7.60722C15.1309 7.60722 15.2603 7.65823 15.3683 7.76418H15.3741C15.4801 7.87404 15.5311 8.00353 15.5311 8.15656C15.5311 8.30959 15.4781 8.44104 15.3702 8.54895C15.2623 8.65686 15.1309 8.71179 14.9778 8.71179C14.9719 8.71179 14.9641 8.71179 14.9582 8.71179H14.4285V8.10359H14.4304Z" fill="white"/>
<path fill-rule="evenodd" clip-rule="evenodd" d="M9.40789 8.15656C9.40789 8.00353 9.4589 7.87404 9.56484 7.76418H9.57073C9.67864 7.65823 9.80812 7.60722 9.95919 7.60722C10.1122 7.60526 10.2437 7.65823 10.3516 7.76418C10.4477 7.86031 10.5007 7.9741 10.5125 8.10359V8.71179H9.98274C9.97489 8.71179 9.96704 8.71179 9.95919 8.71179C9.80616 8.71179 9.67471 8.65686 9.5668 8.54895C9.46086 8.44104 9.40593 8.30959 9.40789 8.15656Z" fill="white"/>
<path fill-rule="evenodd" clip-rule="evenodd" d="M15.8097 7.32862L15.8058 7.3247C15.5762 7.09712 15.3015 6.98529 14.9778 6.98529C14.6541 6.98529 14.3775 7.09908 14.1499 7.3247C13.9439 7.5307 13.8281 7.77595 13.8066 8.0565V8.06043C13.8066 8.06827 13.8066 8.07612 13.8066 8.08397V8.08986C13.8046 8.11144 13.8026 8.13302 13.8026 8.1546C13.8026 8.18207 13.8046 8.2115 13.8066 8.23896V8.70983H11.1305V8.23896C11.1324 8.20953 11.1344 8.18207 11.1344 8.1546C11.1344 8.13694 11.1324 8.11929 11.1305 8.10163V8.08593C11.1305 8.07808 11.1305 8.06827 11.1305 8.06043V8.0565C11.1089 7.77398 10.9931 7.5307 10.7871 7.3247C10.5595 7.09712 10.2829 6.98332 9.95919 6.98529C9.63743 6.98529 9.3608 7.09908 9.13125 7.3247L9.12733 7.32862C8.89974 7.55817 8.78791 7.83284 8.78791 8.15656C8.78791 8.48224 8.90171 8.75888 9.12733 8.98646C9.35688 9.21601 9.63351 9.3298 9.95723 9.3298C9.96508 9.3298 9.97293 9.3298 9.98077 9.3298H10.5125V12.5081C10.5125 12.5827 10.536 12.6474 10.5851 12.7043L11.3365 13.6127L11.3325 16.7145H10.6007C10.5144 16.7145 10.4418 16.7459 10.381 16.8067C10.3202 16.8656 10.2888 16.9382 10.2888 17.0226C10.2888 17.1089 10.3202 17.1815 10.381 17.2423C10.4418 17.3031 10.5144 17.3325 10.6007 17.3345H14.3343C14.4206 17.3345 14.4932 17.3031 14.5541 17.2423C14.6149 17.1815 14.6463 17.1089 14.6463 17.0226C14.6463 16.9382 14.6149 16.8656 14.5541 16.8067C14.4932 16.744 14.4206 16.7145 14.3343 16.7145H13.6025V13.6147L14.3539 12.7063C14.403 12.6494 14.4285 12.5847 14.4285 12.5101V9.33176H14.9582C14.9641 9.33176 14.9719 9.33176 14.9778 9.33176C15.3015 9.33176 15.5782 9.21797 15.8077 8.98842C16.0353 8.75888 16.1491 8.48224 16.1511 8.15852C16.1511 7.8348 16.0373 7.55817 15.8097 7.32862ZM16.3296 3.27134C16.5748 3.45968 16.8142 3.66765 17.0418 3.89523C18.3053 5.15872 18.939 6.68315 18.939 8.47047C18.939 8.48028 18.939 8.49009 18.939 8.4999C18.937 8.97273 18.8899 9.42594 18.7977 9.86345C18.6682 10.4932 18.4446 11.0857 18.1267 11.639C18.1071 11.6743 18.0855 11.7096 18.064 11.743L18.011 11.8273C17.3969 12.9613 16.9712 13.7991 16.7318 14.3445C16.6631 14.4995 16.6004 14.6467 16.5415 14.782C16.5376 14.7918 16.5356 14.8016 16.5317 14.8115C16.2295 15.5197 16.0412 16.3084 15.9666 17.1815C15.9627 17.2325 15.9588 17.2835 15.9529 17.3345C15.9431 17.4326 15.9137 17.5386 15.8607 17.6543C15.692 18.0349 15.4114 18.2527 15.0171 18.3057V20.4991L13.5123 22H11.415L9.91407 20.4991V18.3096C9.51972 18.2566 9.23916 18.0408 9.07043 17.6582C9.01942 17.5425 8.98803 17.4346 8.97822 17.3384C8.9743 17.2874 8.97037 17.2345 8.96449 17.1854C8.88797 16.3123 8.69963 15.5217 8.39945 14.8154C8.39553 14.8056 8.3916 14.7958 8.38572 14.786C8.32882 14.6486 8.26604 14.5034 8.19933 14.3484C7.96194 13.8011 7.5362 12.9613 6.92211 11.8293L6.86718 11.7449C6.84756 11.7096 6.82794 11.6763 6.80832 11.641C6.49245 11.0877 6.26879 10.4952 6.13734 9.86541C6.04709 9.42986 6.00196 8.97469 6 8.50186C6 8.49205 6 8.48224 6 8.47243C6 6.68511 6.62978 5.15872 7.89327 3.89523C8.12086 3.66765 8.35825 3.45968 8.60349 3.27134C9.71395 2.42378 11.0029 2 12.4685 2C13.9302 2 15.2191 2.42378 16.3296 3.27134Z" fill="white"/>
</g>
<defs>
<clipPath id="clip0_99_267">
<rect width="24" height="24" fill="white"/>
</clipPath>
</defs>
</svg>
