<svg width="24" height="24" viewBox="0 0 24 24" fill="none" xmlns="http://www.w3.org/2000/svg">
<g clip-path="url(#clip0_99_234)">
<circle cx="12" cy="12" r="11.5" fill="#055C9D" stroke="white"/>
<path d="M16.1508 14.1675C16.1528 14.1658 16.1548 14.1655 16.1569 14.1638C17.7655 12.8323 18.6885 10.8928 18.6885 8.84116C18.6898 7.87591 18.4873 6.92122 18.0944 6.03959C17.7014 5.15796 17.1268 4.36918 16.408 3.72488C14.942 2.4163 13.0389 1.82053 11.0492 2.04711C7.88527 2.41625 5.36016 4.96221 5.04628 8.10071C4.91399 9.21595 5.0664 10.3465 5.4893 11.3869C5.91217 12.4273 6.59175 13.3436 7.46457 14.0503C7.46764 14.0528 7.47061 14.0525 7.47368 14.0551C8.22834 14.702 8.71932 15.5653 8.87278 16.4768H11.3905V12.4207H10.0689V11.5093H13.6235V12.4207H12.3019V16.4768H14.8249C14.9934 15.6108 15.4628 14.7573 16.1508 14.1675Z" fill="white"/>
<path d="M8.95832 17.4167H14.7916V19.0833C14.7916 20.6941 13.4858 22 11.875 22C10.2642 22 8.95832 20.6941 8.95832 19.0833V17.4167Z" fill="white"/>
</g>
<defs>
<clipPath id="clip0_99_234">
<rect width="24" height="24" fill="white"/>
</clipPath>
</defs>
</svg>
