<svg width="24" height="24" viewBox="0 0 24 24" fill="none" xmlns="http://www.w3.org/2000/svg">
<g clip-path="url(#clip0_66_1034)">
<circle cx="12" cy="12" r="11.5" fill="white" stroke="white"/>
<path d="M6.4 8.8C5.76348 8.8 5.15303 8.54714 4.70294 8.09706C4.25286 7.64697 4 7.03652 4 6.4C4 5.76348 4.25286 5.15303 4.70294 4.70294C5.15303 4.25286 5.76348 4 6.4 4C7.03652 4 7.64697 4.25286 8.09706 4.70294C8.54714 5.15303 8.8 5.76348 8.8 6.4C8.8 7.03652 8.54714 7.64697 8.09706 8.09706C7.64697 8.54714 7.03652 8.8 6.4 8.8ZM17.6 8.8C16.9635 8.8 16.353 8.54714 15.9029 8.09706C15.4529 7.64697 15.2 7.03652 15.2 6.4C15.2 5.76348 15.4529 5.15303 15.9029 4.70294C16.353 4.25286 16.9635 4 17.6 4C18.2365 4 18.847 4.25286 19.2971 4.70294C19.7471 5.15303 20 5.76348 20 6.4C20 7.03652 19.7471 7.64697 19.2971 8.09706C18.847 8.54714 18.2365 8.8 17.6 8.8ZM17.6 20C16.9635 20 16.353 19.7471 15.9029 19.2971C15.4529 18.847 15.2 18.2365 15.2 17.6C15.2 16.9635 15.4529 16.353 15.9029 15.9029C16.353 15.4529 16.9635 15.2 17.6 15.2C18.2365 15.2 18.847 15.4529 19.2971 15.9029C19.7471 16.353 20 16.9635 20 17.6C20 18.2365 19.7471 18.847 19.2971 19.2971C18.847 19.7471 18.2365 20 17.6 20ZM6.4 20C5.76348 20 5.15303 19.7471 4.70294 19.2971C4.25286 18.847 4 18.2365 4 17.6C4 16.9635 4.25286 16.353 4.70294 15.9029C5.15303 15.4529 5.76348 15.2 6.4 15.2C7.03652 15.2 7.64697 15.4529 8.09706 15.9029C8.54714 16.353 8.8 16.9635 8.8 17.6C8.8 18.2365 8.54714 18.847 8.09706 19.2971C7.64697 19.7471 7.03652 20 6.4 20ZM9.6 5.6H14.4V7.2H9.6V5.6ZM9.6 16.8H14.4V18.4H9.6V16.8ZM5.6 9.6H7.2V14.4H5.6V9.6ZM16.8 9.6H18.4V14.4H16.8V9.6Z" fill="#FF9900"/>
</g>
<defs>
<clipPath id="clip0_66_1034">
<rect width="24" height="24" fill="white"/>
</clipPath>
</defs>
</svg>
