<svg width="24" height="24" viewBox="0 0 24 24" fill="none" xmlns="http://www.w3.org/2000/svg">
<g clip-path="url(#clip0_100_289)">
<circle cx="12" cy="12" r="11.5" fill="#055C9D" stroke="white"/>
<path d="M20.496 13.7938C20.7974 13.618 21 13.2908 21 12.9175C21 12.358 20.5447 11.903 19.9855 11.903H16.6423C16.6671 11.8357 16.7014 11.7491 16.7334 11.6693C16.9312 11.1752 17.2992 10.2554 17.2992 9.31284C17.2992 8.25421 16.5583 7.61393 16.0458 7.57634C15.718 7.55739 15.4836 7.75709 15.4316 8.10942C15.3074 8.95005 14.6325 10.3074 14.6364 10.3074V10.3068C14.625 10.3208 13.7144 11.4203 12.833 12.0645C12.8388 12.1188 12.8493 12.1717 12.8493 12.2276V18.5013C12.8493 18.567 12.8379 18.6297 12.83 18.6934C14.0132 19.0285 15.1071 19.1919 16.2854 19.1919H19.1181C19.6776 19.1919 20.1326 18.7363 20.1326 18.1767C20.1326 17.8718 19.9973 17.5976 19.7838 17.4116C20.2316 17.3063 20.5663 16.9037 20.5663 16.4242C20.5663 16.1186 20.431 15.8447 20.2172 15.6584C20.6653 15.5532 20.9997 15.1505 20.9997 14.671C21 14.2971 20.7974 13.9703 20.496 13.7938Z" fill="white"/>
<path d="M11.303 11.6723H11.0102C10.4634 13.3245 9.05404 14.5514 8.08692 15.2309V18.5022C8.08692 18.8062 8.33565 19.0549 8.63961 19.0549H11.303C11.607 19.0549 11.8557 18.8062 11.8557 18.5022V12.225C11.8557 11.921 11.607 11.6723 11.303 11.6723ZM9.97147 18.0767C9.65085 18.0767 9.39134 17.8169 9.39134 17.4966C9.39134 17.1759 9.65117 16.9164 9.97147 16.9164C10.2921 16.9164 10.5516 17.1763 10.5516 17.4966C10.5516 17.8172 10.2921 18.0767 9.97147 18.0767Z" fill="white"/>
<path d="M10.2535 10.2508V8.07409C10.2535 7.83877 10.078 7.64691 9.84597 7.60933C8.27093 7.3557 7.40121 6.64515 6.97403 6.15587C6.79231 5.94768 6.4609 5.94768 6.27918 6.15587C5.85232 6.64483 4.9826 7.35537 3.40757 7.60933C3.17551 7.64691 3 7.83877 3 8.07409V10.2508C3 12.6662 5.5866 14.3703 6.39095 14.8416C6.53803 14.9279 6.71551 14.9279 6.86258 14.8416C7.66693 14.37 10.2535 12.6662 10.2535 10.2508ZM8.38859 9.74326L6.53672 11.5955C6.44325 11.6883 6.31709 11.7412 6.18505 11.7412C6.053 11.7412 5.92652 11.6883 5.83337 11.5955L4.86527 10.6267C4.67113 10.4326 4.67113 10.1172 4.86527 9.92302C5.05974 9.72888 5.37448 9.7292 5.56863 9.92302L6.18505 10.5404L7.68524 9.03957C7.87938 8.84543 8.19445 8.84543 8.38859 9.03957C8.58274 9.23372 8.58274 9.54879 8.38859 9.74326Z" fill="white"/>
</g>
<defs>
<clipPath id="clip0_100_289">
<rect width="24" height="24" fill="white"/>
</clipPath>
</defs>
</svg>
