<svg width="24" height="24" viewBox="0 0 24 24" fill="none" xmlns="http://www.w3.org/2000/svg">
<g clip-path="url(#clip0_241_867)">
<circle cx="12" cy="12" r="11.5" fill="#C26DBC" stroke="white"/>
<path fill-rule="evenodd" clip-rule="evenodd" d="M12.8915 4.00011C13.443 3.99928 13.9325 3.99854 14.3845 4.18292C14.8366 4.36729 15.1822 4.7086 15.5716 5.09318C16.3431 5.85517 17.1159 6.61603 17.8898 7.37569C18.2803 7.75909 18.627 8.09935 18.8142 8.54447C19.0015 8.98959 19.0008 9.47154 18.9999 10.0146C18.9968 12.0273 18.9998 14.04 18.9998 16.0528C18.9999 16.762 18.9999 17.373 18.9331 17.8623C18.8614 18.3867 18.7 18.8894 18.2859 19.2971C17.8718 19.7048 17.3613 19.8638 16.8287 19.9343C16.3317 20.0001 15.7111 20.0001 14.9908 20H10.009C9.28871 20.0001 8.66811 20.0001 8.17114 19.9343C7.63855 19.8638 7.12802 19.7048 6.71392 19.2971C6.29983 18.8894 6.13835 18.3867 6.06675 17.8623C5.99993 17.373 5.99996 16.762 6 16.0528L6.00001 8.00018C6.00001 7.98256 6 7.965 6 7.94752C5.99996 7.23833 5.99993 6.62729 6.06675 6.13796C6.13835 5.61356 6.29983 5.11089 6.71393 4.70317C7.12802 4.29543 7.63855 4.13644 8.17114 4.06594C8.6681 4.00015 9.2887 4.00018 10.009 4.00022C10.9698 4.00028 11.9307 4.00157 12.8915 4.00011ZM15.5119 11.4344C15.8291 11.7468 15.8291 12.2534 15.5119 12.5658L12.6054 15.4275C12.0985 15.9267 11.2764 15.9267 10.7694 15.4275L9.48792 14.1657C9.17063 13.8534 9.17063 13.3468 9.48792 13.0344C9.80522 12.722 10.3197 12.722 10.637 13.0344L11.6874 14.0687L14.3629 11.4344C14.6801 11.122 15.1946 11.122 15.5119 11.4344Z" fill="white"/>
</g>
<defs>
<clipPath id="clip0_241_867">
<rect width="24" height="24" fill="white"/>
</clipPath>
</defs>
</svg>
