<svg width="24" height="24" viewBox="0 0 24 24" fill="none" xmlns="http://www.w3.org/2000/svg">
<g clip-path="url(#clip0_66_964)">
<circle cx="12" cy="12" r="11.5" fill="#68BBE3" stroke="white"/>
<path d="M21.7981 12.7115C21.6207 12.5152 21.4231 12.4104 21.2114 12.4003C21.0886 12.3943 20.9623 12.431 20.855 12.5034C20.8528 12.5049 20.8507 12.5064 20.8483 12.5077L15.8391 15.6949C15.9801 16.08 15.9408 16.4784 15.7195 16.846C15.3594 17.4435 14.8481 17.5774 14.4827 17.5847C14.1083 17.592 13.82 17.4692 13.7885 17.4553C13.7832 17.4527 13.7776 17.4503 13.7725 17.4475L9.57607 15.2642C9.43676 15.1917 9.38233 15.0198 9.45498 14.8803C9.52742 14.7408 9.69929 14.6866 9.83902 14.7592L10.471 15.0878L14.0251 16.9368C14.0596 16.9506 14.2549 17.0234 14.4893 17.0146C14.8087 17.0031 15.0517 16.8515 15.2321 16.5519C15.4166 16.2459 15.3592 15.9628 15.2345 15.7397C15.2304 15.7333 15.2268 15.7271 15.2233 15.7204C15.1876 15.6591 15.1468 15.6028 15.105 15.552C14.9741 15.3925 14.8322 15.2873 14.7949 15.2607C13.3209 14.4309 9.38383 12.2595 8.67982 12.0724C8.50859 12.0268 8.24477 12 7.93124 12C7.52855 12 7.044 12.0444 6.56737 12.1517C6.07017 12.2636 5.23244 12.5251 4.78925 13.0756L5.89144 16.5875C6.42014 16.913 7.73965 17.6168 9.22824 18.254C11.4121 19.1888 13.0149 19.5773 13.7416 19.348C15.4124 18.8208 20.8012 14.4326 21.793 13.5904C21.8894 13.5087 21.9574 13.4016 21.9848 13.2891C22.0315 13.0913 21.9709 12.9022 21.7981 12.7115Z" fill="white"/>
<path d="M5.23757 16.4084L4.98576 15.6055L4.46049 13.9324L4.28947 13.3872L4.16303 12.985L4.02844 12.5559L2 13.1924L3.62447 18.3684L5.65291 17.7319L5.40838 16.9527L5.23757 16.4084Z" fill="white"/>
<path d="M14.7041 13.6502C12.5521 12.7943 8 10.4823 8 6.23318C10.3202 6.45777 12.0148 6.92164 13.2438 7.51699C13.2357 8.22341 13.3035 8.96985 13.4488 9.75059C13.3386 9.65259 13.2259 9.55704 13.1107 9.46394C12.6256 9.07275 12.0866 8.74853 11.5231 8.48311C11.0723 8.26996 10.6044 8.1148 10.1258 7.97515C10.6427 8.17441 11.1368 8.39981 11.6146 8.68075C12.3602 9.1193 13.0201 9.70241 13.5779 10.3664C13.8947 11.7408 14.3709 12.9201 14.7041 13.6502Z" fill="white"/>
<path d="M16.281 13.8405C16.4068 13.5114 16.5162 13.1765 16.5938 12.8311C16.8282 11.7841 16.8723 10.711 16.74 9.64607C16.6428 8.86125 16.4738 8.05601 16.17 7.32346C16.259 7.62563 16.3178 7.93923 16.366 8.2512C16.5252 9.27285 16.5326 10.3174 16.3684 11.3382C16.2378 12.1475 15.9732 12.9144 15.6024 13.6396C14.8486 12.0871 12.4304 6.37612 15.8066 3C21.8271 10.3141 17.7584 13.1218 16.281 13.8405Z" fill="white"/>
</g>
<defs>
<clipPath id="clip0_66_964">
<rect width="24" height="24" fill="white"/>
</clipPath>
</defs>
</svg>
