<svg width="24" height="24" viewBox="0 0 24 24" fill="none" xmlns="http://www.w3.org/2000/svg">
<g clip-path="url(#clip0_66_973)">
<circle cx="12" cy="12" r="11.5" fill="#68BBE3" stroke="white"/>
<path d="M20.9059 12.2875L19.8624 6.35415C19.8092 6.04943 19.5821 5.79862 19.2824 5.721C19.0503 5.65847 18.8088 5.70663 18.6155 5.84174C18.4221 5.98188 18.3014 6.19461 18.282 6.43105L18.0211 9.90512C18.1857 9.96764 18.3402 10.069 18.4753 10.1998C18.9633 10.6827 19.0165 11.461 18.591 12.0022L16.8856 14.1812C16.7455 14.3602 16.4896 14.3889 16.3107 14.2488C16.1317 14.1086 16.0979 13.8528 16.2381 13.6738L17.9435 11.4948C18.1081 11.2821 18.0887 10.9774 17.8953 10.7848C17.794 10.6834 17.6589 10.6303 17.5188 10.6303C17.4074 10.6303 17.2967 10.664 17.1997 10.7316L14.7159 12.5577C14.233 12.9156 13.9089 13.4561 13.8269 14.0504L13.3921 17.462H18.0355L20.2339 14.8144C20.8189 14.1094 21.0654 13.1916 20.9059 12.2875Z" fill="white"/>
<path d="M18.1102 18.2827H13.1801C12.9185 18.2827 12.7065 18.4947 12.7065 18.7563V20.5264C12.7065 20.788 12.9185 21 13.1801 21H18.1102C18.3718 21 18.5838 20.788 18.5838 20.5264V18.7563C18.5838 18.4947 18.3718 18.2827 18.1102 18.2827Z" fill="white"/>
<path d="M10.5613 17.4627L10.1265 14.0511C10.0446 13.4568 9.72043 12.9156 9.23748 12.5585L6.75374 10.7366C6.53598 10.5771 6.24636 10.5965 6.05807 10.7848C5.86474 10.9781 5.84534 11.2821 6.00992 11.4948L7.71533 13.6738C7.85547 13.8528 7.82169 14.1086 7.64274 14.2488C7.46379 14.3889 7.20794 14.3602 7.0678 14.1812L5.36239 12.0022C4.93694 11.461 4.99012 10.6834 5.4781 10.1998C5.61321 10.069 5.76772 9.96764 5.9323 9.90511L5.67142 6.43104C5.65202 6.1946 5.53128 5.98187 5.33796 5.84173C5.14463 5.70159 4.90316 5.65847 4.67103 5.72099C4.37134 5.79861 4.14424 6.04943 4.09106 6.35414L3.04754 12.2875C2.888 13.1909 3.1345 14.1094 3.7195 14.8144L5.91793 17.462H10.5613V17.4627Z" fill="white"/>
<path d="M10.774 18.2827H5.84391C5.58231 18.2827 5.3703 18.4947 5.3703 18.7563V20.5264C5.3703 20.788 5.58231 21 5.84391 21H10.774C11.0356 21 11.2476 20.788 11.2476 20.5264V18.7563C11.2476 18.4947 11.0356 18.2827 10.774 18.2827Z" fill="white"/>
<path d="M11.3239 13.6838C11.3263 13.6813 11.3284 13.6788 11.3308 13.6763C11.3377 13.6678 11.3446 13.6586 11.3511 13.6489L13.8673 9.86773L15.5674 7.31271H12.4052L13.4727 5.81069L14.0455 5.00493L14.9982 3.66424C15.1061 3.51261 15.0983 3.32138 15.0157 3.18322C15.0068 3.16764 14.9966 3.15332 14.9856 3.139C14.9799 3.13184 14.9742 3.1251 14.9681 3.11836C14.9563 3.1053 14.9441 3.09309 14.9307 3.08213C14.8933 3.05054 14.8498 3.02696 14.8018 3.01306C14.7928 3.01053 14.7839 3.00842 14.7745 3.00674C14.7529 3.00253 14.7306 3 14.7074 3H11.6619C11.6526 3 11.6428 3.00042 11.6335 3.00126C11.5769 3.0059 11.5232 3.02485 11.476 3.0556C11.4602 3.06571 11.4451 3.07708 11.4309 3.08972C11.4093 3.10867 11.3898 3.13015 11.3727 3.15416C11.3495 3.18617 11.3308 3.2224 11.317 3.26157L9.28369 9.06618H12.0907L11.4846 11.2185L11.2539 12.0369L10.8752 13.381C10.8727 13.3898 10.8707 13.3987 10.8687 13.4075C10.8682 13.4096 10.8678 13.4122 10.8674 13.4143C10.8658 13.4223 10.8646 13.4303 10.8638 13.4379C10.8638 13.4387 10.8634 13.4395 10.8634 13.4404C10.8625 13.4488 10.8617 13.4572 10.8617 13.4657C10.8617 13.4678 10.8617 13.4699 10.8617 13.472C10.8617 13.4791 10.8617 13.4863 10.8621 13.493C10.8621 13.4943 10.8621 13.4956 10.8621 13.4968C10.8625 13.5048 10.8634 13.5128 10.8646 13.5204C10.865 13.5225 10.865 13.5242 10.8654 13.5263C10.8666 13.5326 10.8674 13.5389 10.8691 13.5453C10.8695 13.5469 10.8699 13.5482 10.8699 13.5499C10.8715 13.5571 10.8735 13.5646 10.876 13.5714C10.8764 13.5731 10.8772 13.5747 10.8776 13.5764C10.8796 13.5823 10.8817 13.5878 10.8841 13.5937C10.8849 13.5954 10.8853 13.5971 10.8861 13.5988C10.889 13.6055 10.8922 13.6118 10.8955 13.6186C10.8963 13.6198 10.8971 13.6211 10.8975 13.6223C10.9004 13.6278 10.9036 13.6329 10.9065 13.6379C10.9073 13.6396 10.9085 13.6409 10.9093 13.6426C10.9134 13.6485 10.9171 13.6544 10.9215 13.6598C10.9223 13.6607 10.9232 13.6615 10.9236 13.6628C10.9272 13.6674 10.9313 13.672 10.9354 13.6767C10.9366 13.6779 10.9378 13.6796 10.939 13.6809C10.9439 13.6859 10.9488 13.691 10.9537 13.6961C10.9541 13.6965 10.9549 13.6969 10.9553 13.6973C10.9598 13.7015 10.9647 13.7057 10.9695 13.71C10.9712 13.7112 10.9724 13.7125 10.974 13.7133C10.9793 13.7175 10.9846 13.7217 10.9903 13.7255L10.9907 13.726C10.9964 13.7298 11.0021 13.7335 11.0082 13.7369C11.0098 13.7378 11.0114 13.7386 11.0131 13.7394C11.0184 13.7424 11.0241 13.7453 11.0293 13.7479C11.0302 13.7483 11.0306 13.7487 11.0314 13.7487C11.0375 13.7517 11.044 13.7542 11.0501 13.7563C11.0517 13.7567 11.0533 13.7576 11.055 13.758C11.0603 13.7597 11.066 13.7618 11.0717 13.763C11.0729 13.7634 11.0737 13.7639 11.0749 13.7639C11.0814 13.7656 11.0879 13.7668 11.0944 13.7681C11.0961 13.7685 11.0977 13.7685 11.0993 13.7689C11.105 13.7698 11.1103 13.7706 11.116 13.771C11.1172 13.771 11.1188 13.7715 11.1201 13.7715C11.1266 13.7719 11.1327 13.7723 11.1392 13.7719C11.1477 13.7719 11.1567 13.7715 11.1652 13.7702C11.1668 13.7698 11.1689 13.7698 11.1705 13.7693C11.1774 13.7685 11.1843 13.7672 11.1913 13.7656C11.1941 13.7647 11.197 13.7639 11.1998 13.763C11.2059 13.7613 11.2116 13.7592 11.2177 13.7571C11.2205 13.7563 11.2234 13.755 11.2262 13.7538C11.2332 13.7508 11.2401 13.7479 11.2466 13.7441C11.2482 13.7432 11.2498 13.7424 11.2515 13.7415C11.2596 13.7369 11.2677 13.7319 11.2759 13.726C11.2779 13.7243 11.2803 13.7226 11.2824 13.7209C11.2881 13.7163 11.2938 13.7116 11.2995 13.7066C11.3019 13.7041 11.3048 13.702 11.3072 13.6994C11.3137 13.6952 11.319 13.6897 11.3239 13.6838Z" fill="white"/>
</g>
<defs>
<clipPath id="clip0_66_973">
<rect width="24" height="24" fill="white"/>
</clipPath>
</defs>
</svg>
