<svg width="24" height="24" viewBox="0 0 24 24" fill="none" xmlns="http://www.w3.org/2000/svg">
<g clip-path="url(#clip0_66_938)">
<circle cx="12" cy="12" r="11.5" fill="#68BBE3" stroke="white"/>
<path d="M9.8136 10.691H20.0594C20.4233 10.691 20.7195 10.3949 20.7195 10.0309V4.66029C20.7195 4.29618 20.4233 4 20.0594 4H9.8136C9.44948 4 9.15352 4.29618 9.15352 4.66029V10.0309C9.15352 10.3949 9.4497 10.691 9.8136 10.691ZM10.0568 6.06747C10.0568 5.91938 10.1771 5.79958 10.3247 5.79958C10.6719 5.79958 10.9544 5.51733 10.9544 5.17036C10.9544 5.02227 11.074 4.90247 11.2223 4.90247H18.6514C18.799 4.90247 18.9193 5.02227 18.9193 5.17036C18.9193 5.51733 19.2015 5.79958 19.5483 5.79958C19.6964 5.79958 19.8162 5.91938 19.8162 6.06747V8.62356C19.8162 8.77165 19.6964 8.89145 19.5483 8.89145C19.2015 8.89145 18.9193 9.1737 18.9193 9.52067C18.9193 9.66876 18.799 9.78856 18.6514 9.78856H11.2221C11.0738 9.78856 10.9542 9.66876 10.9542 9.52067C10.9542 9.1737 10.6717 8.89145 10.3245 8.89145C10.1769 8.89145 10.0566 8.77165 10.0566 8.62356V6.06747H10.0568Z" fill="white"/>
<path d="M11.4589 9.25278H18.4141C18.5151 8.82523 18.8524 8.4879 19.2802 8.38675V6.30428C18.8524 6.20312 18.5151 5.8658 18.4141 5.43825H11.4589C11.3579 5.8658 11.0204 6.20312 10.5926 6.30428V8.38675C11.0202 8.4879 11.3577 8.82523 11.4589 9.25278ZM14.9365 6.2297C15.5527 6.2297 16.0522 6.72926 16.0522 7.34562C16.0522 7.96177 15.5527 8.46133 14.9365 8.46133C14.3204 8.46133 13.8208 7.96177 13.8208 7.34562C13.821 6.72926 14.3204 6.2297 14.9365 6.2297Z" fill="white"/>
<path d="M21.7983 12.3594C21.6209 12.1631 21.4233 12.0583 21.2115 12.0483C21.0887 12.0423 20.9625 12.0789 20.8551 12.1514C20.853 12.1529 20.8509 12.1544 20.8485 12.1556L15.839 15.3431C15.98 15.7282 15.9408 16.1266 15.7194 16.4942C15.3593 17.0917 14.848 17.2256 14.4826 17.2329C14.1082 17.2402 13.8199 17.1174 13.7884 17.1035C13.7831 17.1009 13.7775 17.0985 13.7724 17.0957L9.5757 14.9125C9.4364 14.8401 9.38196 14.6682 9.45462 14.5287C9.52705 14.3892 9.69893 14.335 9.83866 14.4076L10.4707 14.7362L14.0248 16.5852C14.0593 16.599 14.2546 16.6718 14.489 16.663C14.8083 16.6515 15.0514 16.5 15.2318 16.2003C15.4163 15.8943 15.3589 15.6112 15.2342 15.3881C15.2301 15.3817 15.2265 15.3755 15.223 15.3688C15.1872 15.3075 15.1465 15.2512 15.1047 15.2004C14.9738 15.0409 14.8319 14.9357 14.7946 14.9091C13.3206 14.0793 9.38347 11.9079 8.67945 11.7208C8.50822 11.6752 8.2444 11.6484 7.93086 11.6484C7.52817 11.6484 7.04361 11.6927 6.56698 11.8001C6.06978 11.912 5.23203 12.1734 4.78883 12.724L5.89104 16.2359C6.41975 16.5615 7.73926 17.2653 9.22787 17.9024C11.4117 18.8372 13.0146 19.2258 13.7413 18.9965C15.4121 18.4693 20.8009 14.081 21.7928 13.2388C21.8892 13.1571 21.9571 13.05 21.9846 12.9374C22.0317 12.7394 21.9711 12.5504 21.7983 12.3594Z" fill="white"/>
<path d="M5.23761 16.0563L4.98558 15.2537L4.46051 13.5804L4.28949 13.0352L4.16305 12.6331L4.02846 12.2041L2 12.8406L3.62448 18.0166L5.65295 17.3801L5.40842 16.6007L5.23761 16.0563Z" fill="white"/>
</g>
<defs>
<clipPath id="clip0_66_938">
<rect width="24" height="24" fill="white"/>
</clipPath>
</defs>
</svg>
