<svg width="24" height="24" viewBox="0 0 24 24" fill="none" xmlns="http://www.w3.org/2000/svg">
<g clip-path="url(#clip0_66_957)">
<circle cx="12" cy="12" r="11.5" fill="#68BBE3" stroke="white"/>
<path d="M17.9877 8.48376C16.9021 7.03641 15.4412 4 15.3057 4C15.1636 4 13.9473 7.03641 12.7972 8.48206C12.2639 9.11057 12 9.87844 12 10.646C12 11.5147 12.3378 12.3831 13.005 13.0487C14.2705 14.3171 16.3409 14.3171 17.6084 13.0487C18.8631 11.7949 19.1871 9.89226 17.9877 8.48376ZM14.7194 12.8391C14.6684 13.0775 14.4147 13.2105 14.1885 13.1195C13.5553 12.8645 13.0665 12.3733 12.7606 11.6779C12.6383 11.4001 12.565 11.1326 12.5212 10.9202C12.4727 10.6852 12.6451 10.4624 12.8844 10.4504L12.8853 10.4502L12.892 10.45C12.8928 10.4498 12.8935 10.4498 12.8943 10.4498C13.0828 10.4449 13.2489 10.5755 13.2871 10.7612C13.3225 10.9335 13.3831 11.1555 13.4857 11.3835C13.7083 11.878 14.0422 12.2166 14.4805 12.3936C14.6578 12.4652 14.7592 12.6522 14.7194 12.8391Z" fill="white"/>
<path d="M21.7981 12.7115C21.6207 12.5152 21.4231 12.4104 21.2114 12.4003C21.0886 12.3943 20.9623 12.431 20.855 12.5034C20.8528 12.5049 20.8507 12.5064 20.8483 12.5077L15.8391 15.6949C15.9801 16.08 15.9408 16.4784 15.7195 16.846C15.3594 17.4435 14.8481 17.5774 14.4827 17.5847C14.1083 17.592 13.82 17.4692 13.7885 17.4553C13.7832 17.4527 13.7776 17.4503 13.7725 17.4475L9.57607 15.2642C9.43676 15.1917 9.38233 15.0198 9.45498 14.8803C9.52742 14.7408 9.69929 14.6866 9.83902 14.7592L10.471 15.0878L14.0251 16.9368C14.0596 16.9506 14.2549 17.0234 14.4893 17.0146C14.8087 17.0031 15.0517 16.8515 15.2321 16.5519C15.4166 16.2459 15.3592 15.9628 15.2345 15.7397C15.2304 15.7333 15.2268 15.7271 15.2233 15.7204C15.1876 15.6591 15.1468 15.6028 15.105 15.552C14.9741 15.3925 14.8322 15.2873 14.7949 15.2607C13.3209 14.4309 9.38383 12.2595 8.67982 12.0724C8.50859 12.0268 8.24477 12 7.93124 12C7.52855 12 7.044 12.0444 6.56737 12.1517C6.07017 12.2636 5.23244 12.5251 4.78925 13.0756L5.89144 16.5875C6.42014 16.913 7.73965 17.6168 9.22824 18.254C11.4121 19.1888 13.0149 19.5773 13.7416 19.348C15.4124 18.8208 20.8012 14.4326 21.793 13.5904C21.8894 13.5087 21.9574 13.4016 21.9848 13.2891C22.0315 13.0913 21.9709 12.9022 21.7981 12.7115Z" fill="white"/>
<path d="M5.23757 16.4084L4.98576 15.6055L4.46049 13.9324L4.28947 13.3872L4.16303 12.985L4.02844 12.5559L2 13.1924L3.62447 18.3684L5.65291 17.7319L5.40838 16.9527L5.23757 16.4084Z" fill="white"/>
</g>
<defs>
<clipPath id="clip0_66_957">
<rect width="24" height="24" fill="white"/>
</clipPath>
</defs>
</svg>
