<svg width="24" height="24" viewBox="0 0 24 24" fill="none" xmlns="http://www.w3.org/2000/svg">
<g clip-path="url(#clip0_66_945)">
<circle cx="12" cy="12" r="11.5" fill="#68BBE3" stroke="white"/>
<path d="M18.4896 12.2053C18.4896 12.8182 17.0406 13.5012 14.9612 13.5012C12.882 13.5012 11.433 12.8182 11.433 12.2053C11.433 12.1082 11.4692 12.0094 11.5387 11.9119C11.7251 12.0514 11.9581 12.1787 12.2345 12.2902C12.9664 12.5853 13.9346 12.7479 14.9612 12.7479C15.9877 12.7479 16.9562 12.5853 17.6879 12.2902C17.9643 12.1787 18.1975 12.0514 18.3839 11.9119C18.4534 12.0094 18.4896 12.1082 18.4896 12.2053Z" fill="white"/>
<path d="M18.4896 11.0236C18.4896 11.1207 18.4534 11.2195 18.3839 11.317C18.3458 11.3708 18.2974 11.4241 18.2397 11.4767C18.1883 11.5234 18.1293 11.5694 18.0633 11.6145C17.4873 12.0064 16.3688 12.3193 14.9612 12.3193C13.5538 12.3193 12.4353 12.0064 11.8593 11.6145C11.7931 11.5692 11.7341 11.5232 11.6827 11.4764C11.625 11.4239 11.5768 11.3706 11.5387 11.317C11.4692 11.2195 11.433 11.1207 11.433 11.0236C11.433 10.9265 11.4692 10.8277 11.5389 10.7302C11.6797 10.8354 11.8468 10.9336 12.0393 11.0236C12.1017 11.0527 12.1668 11.0808 12.2345 11.1083C12.2602 11.1185 12.2862 11.1288 12.3123 11.1387C12.415 11.1781 12.5219 11.2148 12.6327 11.2486C13.3016 11.4548 14.1115 11.566 14.9612 11.566C15.8111 11.566 16.6212 11.4546 17.2899 11.2486C17.4009 11.2146 17.5076 11.1779 17.6103 11.1387C17.6364 11.1288 17.6624 11.1185 17.6879 11.1083C17.7556 11.081 17.8207 11.0527 17.8831 11.0236C18.0755 10.9338 18.2429 10.8354 18.3837 10.7302C18.4534 10.8277 18.4896 10.9265 18.4896 11.0236Z" fill="white"/>
<path d="M18.4896 9.84168C18.4896 9.93877 18.4532 10.0376 18.3837 10.1351C18.3456 10.1889 18.2974 10.242 18.2397 10.2945C18.1883 10.3415 18.1291 10.3875 18.0629 10.4325C17.8653 10.5671 17.6041 10.6923 17.2892 10.7984C17.1671 10.8397 17.037 10.8781 16.8992 10.9132H16.899C16.7348 10.955 16.5599 10.9921 16.3754 11.0234C15.9509 11.0956 15.4753 11.1374 14.9612 11.1374C14.4471 11.1374 13.9715 11.0956 13.547 11.0234C13.3627 10.9921 13.1878 10.9552 13.0236 10.9132H13.0234C12.8856 10.8783 12.7555 10.8397 12.6334 10.7984C12.3185 10.6923 12.0573 10.5671 11.8597 10.4325C11.7935 10.3875 11.7343 10.3415 11.6829 10.2945C11.6252 10.242 11.577 10.1889 11.5389 10.1351C11.4694 10.0376 11.433 9.93877 11.433 9.84168C11.433 9.7446 11.4692 9.6458 11.5389 9.54829C11.6797 9.65352 11.8468 9.75167 12.0393 9.84168C12.1017 9.87083 12.1668 9.8989 12.2345 9.92634C12.2602 9.93662 12.2862 9.94691 12.3123 9.95677C12.415 9.9962 12.5221 10.0328 12.6329 10.0669C13.3018 10.2729 14.1115 10.3841 14.9612 10.3841C15.8109 10.3841 16.621 10.2729 17.2897 10.0669C17.4007 10.0328 17.5076 9.99599 17.6103 9.95677C17.6364 9.94691 17.6624 9.93662 17.6879 9.92634C17.7556 9.89912 17.8207 9.87083 17.8831 9.84168C18.0755 9.75189 18.2429 9.65352 18.3837 9.54829C18.4534 9.6458 18.4896 9.7446 18.4896 9.84168Z" fill="white"/>
<path d="M18.4896 8.65977C18.4896 8.75685 18.4534 8.85565 18.3837 8.95316C18.3458 9.00695 18.2974 9.06031 18.2397 9.11282C18.1883 9.15954 18.1293 9.20561 18.0631 9.25083C17.8657 9.38499 17.6045 9.51015 17.2899 9.61644C17.1677 9.65781 17.0372 9.69638 16.8994 9.73132C16.735 9.77332 16.5602 9.8104 16.3754 9.84168C15.9509 9.91369 15.4753 9.95548 14.9612 9.95548C14.4471 9.95548 13.9715 9.91369 13.547 9.84168C13.3624 9.8104 13.1876 9.77332 13.0232 9.73132C12.8854 9.69638 12.7551 9.65781 12.6327 9.61644C12.3181 9.51015 12.0569 9.38499 11.8595 9.25083C11.7933 9.20561 11.7341 9.15932 11.6827 9.1126C11.625 9.0601 11.5768 9.00673 11.5389 8.95316C11.4692 8.85565 11.433 8.75685 11.433 8.65977C11.433 8.56268 11.4692 8.46389 11.5389 8.36638C11.6797 8.4716 11.8471 8.56997 12.0395 8.65977C12.1019 8.68891 12.1668 8.7172 12.2345 8.74442C12.2602 8.75471 12.2862 8.76499 12.3123 8.77485C12.415 8.81428 12.5221 8.85093 12.6329 8.88501C13.3018 9.09096 14.1115 9.2024 14.9612 9.2024C15.8109 9.2024 16.621 9.09096 17.2897 8.88501C17.4007 8.85093 17.5076 8.81407 17.6103 8.77485C17.6364 8.76499 17.6624 8.75471 17.6879 8.74442C17.7556 8.7172 17.8205 8.68891 17.8829 8.65977C18.0755 8.56997 18.2429 8.4716 18.3837 8.36638C18.4534 8.46389 18.4896 8.56268 18.4896 8.65977Z" fill="white"/>
<path d="M18.4896 7.47785C18.4896 7.57493 18.4534 7.67373 18.3837 7.77124C18.3458 7.82503 18.2974 7.87839 18.2397 7.93068C18.1883 7.97762 18.1293 8.02369 18.0631 8.06891C17.8657 8.20307 17.6045 8.32823 17.2897 8.43453H17.2895C17.1673 8.47589 17.0372 8.51446 16.8994 8.5494C16.7352 8.5914 16.5602 8.62848 16.3756 8.65977C15.9509 8.73199 15.4753 8.77378 14.9612 8.77378C14.4471 8.77378 13.9715 8.73199 13.547 8.65977C13.3624 8.62848 13.1876 8.5914 13.0232 8.5494C12.8854 8.51446 12.7553 8.4761 12.6331 8.43453H12.6329C12.3181 8.32823 12.0569 8.20329 11.8595 8.06891C11.7933 8.02369 11.7341 7.9774 11.6827 7.93068C11.625 7.87818 11.5768 7.82482 11.5389 7.77124C11.4692 7.67373 11.433 7.57493 11.433 7.47785C11.433 7.38077 11.4692 7.28197 11.5389 7.18446C11.6797 7.28968 11.8471 7.38805 12.0395 7.47785C12.1019 7.50699 12.1668 7.53528 12.2345 7.5625C12.2602 7.57279 12.2862 7.58307 12.3123 7.59293C12.415 7.63237 12.5221 7.66901 12.6329 7.70309C13.3018 7.90904 14.1115 8.02048 14.9612 8.02048C15.8109 8.02048 16.621 7.90904 17.2897 7.70309C17.4007 7.66901 17.5076 7.63215 17.6103 7.59293C17.6364 7.58307 17.6624 7.57279 17.6879 7.5625C17.7556 7.53528 17.8205 7.50699 17.8829 7.47785C18.0755 7.38805 18.2429 7.28968 18.3837 7.18446C18.4534 7.28197 18.4896 7.38077 18.4896 7.47785Z" fill="white"/>
<path d="M18.4896 6.29593C18.4896 6.39301 18.4534 6.49181 18.3838 6.58932C18.3458 6.64311 18.2974 6.69648 18.2397 6.74898C18.1883 6.7957 18.1294 6.84178 18.0632 6.887C17.8658 7.02115 17.6045 7.14631 17.2897 7.25261C17.1676 7.29397 17.0373 7.33255 16.8995 7.36748C16.7353 7.40948 16.5602 7.44656 16.3757 7.47785C15.9509 7.55007 15.4754 7.59186 14.9612 7.59186C14.4471 7.59186 13.9716 7.55007 13.547 7.47785C13.3625 7.44656 13.1876 7.40948 13.0232 7.36748C12.8854 7.33255 12.7551 7.29418 12.633 7.25261C12.3182 7.14631 12.0569 7.02137 11.8595 6.887C11.7933 6.84178 11.7342 6.79549 11.6827 6.74877C11.6251 6.69626 11.5769 6.6429 11.5389 6.58932C11.4693 6.49181 11.4331 6.39301 11.4331 6.29593C11.4331 5.683 12.882 5 14.9612 5C17.0407 5 18.4896 5.683 18.4896 6.29593Z" fill="white"/>
<path d="M21.7981 12.8534C21.6207 12.6571 21.4231 12.5523 21.2114 12.5422C21.0886 12.5362 20.9623 12.5728 20.855 12.6453C20.8528 12.6468 20.8507 12.6483 20.8483 12.6496L15.8391 15.8368C15.9801 16.2219 15.9408 16.6203 15.7195 16.9878C15.3594 17.5853 14.8481 17.7193 14.4827 17.7266C14.1083 17.7339 13.82 17.6111 13.7885 17.5971C13.7832 17.5945 13.7776 17.5922 13.7725 17.5894L9.57607 15.406C9.43676 15.3336 9.38233 15.1617 9.45498 15.0222C9.52742 14.8827 9.69929 14.8285 9.83902 14.9011L10.471 15.2296L14.0251 17.0787C14.0596 17.0924 14.2549 17.1653 14.4893 17.1565C14.8087 17.1449 15.0517 16.9934 15.2321 16.6938C15.4166 16.3878 15.3592 16.1047 15.2345 15.8816C15.2304 15.8751 15.2268 15.8689 15.2233 15.8623C15.1876 15.801 15.1468 15.7446 15.105 15.6938C14.9741 15.5344 14.8322 15.4292 14.7949 15.4026C13.3209 14.5728 9.38383 12.4014 8.67982 12.2143C8.50859 12.1687 8.24477 12.1419 7.93124 12.1419C7.52855 12.1419 7.044 12.1862 6.56737 12.2936C6.07017 12.4055 5.23244 12.6669 4.78925 13.2175L5.89144 16.7294C6.42014 17.0549 7.73965 17.7587 9.22824 18.3959C11.4121 19.3307 13.0149 19.7192 13.7416 19.4899C15.4124 18.9627 20.8012 14.5745 21.793 13.7323C21.8894 13.6506 21.9574 13.5435 21.9848 13.4309C22.0315 13.2331 21.9709 13.0441 21.7981 12.8534Z" fill="white"/>
<path d="M5.23757 16.5502L4.98576 15.7474L4.46049 14.0743L4.28947 13.5291L4.16303 13.1268L4.02844 12.6978L2 13.3343L3.62447 18.5103L5.65291 17.8738L5.40838 17.0946L5.23757 16.5502Z" fill="white"/>
</g>
<defs>
<clipPath id="clip0_66_945">
<rect width="24" height="24" fill="white"/>
</clipPath>
</defs>
</svg>
