<svg width="24" height="24" viewBox="0 0 24 24" fill="none" xmlns="http://www.w3.org/2000/svg">
<g clip-path="url(#clip0_66_935)">
<circle cx="12" cy="12" r="11.5" fill="#68BBE3" stroke="white"/>
<path d="M15.4808 9.30922C15.5295 9.43591 15.6049 9.55468 15.7071 9.65685C15.9178 9.86755 16.1991 9.96457 16.4749 9.94792C16.7506 9.96458 17.0319 9.86756 17.2426 9.65685C17.3448 9.55468 17.4203 9.43591 17.469 9.30921L20.6569 6.12132C21.0474 5.73079 21.0474 5.09763 20.6569 4.7071C20.2663 4.31658 19.6332 4.31658 19.2426 4.7071L16.4749 7.47487L13.7071 4.70711C13.3166 4.31658 12.6834 4.31658 12.2929 4.70711C12.2845 4.71552 12.2763 4.72404 12.2682 4.73267C12.2596 4.74072 12.2511 4.74895 12.2426 4.75736L8.70711 8.29289C8.31658 8.68342 8.31658 9.31658 8.70711 9.70711C9.09763 10.0976 9.7308 10.0976 10.1213 9.70711L13 6.82843L15.4808 9.30922Z" fill="white"/>
<path d="M21.7196 11.6681C21.446 11.3701 21.013 11.2553 20.6331 11.3675L17.3915 12.329C17.3949 12.4067 17.3949 12.4844 17.3898 12.5637C17.3333 13.4729 16.6689 14.2293 15.7758 14.404L15.5707 14.4445C14.3922 14.675 13.1868 14.805 11.9864 14.8303L11.0046 14.8514C10.7041 14.8582 10.455 14.6193 10.4483 14.3187C10.4415 14.0182 10.6771 13.7692 10.9818 13.7624L11.9636 13.7413C13.0998 13.7169 14.2445 13.5936 15.3613 13.3758L15.5665 13.3353C15.9742 13.2551 16.2764 12.9098 16.3026 12.4962C16.3186 12.2505 16.2367 12.0142 16.073 11.831C15.9092 11.6478 15.6829 11.5406 15.4381 11.5279L10.2845 11.2705C9.71218 11.2418 9.13731 11.4072 8.66627 11.7356L4.31545 14.7763L8.70847 18.1934L13.034 18.678C13.7937 18.7633 14.5484 18.5556 15.1579 18.0947L21.5777 13.2365C21.82 13.0533 21.9677 12.7857 21.9956 12.4835C22.0226 12.1813 21.9247 11.8918 21.7196 11.6681Z" fill="white"/>
<path d="M2.09615 17.405C2.02186 17.5012 1.98894 17.6219 2.00329 17.7427C2.01848 17.8642 2.08011 17.9723 2.17634 18.0474L5.64754 20.7479C5.84676 20.9024 6.13462 20.8661 6.28995 20.6668L7.73178 18.8131L3.53798 15.5512L2.09615 17.405Z" fill="white"/>
</g>
<defs>
<clipPath id="clip0_66_935">
<rect width="24" height="24" fill="white"/>
</clipPath>
</defs>
</svg>
