<svg width="24" height="24" viewBox="0 0 24 24" fill="none" xmlns="http://www.w3.org/2000/svg">
<g clip-path="url(#clip0_101_367)">
<circle cx="12" cy="12" r="11.5" fill="#055C9D" stroke="white"/>
<path d="M8.8841 18.3618C7.40358 18.3618 5.86655 18.0437 5 17.4436V18.8118C5 19.3735 6.47564 20.1514 8.8841 20.1514C9.48343 20.1514 10.0269 20.1047 10.5007 20.0203C10.1916 19.5053 9.98508 18.9284 9.90065 18.3102C9.56366 18.343 9.22179 18.3618 8.8841 18.3618Z" fill="white"/>
<path d="M8.8841 17.6585C9.23086 17.6585 9.55878 17.6446 9.86298 17.6118C9.88182 16.9511 10.0409 16.328 10.3179 15.7657C9.84903 15.8361 9.36203 15.8689 8.8841 15.8689C7.40358 15.8689 5.86655 15.5501 5 14.9508V16.3189C5 16.8813 6.47564 17.6585 8.8841 17.6585Z" fill="white"/>
<path d="M8.8841 15.1663C9.62437 15.1663 10.2711 15.091 10.8188 14.9745C11.3205 14.3375 11.9903 13.8407 12.7682 13.5505V12.4586C11.9017 13.0579 10.3646 13.3767 8.8841 13.3767C7.40358 13.3767 5.86655 13.0579 5 12.4586V13.8268C5 14.3884 6.47564 15.1663 8.8841 15.1663Z" fill="white"/>
<path d="M8.8841 12.6792C11.0292 12.6792 12.7682 12.0794 12.7682 11.3396C12.7682 10.5998 11.0292 10 8.8841 10C6.73897 10 5 10.5998 5 11.3396C5 12.0794 6.73897 12.6792 8.8841 12.6792Z" fill="white"/>
<path d="M14.3164 13.9768C12.2484 13.9768 10.5663 15.6589 10.5663 17.7262C10.5663 19.7935 12.2484 21.4757 14.3164 21.4757C16.3844 21.4757 18.0659 19.7935 18.0659 17.7262C18.0659 15.6589 16.3837 13.9768 14.3164 13.9768Z" fill="white"/>
<path d="M12.0666 8.89501C12.1153 9.0217 12.1907 9.14047 12.2929 9.24264C12.5036 9.45333 12.7849 9.55035 13.0606 9.5337C13.3364 9.55036 13.6177 9.45334 13.8284 9.24264C13.9306 9.14047 14.006 9.0217 14.0547 8.895L17.2426 5.70711C17.6332 5.31658 17.6332 4.68342 17.2426 4.29289C16.8521 3.90237 16.219 3.90237 15.8284 4.29289L13.0607 7.06066L10.2929 4.2929C9.90237 3.90237 9.2692 3.90237 8.87868 4.2929C8.87027 4.30131 8.86204 4.30983 8.85399 4.31846C8.84536 4.32651 8.83684 4.33474 8.82843 4.34315L5.29289 7.87868C4.90237 8.26921 4.90237 8.90237 5.29289 9.2929C5.68342 9.68342 6.31658 9.68342 6.70711 9.2929L9.58579 6.41422L12.0666 8.89501Z" fill="white"/>
</g>
<defs>
<clipPath id="clip0_101_367">
<rect width="24" height="24" fill="white"/>
</clipPath>
</defs>
</svg>
