<svg width="24" height="24" viewBox="0 0 24 24" fill="none" xmlns="http://www.w3.org/2000/svg">
<g clip-path="url(#clip0_241_763)">
<circle cx="12" cy="12" r="11.5" fill="#C26DBC" stroke="white"/>
<path fill-rule="evenodd" clip-rule="evenodd" d="M8.80743 3.94255L6 6.7742L6.00052 15.9191C6.00024 18.725 8.22684 21 10.9736 21C13.7202 21 15.9467 18.7255 15.9467 15.9196V6.7742H15.9024L13.3897 4.03384C12.7848 3.37426 11.9397 3 11.055 3C10.2136 3 9.40614 3.33863 8.80743 3.94255ZM10.9734 5.41942C11.2611 5.41942 11.4944 5.18119 11.4944 4.88717C11.4944 4.59329 11.2611 4.35492 10.9734 4.35492C10.6856 4.35492 10.4523 4.59329 10.4523 4.88717C10.4523 5.18119 10.6856 5.41942 10.9734 5.41942ZM8.46299 10.0646H13.0101C13.4286 10.0646 13.7679 10.4113 13.7679 10.8388C13.7679 11.2664 13.4286 11.613 13.0101 11.613H8.46299C8.04446 11.613 7.70516 11.2664 7.70516 10.8388C7.70516 10.4113 8.04446 10.0646 8.46299 10.0646ZM13.0101 16.0646H8.46299C8.04446 16.0646 7.70516 16.4113 7.70516 16.8388C7.70516 17.2664 8.04446 17.613 8.46299 17.613H13.0101C13.4286 17.613 13.7679 17.2664 13.7679 16.8388C13.7679 16.4113 13.4286 16.0646 13.0101 16.0646ZM8.48021 13.047C8.06168 13.047 7.72238 13.3936 7.72238 13.8212C7.72238 14.2487 8.06168 14.5954 8.48021 14.5954H13.0273C13.4458 14.5954 13.7851 14.2487 13.7851 13.8212C13.7851 13.3936 13.4458 13.047 13.0273 13.047H8.48021Z" fill="white"/>
<path d="M19 9.0194L16.7105 9.0194L16.7105 15.1301L19 15.1301L19 9.0194Z" fill="white"/>
<path d="M16.7142 8.48915L16.7142 7.34517C16.7142 7.04618 16.9496 6.80568 17.2359 6.81217L18.4703 6.81218C18.7629 6.81218 18.9984 7.05268 18.992 7.34518L18.992 8.48915C18.6675 8.48268 17.1596 8.48915 16.7142 8.48915Z" fill="white"/>
<path d="M17.8531 17.7274L17.2934 16.7316L16.7275 15.7295L17.8531 15.7359L18.9787 15.7295L18.4128 16.7316L17.8531 17.7274Z" fill="white"/>
</g>
<defs>
<clipPath id="clip0_241_763">
<rect width="24" height="24" fill="white"/>
</clipPath>
</defs>
</svg>
