<svg width="24" height="24" viewBox="0 0 24 24" fill="none" xmlns="http://www.w3.org/2000/svg">
<g clip-path="url(#clip0_241_911)">
<circle cx="12" cy="12" r="11.5" fill="#C26DBC" stroke="white"/>
<path fill-rule="evenodd" clip-rule="evenodd" d="M12.3333 2C9.46398 2 6.91655 3.81465 6.00918 6.50498C5.10181 9.19531 6.03811 12.1576 8.33359 13.8592C9.3893 14.892 9.88439 16.3599 9.66684 17.8122H14.9998C14.7823 16.3599 15.2774 14.892 16.3331 13.8592C18.6286 12.1576 19.5648 9.19531 18.6575 6.50498C17.7501 3.81465 15.2027 2 12.3333 2ZM11.5276 11.9442V12.5991H13.8123V12.0681C13.8123 11.714 13.8842 11.4279 14.0279 11.2096C14.1774 10.9913 14.5279 10.6727 15.0798 10.2538C15.8844 9.66377 16.4306 9.13278 16.7179 8.66074C17.0053 8.1887 17.149 7.62824 17.149 6.97917C17.149 6.00562 16.7983 5.22685 16.0971 4.64268C15.4017 4.0586 14.4619 3.76651 13.2778 3.76651C11.8408 3.76651 10.4815 4.1353 9.19969 4.87279L10.1395 6.81102C11.243 6.2328 12.2259 5.94365 13.0881 5.94365C13.5824 5.94365 13.9675 6.04397 14.2434 6.24461C14.5194 6.44516 14.6573 6.73725 14.6573 7.12077C14.6573 7.46302 14.5596 7.77277 14.3642 8.05003C14.1745 8.32737 13.7779 8.68728 13.1743 9.12976C12.5479 9.6018 12.1167 10.0473 11.8811 10.4662C11.6454 10.8851 11.5276 11.3777 11.5276 11.9442ZM11.3637 14.3149C11.0987 14.5756 10.9662 14.9604 10.9662 15.4697C10.9662 15.9606 11.1017 16.3425 11.3725 16.6153C11.6434 16.882 12.0261 17.0154 12.5207 17.0154C13.0035 17.0154 13.3804 16.879 13.6513 16.6062C13.9221 16.3274 14.0576 15.9485 14.0576 15.4697C14.0576 14.9726 13.9221 14.5907 13.6513 14.324C13.3863 14.0573 13.0094 13.924 12.5207 13.924C12.0144 13.924 11.6286 14.0543 11.3637 14.3149Z" fill="white"/>
<path d="M12 22C12.5523 22 13 21.5523 13 21C13 20.4477 12.5523 20 12 20C11.4477 20 11 20.4477 11 21C11 21.5523 11.4477 22 12 22Z" fill="white"/>
<path d="M9 19H15" stroke="white" stroke-linecap="round" stroke-linejoin="round"/>
<path d="M9 20.5H15" stroke="white" stroke-linecap="round" stroke-linejoin="round"/>
</g>
<defs>
<clipPath id="clip0_241_911">
<rect width="24" height="24" fill="white"/>
</clipPath>
</defs>
</svg>
