<svg width="24" height="24" viewBox="0 0 24 24" fill="none" xmlns="http://www.w3.org/2000/svg">
<g clip-path="url(#clip0_64_359)">
<rect x="0.5" y="0.5" width="23" height="23" rx="3.5" fill="#36714D" stroke="white"/>
<path fill-rule="evenodd" clip-rule="evenodd" d="M13 4V3H11V4H10V5.28988C7.10851 6.15043 5 8.82898 5 12C5 13.3197 5.36518 14.554 6 15.6076V20H7V16.899C8.05028 17.9708 9.44244 18.7063 11 18.9291V20H12V19C13.9587 19 15.7295 18.1955 17 16.899V20H18V15.6076C18.6348 14.554 19 13.3197 19 12C19 8.82898 16.8915 6.15043 14 5.28988V4H13ZM12.6032 17H11.4808C9.82559 17 8.40411 15.8651 8.1028 14.2994C7.95506 13.5304 7.94094 12.6701 8.23236 11.82C8.25884 11.7426 8.3734 11.7406 8.40447 11.8163C8.5395 12.144 8.83781 12.7399 9.31634 13.033C9.74686 13.2968 9.80211 13.0358 9.5993 12.3006C9.40707 11.6044 9.03215 9.98378 9.47944 8.91936C9.50874 8.84923 9.61306 8.85313 9.64731 8.92106C10.003 9.62479 10.4245 10.1244 10.8171 10.416C10.8171 10.416 10.6799 8.26386 12.1302 7.02147C12.1921 6.96849 12.2911 7.02079 12.2786 7.09959C12.178 7.73641 12.304 8.55527 12.5949 9.14386C13.1494 10.2662 12.9819 10.9139 12.9819 10.9139C12.9819 10.9139 13.8159 10.2906 13.6032 9.05199C13.5885 8.96759 13.6962 8.91376 13.758 8.97523C14.3689 9.58097 14.9849 10.5693 14.458 12.0858C13.991 13.4299 14.2227 13.7356 14.5751 13.4484C14.8518 13.2229 15.2492 12.8152 15.3021 11.9727C15.3076 11.8859 15.4255 11.8596 15.4719 11.9341C15.766 12.4056 15.9235 12.9227 15.9814 13.4474C16.1916 15.3528 14.5948 17 12.6032 17Z" fill="white"/>
</g>
<defs>
<clipPath id="clip0_64_359">
<rect width="24" height="24" fill="white"/>
</clipPath>
</defs>
</svg>
