<svg width="24" height="24" viewBox="0 0 24 24" fill="none" xmlns="http://www.w3.org/2000/svg">
<g clip-path="url(#clip0_66_530)">
<circle cx="12" cy="12" r="11.5" fill="#4453D9" stroke="white"/>
<path d="M11.9996 2C6.4855 2 2 6.4855 2 11.9996C2 17.5136 6.4855 21.9991 11.9996 21.9991C17.5136 21.9991 21.9991 17.5136 21.9991 11.9996C21.9991 6.4855 17.5136 2 11.9996 2ZM17.2295 16.0562C17.2178 16.0607 15.9294 16.8959 14.6168 17.0928C14.5466 17.1036 14.499 17.1306 14.3731 17.207C14.0315 17.4138 13.1225 17.964 12.2396 17.7806C11.9843 17.7276 11.782 17.6889 11.6237 17.6584C11.5887 17.6512 11.5554 17.6449 11.5248 17.6395L11.8638 17.3059C11.9303 17.2169 11.951 17.1081 11.9195 17.0074C11.889 16.9094 11.8125 16.8303 11.7136 16.7961C10.125 16.2468 9.15666 15.3972 8.81412 15.0573C8.59564 14.8406 8.31153 15.0393 8.1425 15.1589C8.10564 15.185 8.06968 15.2102 8.03641 15.2308C7.5608 15.5221 6.34255 16.1182 5.73387 16.3214C5.81119 16.2036 5.9029 16.0832 5.9964 15.9591C6.3911 15.4385 6.882 14.7912 6.54754 13.9182C6.51877 13.8436 6.44594 13.7159 6.2958 13.457C6.1924 13.278 6.06653 13.0614 5.94695 12.8411L5.92987 12.8105C5.87773 12.7125 5.82108 12.6055 5.76894 12.5003C5.68622 12.3367 5.62688 12.1812 5.59631 12.0706C5.61519 12.0796 5.63587 12.0904 5.65835 12.1029C5.8076 12.1964 6.01439 12.3493 6.25893 12.548C6.84334 13.0236 7.98876 13.697 8.03731 13.7258C8.19105 13.8265 8.45718 13.8975 8.66397 13.7402C8.79254 13.6422 8.93279 13.5307 9.08384 13.4093C9.73747 12.8869 10.5502 12.236 11.5725 11.8368C11.6687 11.8 11.737 11.7235 11.7604 11.6291C11.7838 11.5329 11.2893 10.6923 11.2893 10.6923C12.2027 10.4028 12.9049 10.918 13.2637 11.0726L13.7707 11.292C13.8463 11.3252 13.9308 11.3621 14.0728 11.3837L14.1007 11.3864C16.7134 11.4952 18.4037 13.8355 18.4037 14.6213C18.4037 15.1212 18.2212 15.4817 17.2295 16.0562ZM18.9359 8.9238C18.5583 8.89503 18.2032 8.7332 17.938 8.46797C17.6116 8.14161 17.1773 7.95999 16.7143 7.95729H16.7062C16.2432 7.95999 15.8089 8.14161 15.4826 8.46797C15.1877 8.76287 14.7975 8.9265 14.3812 8.931H14.3569C14.3506 8.931 14.3434 8.931 14.3372 8.931C13.9191 8.9283 13.5271 8.76377 13.2313 8.46797C12.9031 8.13981 12.4671 7.95909 11.9978 7.95729C11.5329 7.95909 11.0969 8.14071 10.7687 8.46797C10.4729 8.76377 10.08 8.9283 9.66105 8.931C9.65565 8.931 9.65116 8.931 9.64576 8.931H9.62419C9.55675 8.9301 9.48213 8.9229 9.39582 8.90942C9.38233 8.90762 9.36795 8.90582 9.35446 8.90402C9.34817 8.90312 9.34277 8.90223 9.33648 8.90133C9.32839 8.89953 9.3203 8.89773 9.31131 8.89593C9.00832 8.833 8.7341 8.68555 8.51652 8.46797C8.19016 8.14161 7.7559 7.95999 7.29287 7.95729H7.28478C6.82176 7.95999 6.3875 8.14161 6.06114 8.46797C5.76624 8.76287 5.37604 8.9265 4.95977 8.931H4.93549C4.9292 8.931 4.92201 8.931 4.91571 8.931C4.5336 8.9283 4.17397 8.79074 3.88896 8.5417C5.23668 5.39312 8.36458 3.18229 11.9996 3.18229C15.6345 3.18229 18.7624 5.39312 20.1101 8.5417C19.8224 8.79344 19.4574 8.931 19.0717 8.931C19.0285 8.931 18.9809 8.9274 18.9359 8.9238Z" fill="white"/>
</g>
<defs>
<clipPath id="clip0_66_530">
<rect width="24" height="24" fill="white"/>
</clipPath>
</defs>
</svg>
