<svg width="24" height="24" viewBox="0 0 24 24" fill="none" xmlns="http://www.w3.org/2000/svg">
<g clip-path="url(#clip0_66_523)">
<circle cx="12" cy="12" r="11.5" fill="#4453D9" stroke="white"/>
<path d="M21.7237 12.7326C21.092 12.7326 20.8268 12.2881 20.8083 12.2554C20.7614 12.1639 20.6698 12.1065 20.5668 12.1058C20.4641 12.1054 20.3716 12.1621 20.3235 12.2533C20.3051 12.285 20.0361 12.7329 19.4385 12.7329C19.1806 12.7329 18.9412 12.6515 18.7278 12.4907C18.5667 12.3692 18.4779 12.2443 18.471 12.2338C18.4226 12.159 18.3422 12.1134 18.2534 12.1092C18.164 12.1051 18.0794 12.1458 18.0241 12.2161C18.0199 12.2213 17.604 12.7329 17.0907 12.7329C16.5644 12.7329 16.1221 12.2965 16.1078 12.2819C16.0563 12.2276 15.9853 12.2043 15.9105 12.2043C15.9098 12.2043 15.9091 12.2043 15.9084 12.2043C15.8339 12.2043 15.7633 12.2269 15.7114 12.2805C15.5103 12.4869 15.3021 12.6222 15.0926 12.6908C14.9353 12.7423 14.8205 12.7371 14.7651 12.7354C14.7529 12.735 14.7428 12.7336 14.7352 12.7336C14.5828 12.7336 14.4595 12.8565 14.4595 13.0089C14.4595 13.1613 14.5831 13.2846 14.7352 13.2846C14.739 13.2846 14.7439 13.2846 14.7495 13.2849C14.7651 13.2852 14.7853 13.2859 14.809 13.2859C14.9054 13.2859 15.0648 13.2765 15.2642 13.2115C15.4894 13.1377 15.7076 13.012 15.9154 12.8363C16.1548 13.0225 16.5829 13.2846 17.091 13.2846C17.5894 13.2846 17.9952 13.0047 18.2322 12.7917C18.4605 13.0082 18.8642 13.2846 19.4392 13.2846C19.9832 13.2846 20.35 13.0388 20.5661 12.8255C20.7843 13.0392 21.1581 13.2846 21.7244 13.2846C21.8768 13.2846 22 13.161 22 13.0089C21.9993 12.8561 21.8758 12.7326 21.7237 12.7326Z" fill="white"/>
<path d="M9.26412 12.7326C8.63244 12.7326 8.36724 12.2881 8.3488 12.2554C8.30181 12.1639 8.21028 12.1065 8.10726 12.1058C8.00459 12.1054 7.91202 12.1621 7.86399 12.2533C7.84554 12.285 7.57651 12.7329 6.97894 12.7329C6.72105 12.7329 6.48161 12.6515 6.26826 12.4907C6.10712 12.3692 6.01838 12.2443 6.01142 12.2338C5.96304 12.159 5.88264 12.1134 5.7939 12.1092C5.70445 12.1051 5.61988 12.1458 5.56454 12.2161C5.56037 12.2213 5.14447 12.7329 4.63112 12.7329C4.1049 12.7329 3.66255 12.2965 3.64828 12.2819C3.59677 12.2276 3.52577 12.2043 3.45095 12.2043C3.45025 12.2043 3.44955 12.2043 3.44886 12.2043C3.37438 12.2043 3.30373 12.2269 3.25187 12.2805C3.05071 12.4869 2.84259 12.6222 2.63307 12.6908C2.47576 12.7423 2.36091 12.7371 2.30557 12.7354C2.29339 12.735 2.2833 12.7336 2.27564 12.7336C2.1232 12.7336 2 12.8565 2 13.0089C2 13.1613 2.12355 13.2846 2.27564 13.2846C2.27947 13.2846 2.28434 13.2846 2.28991 13.2849C2.30557 13.2852 2.32576 13.2859 2.34942 13.2859C2.44583 13.2859 2.60523 13.2765 2.80465 13.2115C3.02983 13.1377 3.24804 13.012 3.45582 12.8363C3.69526 13.0225 4.12334 13.2846 4.63147 13.2846C5.12985 13.2846 5.53566 13.0047 5.77267 12.7917C6.00097 13.0082 6.40469 13.2846 6.97964 13.2846C7.52361 13.2846 7.89044 13.0388 8.10657 12.8255C8.32478 13.0392 8.69857 13.2846 9.26482 13.2846C9.41726 13.2846 9.54046 13.161 9.54046 13.0089C9.53976 12.8561 9.41621 12.7326 9.26412 12.7326Z" fill="white"/>
<path d="M10.7561 9.18508C10.8129 9.07719 10.9225 9.01002 11.0443 9.01037C11.1661 9.01107 11.2747 9.07928 11.3304 9.18752C11.3527 9.2265 11.6662 9.75272 12.4145 9.75272C12.4218 9.75272 12.4288 9.75342 12.4361 9.75377C12.5064 9.75551 12.6348 9.75446 12.8071 9.69808C12.9773 9.6424 13.1464 9.54634 13.3128 9.41339V7.47103H11.7466V7.12299H13.3128V5H10.4241V9.53242C10.6385 9.38207 10.744 9.20631 10.7561 9.18508Z" fill="white"/>
<path d="M16.5244 10.4488C16.7948 10.7053 17.273 11.0324 17.9538 11.0324C18.598 11.0324 19.0323 10.7415 19.2881 10.4888C19.5467 10.7418 19.9894 11.0324 20.6597 11.0324C20.84 11.0324 20.9862 10.8863 20.9862 10.706C20.9862 10.5257 20.84 10.3795 20.6597 10.3795C19.9118 10.3795 19.5979 9.85331 19.5756 9.81433C19.5199 9.70609 19.4117 9.63787 19.2899 9.63718C19.1681 9.63683 19.0588 9.704 19.0017 9.81189C18.9801 9.84948 18.6613 10.3795 17.9538 10.3795C17.6482 10.3795 17.3653 10.2831 17.1119 10.0928C16.9208 9.94901 16.8161 9.8011 16.8074 9.78857C16.7503 9.70017 16.6549 9.64623 16.5498 9.64101C16.444 9.63613 16.3438 9.68416 16.2784 9.76734C16.2735 9.77361 15.781 10.3795 15.173 10.3795C14.55 10.3795 14.0259 9.85261 14.0088 9.83556C13.9479 9.77117 13.8637 9.73358 13.775 9.73358C13.7743 9.73358 13.7732 9.73358 13.7725 9.73358C13.6845 9.73358 13.6006 9.77082 13.5393 9.83382C13.3013 10.0781 13.0549 10.2438 12.8067 10.3249C12.6345 10.3813 12.506 10.3823 12.4357 10.3806C12.4288 10.3802 12.4215 10.3795 12.4142 10.3795C11.6662 10.3795 11.3523 9.85331 11.33 9.81433C11.2744 9.70609 11.1658 9.63787 11.044 9.63718C10.9221 9.63683 10.8129 9.704 10.7558 9.81189C10.7342 9.84948 10.4154 10.3795 9.70786 10.3795C9.40229 10.3795 9.11899 10.2831 8.86597 10.0928C8.6749 9.94901 8.57014 9.8011 8.56144 9.78857C8.50437 9.70017 8.40901 9.64623 8.3039 9.64101C8.1981 9.63613 8.09787 9.68416 8.03244 9.76734C8.02756 9.77361 7.5351 10.3795 6.92709 10.3795C6.30411 10.3795 5.77997 9.85261 5.76327 9.83556C5.70236 9.77117 5.61814 9.73358 5.52939 9.73358C5.52869 9.73358 5.52765 9.73358 5.52695 9.73358C5.4389 9.73358 5.35503 9.77082 5.29377 9.83382C5.05572 10.0781 4.80931 10.2438 4.56082 10.3249C4.37462 10.3858 4.23854 10.382 4.17311 10.3802C4.15884 10.3799 4.14701 10.3795 4.13761 10.3795C3.95733 10.3795 3.81116 10.5257 3.81116 10.7063C3.81116 10.887 3.95733 11.0328 4.13761 11.0328C4.14214 11.0328 4.1477 11.0331 4.15466 11.0331C4.17346 11.0338 4.19678 11.0345 4.22532 11.0345C4.33947 11.0345 4.52845 11.0234 4.76442 10.9461C5.03101 10.8591 5.28925 10.7102 5.53566 10.502C5.8193 10.7223 6.32604 11.0328 6.92778 11.0328C7.5177 11.0328 7.99868 10.7015 8.27919 10.4491C8.54961 10.7056 9.02781 11.0328 9.70856 11.0328C9.9849 11.0328 10.2226 10.9792 10.4241 10.8977V19.5129H13.3128V17.3899H11.7466V17.0419H13.3128V14.9189H11.7466V14.5709H13.3128V12.4479H11.7466V12.0999H13.3128V10.8184C13.4729 10.7356 13.6295 10.6301 13.7812 10.5017C14.0649 10.722 14.5716 11.0324 15.1734 11.0324C15.7633 11.0324 16.2439 10.7011 16.5244 10.4488Z" fill="white"/>
</g>
<defs>
<clipPath id="clip0_66_523">
<rect width="24" height="24" fill="white"/>
</clipPath>
</defs>
</svg>
