<svg width="24" height="24" viewBox="0 0 24 24" fill="none" xmlns="http://www.w3.org/2000/svg">
<g clip-path="url(#clip0_64_363)">
<rect x="0.5" y="0.5" width="23" height="23" rx="9.5" fill="#0054DE" stroke="white"/>
<path d="M10.5988 16.0315C10.8674 16.1316 11.1686 15.9853 11.2291 15.723C11.2765 15.5174 11.1561 15.3117 10.9455 15.233C10.4251 15.0383 10.0286 14.6658 9.7642 14.1219C9.64236 13.8711 9.57038 13.6269 9.52842 13.4373C9.48306 13.2331 9.28584 13.0894 9.06199 13.0948L9.0592 13.095L9.0513 13.0953L9.05022 13.0954C8.76599 13.1086 8.56134 13.3537 8.61892 13.6122C8.67094 13.8458 8.75794 14.1401 8.90315 14.4457C9.26649 15.2106 9.84686 15.751 10.5988 16.0315Z" fill="white"/>
<path fill-rule="evenodd" clip-rule="evenodd" d="M13 4V3H11V4H10V5.28988C7.10851 6.15043 5 8.82898 5 12C5 13.3197 5.36518 14.554 6 15.6076V20H7V16.899C8.05028 17.9708 9.44244 18.7063 11 18.9291V20H12V19C13.9587 19 15.7295 18.1955 17 16.899V20H18V15.6076C18.6348 14.554 19 13.3197 19 12C19 8.82898 16.8915 6.15043 14 5.28988V4H13ZM12.7589 7.30158C13.4162 8.415 14.3423 9.98372 15.1102 10.9321C16.5344 12.4815 16.1497 14.5743 14.6599 15.9536C13.1547 17.3488 10.6961 17.3488 9.19342 15.9536C8.40111 15.2214 8 14.2662 8 13.3107C8 12.4663 8.31333 11.6216 8.94665 10.9303C9.82121 9.91195 10.728 8.17608 11.3115 7.05923C11.6391 6.43199 11.8648 6 11.9255 6C11.9905 6 12.3128 6.54594 12.7589 7.30158Z" fill="white"/>
</g>
<defs>
<clipPath id="clip0_64_363">
<rect width="24" height="24" fill="white"/>
</clipPath>
</defs>
</svg>
