<svg width="24" height="24" viewBox="0 0 24 24" fill="none" xmlns="http://www.w3.org/2000/svg">
<g clip-path="url(#clip0_66_533)">
<circle cx="12" cy="12" r="11.5" fill="#4453D9" stroke="white"/>
<path d="M15.1353 7.11742C14.5629 7.11742 14.3229 6.69566 14.3061 6.66415C14.2633 6.57738 14.1804 6.52256 14.0872 6.52212C13.994 6.52169 13.9102 6.57565 13.8666 6.66199C13.8498 6.69221 13.6063 7.11699 13.0645 7.11699C12.831 7.11699 12.6139 7.03972 12.4205 6.8869C12.2745 6.77164 12.1943 6.65292 12.1878 6.643C12.1442 6.57177 12.0712 6.52903 11.9905 6.52471C11.9093 6.52083 11.8329 6.55925 11.7829 6.62616C11.7794 6.63091 11.4021 7.11699 10.9372 7.11699C10.4606 7.11699 10.0596 6.6866 10.0466 6.67278C9.99999 6.62098 9.93567 6.58256 9.86747 6.58256C9.8666 6.58256 9.86617 6.58256 9.86574 6.58256C9.7984 6.58256 9.73408 6.62055 9.68702 6.67106C9.50485 6.86704 9.3162 7.00389 9.12626 7.06864C8.98381 7.11742 8.87977 7.11656 8.82969 7.11526C8.8189 7.11483 8.80984 7.11569 8.8025 7.11569C8.66436 7.11569 8.55255 7.23354 8.55255 7.37816C8.55255 7.52277 8.66436 7.64019 8.8025 7.64019C8.80595 7.64019 8.81027 7.64062 8.81545 7.64062C8.82969 7.64105 8.84782 7.64149 8.86941 7.64149C8.95661 7.64149 9.10122 7.63242 9.2821 7.57069C9.48586 7.50076 9.68357 7.38161 9.87221 7.21455C10.0894 7.39111 10.477 7.64019 10.9376 7.64019C11.3892 7.64019 11.757 7.3747 11.9715 7.17267C12.1783 7.37816 12.5443 7.64019 13.0654 7.64019C13.5584 7.64019 13.8908 7.40708 14.0863 7.20462C14.284 7.40751 14.6229 7.64019 15.1358 7.64019C15.2739 7.64019 15.3857 7.5232 15.3857 7.37859C15.3853 7.23484 15.273 7.11742 15.1353 7.11742Z" fill="white"/>
<path d="M15.1353 9.86251C14.5629 9.86251 14.3229 9.44075 14.3061 9.40924C14.2633 9.32247 14.1804 9.26764 14.0872 9.26721C13.994 9.26678 13.9102 9.32074 13.8666 9.40708C13.8498 9.4373 13.6063 9.86208 13.0645 9.86208C12.831 9.86208 12.6139 9.7848 12.4205 9.63199C12.2745 9.51673 12.1943 9.39801 12.1878 9.38808C12.1442 9.31729 12.0712 9.27369 11.9905 9.2698C11.9093 9.26592 11.8329 9.30434 11.7829 9.37125C11.7794 9.376 11.4021 9.86208 10.9372 9.86208C10.4606 9.86208 10.0596 9.41873 10.0466 9.40492C9.99999 9.35312 9.93567 9.30218 9.86747 9.30218C9.8666 9.30218 9.86617 9.30218 9.86574 9.30218C9.7984 9.30218 9.73408 9.35312 9.68702 9.40363C9.50485 9.59961 9.3162 9.74293 9.12626 9.80768C8.98381 9.85646 8.87977 9.85862 8.82969 9.85733C8.8189 9.8569 8.80984 9.85949 8.8025 9.85949C8.66436 9.85949 8.55255 9.9782 8.55255 10.1224C8.55255 10.2666 8.66436 10.3848 8.8025 10.3848C8.80595 10.3848 8.81027 10.3853 8.81545 10.3857C8.82969 10.3861 8.84782 10.387 8.86941 10.387C8.95661 10.387 9.10122 10.3779 9.2821 10.3162C9.48586 10.2463 9.68357 10.1271 9.87221 9.96007C10.0894 10.1366 10.477 10.3857 10.9376 10.3857C11.3892 10.3857 11.757 10.1202 11.9715 9.91819C12.1783 10.1237 12.5443 10.3857 13.0654 10.3857C13.5584 10.3857 13.8908 10.1526 14.0863 9.95014C14.284 10.153 14.6229 10.3857 15.1358 10.3857C15.2739 10.3857 15.3857 10.2687 15.3857 10.1241C15.3857 9.97949 15.273 9.86251 15.1353 9.86251Z" fill="white"/>
<path d="M15.1353 12.608C14.5629 12.608 14.3229 12.1863 14.3061 12.1552C14.2633 12.0684 14.1804 12.0136 14.0872 12.0132C13.994 12.0127 13.9102 12.0667 13.8666 12.153C13.8498 12.1832 13.6063 12.608 13.0645 12.608C12.831 12.608 12.6139 12.5308 12.4205 12.3779C12.2745 12.2627 12.1943 12.144 12.1878 12.134C12.1442 12.0632 12.0712 12.0201 11.9905 12.0158C11.9093 12.0119 11.8329 12.0503 11.7829 12.1172C11.7794 12.122 11.4021 12.608 10.9372 12.608C10.4606 12.608 10.0596 12.1949 10.0466 12.1811C9.99999 12.1293 9.93567 12.1086 9.86747 12.1086C9.8666 12.1086 9.86617 12.1086 9.86574 12.1086C9.7984 12.1086 9.73408 12.1289 9.68702 12.1798C9.50485 12.3758 9.3162 12.5036 9.12626 12.5687C8.98381 12.6175 8.87977 12.6123 8.82969 12.6106C8.8189 12.6102 8.80984 12.6089 8.8025 12.6089C8.66436 12.6089 8.55255 12.7254 8.55255 12.8701C8.55255 13.0147 8.66436 13.1317 8.8025 13.1317C8.80595 13.1317 8.81027 13.1317 8.81545 13.1317C8.82969 13.1321 8.84782 13.1325 8.86941 13.1325C8.95661 13.1325 9.10122 13.1235 9.2821 13.0617C9.48586 12.9918 9.68357 12.8727 9.87221 12.7056C10.0894 12.8821 10.477 13.1312 10.9376 13.1312C11.3892 13.1312 11.757 12.8657 11.9715 12.6637C12.1783 12.8692 12.5443 13.1312 13.0654 13.1312C13.5584 13.1312 13.8908 12.8981 14.0863 12.6957C14.284 12.8986 14.6229 13.1312 15.1358 13.1312C15.2739 13.1312 15.3857 13.0142 15.3857 12.8696C15.3853 12.725 15.273 12.608 15.1353 12.608Z" fill="white"/>
<path d="M5.58817 9.51845H7.92704V3H6.7766L5.58817 9.51845Z" fill="white"/>
<path d="M2 18.0658L7.92705 23.0658V10.2092H4.5163L2 18.0658Z" fill="white"/>
<path d="M17.2234 3H16.0859V9.51845H18.4118L17.2234 3Z" fill="white"/>
<path d="M19.4837 10.2092H16.0859V23.0658L22 18.0658L19.4837 10.2092Z" fill="white"/>
</g>
<defs>
<clipPath id="clip0_66_533">
<rect width="24" height="24" fill="white"/>
</clipPath>
</defs>
</svg>
