<svg width="24" height="24" viewBox="0 0 24 24" fill="none" xmlns="http://www.w3.org/2000/svg">
<g clip-path="url(#clip0_66_520)">
<circle cx="12" cy="12" r="11.5" fill="#4453D9" stroke="white"/>
<path fill-rule="evenodd" clip-rule="evenodd" d="M9.06459 5.62253C8.99534 5.94244 8.92559 6.26463 8.74567 6.53879C8.24111 7.30614 7.18042 7.55322 6.07252 7.8113C4.7461 8.12029 3.35202 8.44504 2.76367 9.69724C1.49336 12.3822 1.7301 16.0488 4.06285 17.96C6.78247 20.1831 9.9005 20.1253 13.2495 19.8886C13.7216 19.8554 14.1916 19.846 14.6608 19.8366C15.9074 19.8117 17.1488 19.7868 18.4116 19.3169C20.1496 18.6702 21.443 17.2325 21.7894 16.4472C22.1359 15.6561 21.9627 14.611 21.3679 14.0567C20.1019 12.8723 17.8316 12.3334 15.9856 11.8952C13.6558 11.3421 12.0019 10.9495 13.8962 9.62217C17.3434 7.50307 18.6714 5.67267 17.8746 4.13097C16.789 2.03496 10.4317 3.22444 9.39237 4.70261C9.20561 4.97109 9.13535 5.29562 9.06459 5.62253ZM9.51149 10.3753C10.3509 10.3753 11.0304 10.6655 11.0304 11.0234C11.0304 11.0401 11.0285 11.0578 11.0255 11.0744L9.7233 11.0234L10.4352 11.5383C10.1793 11.6216 9.8596 11.6716 9.51149 11.6716C8.6721 11.6716 7.99255 11.3814 7.99255 11.0234C7.99255 10.6655 8.67308 10.3753 9.51149 10.3753ZM2.92191 12.209C2.92191 11.6687 3.94761 11.2313 5.21355 11.2313C6.4795 11.2313 7.5052 11.6687 7.5052 12.209C7.5052 12.2345 7.50226 12.26 7.49735 12.2855L5.53225 12.209L6.60599 12.9856C6.21964 13.1121 5.73719 13.1876 5.21257 13.1876C3.94761 13.1866 2.92191 12.7483 2.92191 12.209ZM18.4983 16.3148C18.5345 16.3177 18.5823 16.3216 18.6339 16.3216C18.7957 16.3216 18.9262 16.1902 18.9222 16.0245C18.9222 15.8627 18.7908 15.7313 18.63 15.7313C18.6006 15.7313 18.5712 15.7293 18.5398 15.7264C18.2878 15.7077 18.0515 15.5989 17.874 15.4204C17.6818 15.2272 17.4249 15.1194 17.1474 15.1174C16.8738 15.1194 16.6169 15.2263 16.4247 15.4204C16.2276 15.6195 15.9648 15.7293 15.6853 15.7313H15.6627C15.3833 15.7293 15.1215 15.6195 14.9234 15.4204C14.7302 15.2263 14.4723 15.1184 14.1958 15.1174C13.9222 15.1184 13.6643 15.2263 13.4701 15.4214C13.273 15.6205 13.0102 15.7303 12.7308 15.7322H12.7131C12.667 15.7322 12.616 15.7273 12.5572 15.7185L12.5307 15.7146C12.5275 15.7146 12.5236 15.7139 12.519 15.7131L12.516 15.7126C12.5126 15.7113 12.5082 15.7104 12.5046 15.7096L12.5003 15.7087C12.2983 15.6665 12.115 15.5675 11.9698 15.4214C11.7776 15.2282 11.5207 15.1204 11.2432 15.1184C11.2393 15.1184 11.2354 15.1186 11.2314 15.1189C11.2275 15.1191 11.2236 15.1194 11.2197 15.1194L11.2129 15.1192L11.2079 15.1189L11.2013 15.1185L11.1961 15.1184C10.9226 15.1204 10.6666 15.2272 10.4735 15.4214C10.2764 15.6205 10.0136 15.7303 9.73408 15.7322H9.71153C9.43206 15.7303 9.17024 15.6205 8.97216 15.4214C8.77899 15.2272 8.52109 15.1194 8.24456 15.1184C7.97098 15.1194 7.71308 15.2263 7.51893 15.4214C7.32183 15.6205 7.05903 15.7303 6.77956 15.7322H6.76191C6.71582 15.7322 6.66483 15.7273 6.60599 15.7185L6.57952 15.7146C6.57707 15.7141 6.57462 15.7139 6.57217 15.7136C6.56971 15.7134 6.56726 15.7131 6.56481 15.7126C6.56089 15.7113 6.55653 15.7105 6.5529 15.7097L6.54814 15.7087C6.34614 15.6665 6.16277 15.5675 6.01764 15.4214C5.82544 15.2282 5.56853 15.1204 5.29102 15.1184C5.01744 15.1204 4.76052 15.2272 4.56832 15.4214C4.37122 15.6205 4.10843 15.7303 3.82896 15.7322C3.82013 15.7313 3.81131 15.7313 3.8015 15.7322C3.64559 15.7381 3.52105 15.8676 3.52105 16.0254C3.52105 16.1882 3.65245 16.3196 3.81327 16.3196H3.82307C4.2614 16.3196 4.67227 16.148 4.98213 15.8372C5.06548 15.7528 5.17727 15.7068 5.292 15.7058C5.41065 15.7068 5.52244 15.7538 5.60579 15.8372C5.83133 16.0647 6.11668 16.2186 6.42262 16.2824C6.42557 16.2828 6.43071 16.2841 6.43586 16.2853C6.44101 16.2865 6.44616 16.2878 6.4491 16.2882C6.46773 16.2922 6.48538 16.2951 6.50401 16.2971L6.51872 16.299C6.60894 16.3128 6.69131 16.3196 6.76877 16.3196H6.77466C7.21298 16.3196 7.62385 16.148 7.93372 15.8372C8.01707 15.7528 8.12885 15.7058 8.24653 15.7058C8.36518 15.7068 8.47795 15.7528 8.5613 15.8372C8.87116 16.148 9.28203 16.3196 9.72036 16.3196H9.73016C9.73405 16.3196 9.73819 16.3194 9.74232 16.3191C9.74649 16.3189 9.75075 16.3186 9.75468 16.3186C9.75664 16.3186 9.7586 16.3189 9.76056 16.3191C9.76252 16.3194 9.76448 16.3196 9.76644 16.3196H9.77625C10.2146 16.3196 10.6254 16.148 10.9353 15.8372C11.0128 15.7597 11.1148 15.7156 11.2216 15.7087C11.3315 15.7146 11.4344 15.7587 11.5119 15.8372C11.7874 16.1147 12.1552 16.2843 12.5445 16.3137C12.5807 16.3167 12.6291 16.3206 12.6808 16.3206C12.6847 16.3206 12.6886 16.3196 12.6925 16.3196C12.6968 16.3196 12.7014 16.3199 12.706 16.3201C12.7109 16.3203 12.716 16.3206 12.721 16.3206H12.7269C13.1652 16.3206 13.577 16.149 13.8859 15.8382C13.9693 15.7538 14.081 15.7068 14.1987 15.7068C14.3174 15.7077 14.4301 15.7538 14.5135 15.8382C14.8234 16.149 15.2342 16.3206 15.6726 16.3206H15.6824C16.1207 16.3206 16.5316 16.149 16.8414 15.8382C16.9248 15.7538 17.0366 15.7077 17.1513 15.7068C17.2699 15.7077 17.3817 15.7548 17.4651 15.8382C17.7406 16.1157 18.109 16.2854 18.4983 16.3148ZM18.6339 14.328C18.5888 14.328 18.5437 14.3251 18.4986 14.3212C18.1093 14.2918 17.7416 14.1221 17.4651 13.8446C17.3817 13.7613 17.2699 13.7142 17.1513 13.7132C17.0366 13.7142 16.9248 13.7603 16.8414 13.8446C16.5316 14.1555 16.1207 14.3271 15.6824 14.3271H15.6726C15.2352 14.3271 14.8234 14.1555 14.5135 13.8446C14.4301 13.7603 14.3174 13.7132 14.1987 13.7132C14.081 13.7132 13.9693 13.7603 13.8859 13.8446C13.576 14.1555 13.1652 14.3271 12.7269 14.3271H12.721C12.6435 14.3271 12.5611 14.3202 12.4709 14.3065L12.4562 14.3045C12.4376 14.3025 12.4199 14.2996 12.4013 14.2957L12.3948 14.2942C12.3893 14.293 12.3824 14.2914 12.3778 14.2908C12.0659 14.2251 11.7825 14.0711 11.558 13.8446C11.4746 13.7603 11.3628 13.7142 11.2442 13.7132C11.1295 13.7142 11.0177 13.7603 10.9343 13.8446C10.6245 14.1555 10.2126 14.3271 9.77527 14.3271H9.76546C9.60465 14.3271 9.47325 14.1957 9.47325 14.0339C9.47325 13.876 9.59778 13.7465 9.7537 13.7407C9.7635 13.7397 9.77233 13.7397 9.78213 13.7407C10.0616 13.7387 10.3244 13.6289 10.5225 13.4298C10.7157 13.2357 10.9716 13.1288 11.2452 13.1268C11.5227 13.1288 11.7786 13.2366 11.9718 13.4298C12.1169 13.5759 12.3003 13.675 12.5023 13.7171L12.5065 13.718C12.5102 13.7188 12.5146 13.7197 12.518 13.7211C12.5196 13.7213 12.5212 13.7215 12.5226 13.7217C12.5236 13.7218 12.5245 13.7219 12.5253 13.722C12.5281 13.7222 12.5305 13.7225 12.5327 13.723L12.5592 13.7269C12.618 13.7358 12.669 13.7407 12.7151 13.7407H12.7327C13.0122 13.7387 13.275 13.6289 13.4721 13.4298C13.6663 13.2347 13.9242 13.1278 14.1977 13.1268C14.4743 13.1278 14.7322 13.2357 14.9253 13.4298C15.1234 13.6289 15.3852 13.7387 15.6647 13.7407H15.6873C15.9667 13.7387 16.2295 13.6289 16.4266 13.4298C16.6198 13.2357 16.8757 13.1288 17.1493 13.1268C17.4268 13.1288 17.6828 13.2366 17.8759 13.4298C18.0534 13.6083 18.2898 13.7171 18.5418 13.7358C18.5731 13.7387 18.6026 13.7407 18.632 13.7407C18.7928 13.7407 18.9242 13.8721 18.9242 14.0348C18.9262 14.1966 18.7957 14.328 18.6339 14.328Z" fill="white"/>
</g>
<defs>
<clipPath id="clip0_66_520">
<rect width="24" height="24" fill="white"/>
</clipPath>
</defs>
</svg>
