<svg width="24" height="24" viewBox="0 0 24 24" fill="none" xmlns="http://www.w3.org/2000/svg">
<g clip-path="url(#clip0_241_946)">
<circle cx="12" cy="12" r="11.5" fill="#E56997" stroke="white"/>
<path d="M7.26025 18H19.7747C19.8991 17.9998 19.9998 17.9017 20 17.7806V14.7378L16.8752 10.3133L14.3581 14.1679C14.29 14.272 14.1736 14.3367 14.047 14.3411C13.9215 14.342 13.8025 14.2867 13.7243 14.1911L11.8402 11.7164L7.26025 18Z" fill="white"/>
<path fill-rule="evenodd" clip-rule="evenodd" d="M4 17.7802V7.2216C3.99937 7.10013 4.09975 7.00103 4.2245 7H19.7747C19.8993 7.00041 20 7.09884 20 7.2201V13.4138L17.1802 9.42078C17.1065 9.31754 16.9851 9.25659 16.856 9.25805C16.7267 9.26028 16.6073 9.32548 16.5379 9.43166L14.0096 13.3043L12.1424 10.8513C12.0697 10.7569 11.9556 10.7013 11.8344 10.7013H11.8309C11.7074 10.7025 11.5919 10.7613 11.5206 10.8595L6.31568 17.9996H4.22565C4.10127 17.9994 4.00043 17.9013 4 17.7802ZM7.26576 8.20057C6.16618 8.20071 5.27487 9.06876 5.27487 10.1395C5.27656 11.2099 6.16757 12.0774 7.26679 12.0784C8.36637 12.078 9.25745 11.2098 9.25717 10.139C9.25688 9.06826 8.36534 8.20043 7.26576 8.20057Z" fill="white"/>
</g>
<defs>
<clipPath id="clip0_241_946">
<rect width="24" height="24" fill="white"/>
</clipPath>
</defs>
</svg>
