<svg width="24" height="24" viewBox="0 0 24 24" fill="none" xmlns="http://www.w3.org/2000/svg">
<g clip-path="url(#clip0_148_219)">
<rect x="0.5" y="0.5" width="23" height="23" rx="3.5" fill="#891DAF" stroke="white"/>
<path fill-rule="evenodd" clip-rule="evenodd" d="M7.07579 5H8.54157C8.70906 5 8.84483 5.13839 8.84483 5.30911V5.39283C8.84483 5.47766 8.8113 5.55451 8.75702 5.61037C9.34937 5.81222 9.85627 6.19792 10.2093 6.69923C10.5439 7.17426 10.7402 7.7531 10.7402 8.37768C10.7402 8.62979 10.7082 8.87445 10.6481 9.10784C10.5033 9.05604 10.361 9.00574 10.2216 8.95715C8.82877 8.47169 7.05084 8.15821 4.90052 8.00649C5.04274 6.88703 5.81968 5.96498 6.86033 5.61037C6.80605 5.55451 6.77252 5.47766 6.77252 5.39283V5.30911C6.77252 5.13839 6.9083 5 7.07579 5ZM7.0043 8.7851C8.17847 8.95349 9.19204 9.18633 10.045 9.48362C10.3485 9.58941 10.6682 9.70441 10.9999 9.82595C11.4629 9.99557 11.9494 10.1779 12.4486 10.3659L12.818 10.505L12.818 10.505L13.1216 10.6194C15.094 11.3621 17.1849 12.1401 18.7595 12.5326C19.7811 12.7872 20.5861 12.9827 21.1746 13.119C21.5277 13.2007 21.8028 13.2612 22 13.3004V15.1733C22 16.1545 21.2502 16.9659 20.2893 17.0247L4.33038 18C4.50818 16.9559 4.87512 16.2908 5.43121 16.0046C5.66924 15.8996 5.62331 15.8714 5.43094 15.7533C5.0974 15.5487 4.32361 15.0738 3.82642 13.4599C3.30378 11.7634 3.02831 10.1012 3 8.47327C4.49537 8.51276 5.83014 8.61671 7.0043 8.7851ZM21.4859 9.96671L21.433 12.6081C20.8429 12.473 19.9963 12.2681 18.8892 11.9921C17.3487 11.6081 15.3218 10.8545 13.3767 10.1219C13.4954 9.8164 13.5606 9.48355 13.5606 9.13437C13.5606 8.92277 13.5366 8.71714 13.4912 8.51994C13.8855 8.6036 14.2318 8.81635 14.4836 9.11168V8.44047L15.1174 8.07501V6.63732H18.7565V8.07501L21.4859 9.96671ZM17.8973 7.3457H15.7492V7.82064H17.8973V7.3457ZM13.0147 9.13437C13.0147 9.41477 12.9613 9.68274 12.8641 9.9287C12.2801 9.70865 11.7083 9.4937 11.1644 9.29475C11.2437 9.00295 11.2861 8.69554 11.2861 8.37768C11.2861 7.6899 11.0877 7.05105 10.746 6.51336H11.1951C11.3626 6.51336 11.4984 6.65175 11.4984 6.82247V6.90619C11.4984 6.96074 11.4845 7.01199 11.4602 7.05648C12.085 7.24121 12.5924 7.69848 12.8436 8.29014C12.9469 8.53338 13.0069 8.79932 13.014 9.07838C13.0145 9.09699 13.0147 9.11565 13.0147 9.13437ZM8.87702 17H8.17548C7.14099 17 6.25257 16.2056 6.06425 15.1096C5.97191 14.5713 5.96309 13.9691 6.14523 13.374C6.16178 13.3198 6.23338 13.3184 6.25279 13.3714C6.33719 13.6008 6.52363 14.018 6.82271 14.2231C7.09179 14.4077 7.12632 14.225 6.99956 13.7104C6.87942 13.2231 6.6451 12.0886 6.92465 11.3436C6.94297 11.2945 7.00816 11.2972 7.02957 11.3447C7.25187 11.8374 7.51531 12.1871 7.76067 12.3912C7.76067 12.3912 7.67495 10.8847 8.58135 10.015C8.62008 9.97794 8.68197 10.0146 8.67413 10.0697C8.61125 10.5155 8.69002 11.0887 8.87183 11.5007C9.21835 12.2863 9.11366 12.7397 9.11366 12.7397C9.11366 12.7397 9.63493 12.3035 9.50199 11.4364C9.49283 11.3773 9.56013 11.3396 9.59874 11.3827C9.98057 11.8067 10.3656 12.4985 10.0363 13.5601C9.74437 14.5009 9.88922 14.7149 10.1094 14.5139C10.2824 14.356 10.5307 14.0706 10.5638 13.4809C10.5673 13.4201 10.641 13.4017 10.67 13.4539C10.8538 13.7839 10.9522 14.1459 10.9884 14.5132C11.1197 15.8469 10.1218 17 8.87702 17Z" fill="white"/>
</g>
<defs>
<clipPath id="clip0_148_219">
<rect width="24" height="24" fill="white"/>
</clipPath>
</defs>
</svg>
