<svg width="24" height="24" viewBox="0 0 24 24" fill="none" xmlns="http://www.w3.org/2000/svg">
<circle cx="12" cy="12" r="11.5" fill="#055C9D" stroke="white"/>
<path fill-rule="evenodd" clip-rule="evenodd" d="M18.9994 14.3329L19 17.6496C19 18.3954 18.3954 19 17.6496 19H6.35035C5.60457 19 5 18.3954 5 17.6496V14.3329L9.01643 14.3344C9.2146 14.7561 9.62452 15.0586 10.1092 15.1049L10.2392 15.1111H13.7608C14.3014 15.1111 14.7679 14.7933 14.9836 14.3344L18.9994 14.3329ZM15.024 17.488H16.5414C17.0075 17.488 17.3853 17.1101 17.3853 16.644V15.3787H16.5142V16.2167C16.5142 16.4497 16.3253 16.6387 16.0922 16.6387H15.024V16.116L14.0222 17.0566L15.024 17.9889V17.488ZM8.976 17.488H7.45864C6.99252 17.488 6.61466 17.1101 6.61466 16.644V15.3787H7.48578V16.2167C7.48578 16.4497 7.67471 16.6387 7.90776 16.6387H8.976V16.116L9.97778 17.0566L8.976 17.9889V17.488Z" fill="white"/>
<path d="M8.88872 12.3881V13.5552H5V12.3881H8.88872Z" fill="white"/>
<path d="M18.9994 12.3881V13.5552H15.1107V12.3881H18.9994Z" fill="white"/>
<path d="M8.88872 10.4442V11.6103H5V10.4442H8.88872Z" fill="white"/>
<path d="M18.9994 10.4442V11.6103H15.1107V10.4442H18.9994Z" fill="white"/>
<path fill-rule="evenodd" clip-rule="evenodd" d="M17.6496 5C18.3954 5 19 5.60457 19 6.35035L18.9994 9.66647L14.984 9.66658C14.7685 9.2071 14.3018 8.88889 13.7608 8.88889H10.2392C9.69819 8.88889 9.23145 9.2071 9.01598 9.66658L5 9.66647V6.35035C5 5.60457 5.60457 5 6.35035 5H17.6496ZM16.5414 6.512H15.024V6.01111L14.0222 6.94341L15.024 7.884V7.36133H16.0922C16.3253 7.36133 16.5142 7.55026 16.5142 7.78332V8.62133H17.3853V7.35597C17.3853 6.88986 17.0075 6.512 16.5414 6.512ZM7.45864 6.512H8.976V6.01111L9.97778 6.94341L8.976 7.884V7.36133H7.90776C7.67471 7.36133 7.48578 7.55026 7.48578 7.78332V8.62133H6.61466V7.35597C6.61466 6.88986 6.99252 6.512 7.45864 6.512Z" fill="white"/>
</svg>
