<svg width="24" height="24" viewBox="0 0 24 24" fill="none" xmlns="http://www.w3.org/2000/svg">
<g clip-path="url(#clip0_241_749)">
<circle cx="12" cy="12" r="11.5" fill="#FBC740" stroke="white"/>
<path d="M20.6916 7.34247C21.6169 8.94582 22.0678 10.779 21.9918 12.6285C21.9157 14.4782 21.316 16.2681 20.2623 17.7901L17.8538 16.1226C18.5916 15.0569 19.0116 13.8034 19.0649 12.5083C19.1181 11.2131 18.8024 9.92941 18.1544 8.8067L20.6916 7.34247Z" fill="white"/>
<path d="M7.14915 3.87747C8.73079 2.91556 10.5531 2.42265 12.4039 2.4561C14.2548 2.48956 16.0581 3.04801 17.6039 4.06645L15.9923 6.51265C14.9098 5.79949 13.647 5.40844 12.351 5.38501C11.0549 5.36158 9.77883 5.70674 8.67135 6.38032L7.14915 3.87747Z" fill="white"/>
<path d="M4.14333 17.7189C3.10314 16.1876 2.51925 14.3924 2.45963 12.5422C2.4 10.692 2.8671 8.86294 3.80655 7.26788L6.33067 8.75452C5.67283 9.87149 5.34574 11.1523 5.38749 12.4479C5.42924 13.7434 5.83811 15.0006 6.5665 16.0729L4.14333 17.7189Z" fill="white"/>
<path d="M17.3807 20.531C15.8078 21.5072 13.99 22.0165 12.1389 21.9998C10.2879 21.983 8.47961 21.4409 6.92463 20.4365L8.51411 17.9758C9.60296 18.6792 10.8692 19.0588 12.1654 19.0705C13.4616 19.0822 14.7345 18.7256 15.8359 18.042L17.3807 20.531Z" fill="white"/>
<path d="M10.9831 13.9228V13.5115C10.9831 13.1557 11.0597 12.8463 11.2131 12.5832C11.3665 12.3202 11.6471 12.0404 12.0548 11.7439C12.4476 11.466 12.7058 11.24 12.8292 11.0658C12.9564 10.8917 13.02 10.6971 13.02 10.4822C13.02 10.2413 12.9302 10.0579 12.7507 9.93193C12.5711 9.80592 12.3204 9.74292 11.9987 9.74292C11.4375 9.74292 10.7978 9.92452 10.0796 10.2877L9.46794 9.07038C10.3022 8.60721 11.1869 8.3756 12.1222 8.3756C12.8928 8.3756 13.5045 8.55904 13.9571 8.92586C14.4135 9.29274 14.6417 9.78184 14.6417 10.3933C14.6417 10.8009 14.5482 11.1529 14.3611 11.4493C14.1741 11.7458 13.8187 12.0793 13.295 12.4498C12.9358 12.7129 12.7077 12.913 12.6104 13.0501C12.5169 13.1872 12.4701 13.3669 12.4701 13.5893V13.9228H10.9831ZM10.8035 15.8237C10.8035 15.5124 10.8876 15.2772 11.056 15.1178C11.2243 14.9585 11.4694 14.8788 11.7911 14.8788C12.1016 14.8788 12.341 14.9603 12.5094 15.1234C12.6814 15.2864 12.7675 15.5199 12.7675 15.8237C12.7675 16.1165 12.6814 16.3481 12.5094 16.5185C12.3373 16.6853 12.0978 16.7686 11.7911 16.7686C11.4769 16.7686 11.2337 16.6871 11.0616 16.5241C10.8895 16.3573 10.8035 16.1239 10.8035 15.8237Z" fill="white"/>
</g>
<defs>
<clipPath id="clip0_241_749">
<rect width="24" height="24" fill="white"/>
</clipPath>
</defs>
</svg>
