<svg width="24" height="24" viewBox="0 0 24 24" fill="none" xmlns="http://www.w3.org/2000/svg">
<circle cx="12" cy="12" r="11.5" fill="#4453D9" stroke="white"/>
<path fill-rule="evenodd" clip-rule="evenodd" d="M20.5541 8.9129C20.6807 8.9129 20.8323 9.02697 20.8751 9.17364C21.0416 9.7447 21.0417 10.0716 20.8751 10.6427C20.8324 10.7893 20.6807 10.9034 20.5541 10.9034H18.9093L18.9047 10.9029L18.9296 10.9839C19.2648 11.1152 19.5069 11.4869 19.5069 11.9258V14.9229V15.1699V16.0998H19.5566V17.4533C19.5566 18.3075 18.9031 19 18.097 19C17.2909 19 16.6375 18.3075 16.6375 17.4533V16.163H7.37856V17.4533C7.37856 18.3075 6.72511 19 5.91903 19C5.11295 19 4.4595 18.3075 4.4595 17.4533V16.0998H4.4932V15.1699V14.9229V11.9258C4.4932 11.4868 4.73535 11.1151 5.07072 10.9839L5.09553 10.9029L5.09074 10.9035H3.44598C3.31942 10.9035 3.16772 10.7894 3.12493 10.6427C2.95841 10.0716 2.95832 9.7447 3.12489 9.17364C3.16767 9.02697 3.31937 8.9129 3.44594 8.9129H5.0907C5.21727 8.9129 5.36897 9.02697 5.41175 9.17364C5.45367 9.31736 5.48495 9.44561 5.5058 9.56618L6.60451 5.9868C6.78581 5.39652 7.26563 5 7.79859 5H16.2015C16.7345 5 17.2144 5.39652 17.3956 5.9867L18.4942 9.56575C18.515 9.44529 18.5463 9.3172 18.5882 9.17364C18.631 9.02697 18.7827 8.9129 18.9093 8.9129H20.5541ZM16.0452 6.75642H7.9538L6.67183 10.9327H17.3272L16.0452 6.75642ZM8.17948 13.8748H6.47283C6.10667 13.8748 5.80988 13.5254 5.80988 13.0942C5.80988 12.6631 6.10662 12.3136 6.47283 12.3136H8.17948C8.5456 12.3136 8.84243 12.6631 8.84243 13.0942C8.84247 13.5254 8.5456 13.8748 8.17948 13.8748ZM15.8205 13.8748H17.5271C17.8933 13.8748 18.1901 13.5254 18.1901 13.0942C18.1901 12.6631 17.8933 12.3136 17.5271 12.3136H15.8205C15.4543 12.3136 15.1575 12.6631 15.1575 13.0942C15.1575 13.5254 15.4543 13.8748 15.8205 13.8748Z" fill="white"/>
</svg>
