<svg width="24" height="24" viewBox="0 0 24 24" fill="none" xmlns="http://www.w3.org/2000/svg">
<rect x="0.5" y="0.5" width="23" height="23" rx="9.5" fill="#055C9D" stroke="white"/>
<path d="M4.69395 16.4399H5.59621V17.7564H7.38983V16.4399H9.76234V17.7564H11.556V16.4399H12.4582C12.8409 16.4399 13.1522 16.1287 13.1522 15.746V15.2555L14.419 13.9887C14.419 13.9439 14.419 11.2201 14.419 10.858L13.1497 9.59243V9.10194C13.1497 8.71924 12.8385 8.40799 12.4558 8.40799H11.0509C11.0509 8.29415 11.0509 7.50573 11.0509 7.39916H11.6528L12.543 5.85745H10.2795C9.85439 5.85745 9.50923 6.20261 9.50923 6.6277C9.50923 6.79362 9.50923 8.23481 9.50923 8.40678H4.69395C4.31125 8.40678 4 8.71803 4 9.10073V9.53551C4 9.65783 4 15.66 4 15.7447C4 16.1287 4.31125 16.4399 4.69395 16.4399ZM6.43186 11.3534L6.9284 11.5132C6.94899 11.4502 6.97321 11.3885 6.99986 11.3291L6.52511 11.1123C6.59657 10.9549 6.68619 10.8072 6.79155 10.6715L7.20453 10.99C7.2445 10.9379 7.2881 10.8871 7.33412 10.8399L6.95989 10.4765C7.07979 10.353 7.21301 10.244 7.35834 10.1495L7.64052 10.5879C7.69623 10.5528 7.75436 10.5189 7.8125 10.4911L7.58239 10.0224C7.73499 9.94728 7.89848 9.88794 8.06803 9.84918L8.1843 10.359C8.24849 10.3445 8.31388 10.3336 8.37928 10.3264L8.32115 9.80679C8.49313 9.78742 8.66631 9.78863 8.83586 9.80801L8.77531 10.3276C8.84071 10.3348 8.90611 10.3469 8.97029 10.3615L9.09019 9.85282C9.25974 9.89278 9.42203 9.95213 9.57462 10.0284L9.3421 10.4959C9.40144 10.525 9.45836 10.5589 9.51407 10.594L9.79868 10.1568C9.94279 10.2513 10.076 10.3615 10.1947 10.485L9.81805 10.8459C9.86407 10.8931 9.90767 10.944 9.94764 10.9961L10.363 10.68C10.4672 10.8168 10.5556 10.9646 10.6271 11.122L10.1511 11.3352C10.1777 11.3957 10.202 11.4575 10.2213 11.5205L10.7191 11.363C10.7712 11.5277 10.8051 11.6997 10.8172 11.879H8.90005L8.57548 10.5819L8.25091 11.879H6.33013C6.34224 11.6985 6.37736 11.5217 6.43186 11.3534ZM11.7243 14.3496H10.8669V12.958H11.7243V14.3496ZM10.6367 14.3496H9.7793V12.958H10.6367V14.3496ZM7.60177 12.958H8.45922V14.3496H7.60177V12.958ZM8.69053 12.958H9.54798V14.3496H8.69053V12.958ZM7.37166 12.958V14.3496H6.51421V12.958H7.37166ZM6.2829 14.3496H5.42545V12.958H6.2829V14.3496Z" fill="white"/>
<path d="M19.9355 6.5514V5H17.5738V6.5514H16.5105V7.39795C16.6752 7.39795 20.8171 7.39795 21 7.39795V6.5514H19.9355Z" fill="white"/>
<path d="M16.5093 7.55297V8.39952H17.5726V9.66874H17.5714H17.4432C17.4432 9.66874 17.3462 9.72324 17.3449 9.7196C16.869 9.87583 16.5093 10.3276 16.5093 10.8762V11.5726H14.8017C14.8017 12.6807 14.8017 11.4333 14.8017 13.2729H16.5093V13.9693C16.5093 14.5882 16.9731 15.1017 17.5726 15.178V16.4472H16.5093V17.7552H20.9988V16.4472H19.9355V15.1792C20.5313 15.1041 20.9988 14.5954 20.9988 13.9705V10.8774C20.9988 10.3397 20.6476 9.88189 20.1631 9.72081C20.1547 9.91822 20.1716 9.51977 20.1631 9.72081L20.0505 9.7196C20.0432 9.52583 19.9439 9.8613 19.9355 9.66995H19.9342V8.39952H20.9976V7.55297C20.8232 7.55297 16.6728 7.55297 16.5093 7.55297Z" fill="white"/>
</svg>
