<svg width="24" height="24" viewBox="0 0 24 24" fill="none" xmlns="http://www.w3.org/2000/svg">
<g clip-path="url(#clip0_66_925)">
<circle cx="12" cy="12" r="11.5" fill="#0E86D4" stroke="white"/>
<path d="M22 9.17569L16.5869 3.9513C16.225 3.61577 15.9618 3.9513 15.9618 3.9513L14.3054 5.62118L17.9868 9.17569H22Z" fill="white"/>
<path d="M14.3445 15.2153C13.9788 14.9056 13.7808 14.6314 13.7866 14.4434C13.7958 14.1663 14.273 13.8133 14.6942 13.5016C15.115 13.1904 15.5497 12.8685 15.8299 12.4517C16.0642 12.103 16.1381 11.692 16.0439 11.2629C15.8758 10.4988 15.1783 9.74693 14.5044 9.17521H16.9825L9.75499 2.19912C9.27194 1.7511 8.92027 2.19912 8.92027 2.19912L2 9.17569H9.52313C10.8042 9.81219 12.0703 10.6795 12.1635 11.1441C12.1693 11.1733 12.1727 11.1889 12.1297 11.2352C11.7273 11.6666 11.181 11.9783 10.652 12.2797C9.85016 12.737 9.09272 13.1685 8.89467 13.9896C8.75748 14.5569 8.93041 15.2031 9.42362 15.9653C10.0864 16.9894 10.0289 18.1504 9.25213 19.4151C8.63092 20.427 7.77205 21.1239 7.76383 21.1302C7.55467 21.2973 7.51989 21.6036 7.68606 21.8145C7.78122 21.9357 7.92228 21.9985 8.06478 21.9985C8.17008 21.9985 8.27587 21.964 8.36476 21.8929C8.40437 21.8612 9.34826 21.0991 10.0598 19.9503C10.624 19.0391 10.8858 18.1401 10.8453 17.2845C11.0066 17.3644 11.2037 17.4223 11.4365 17.4223C11.866 17.4223 12.1553 17.2266 12.3263 17.0571C12.4988 17.227 12.7939 17.4223 13.2407 17.4223C13.361 17.4223 13.4586 17.324 13.4586 17.2027C13.4586 17.0814 13.361 16.9831 13.2407 16.9831C12.7417 16.9831 12.5326 16.629 12.5181 16.6032C12.4809 16.5307 12.4089 16.4849 12.3273 16.4844C12.2461 16.4839 12.1732 16.5292 12.135 16.6018C12.1205 16.6271 11.908 16.9836 11.4365 16.9836C11.2327 16.9836 11.0438 16.9188 10.8752 16.7907C10.8322 16.7581 10.7969 16.7259 10.767 16.6962C10.6718 16.2599 10.4941 15.8372 10.2327 15.433C9.89798 14.9158 9.76369 14.5077 9.83325 14.2199C9.93276 13.8089 10.4863 13.4933 11.1278 13.1276C11.6916 12.8062 12.3311 12.4419 12.834 11.9023C12.8823 11.8507 12.9248 11.7962 12.9615 11.7392C13.0625 11.7879 13.1852 11.8225 13.3291 11.8225C13.6025 11.8225 13.7871 11.6978 13.8958 11.5897C14.0054 11.6978 14.1938 11.8225 14.4783 11.8225C14.5551 11.8225 14.617 11.7596 14.617 11.6827C14.617 11.6053 14.5546 11.5429 14.4783 11.5429C14.1605 11.5429 14.0271 11.3175 14.018 11.3009C13.9943 11.2546 13.9484 11.2254 13.8967 11.2249C13.845 11.2249 13.7987 11.2537 13.7745 11.2994C13.7653 11.3155 13.6301 11.5424 13.3296 11.5424C13.2427 11.5424 13.1596 11.5235 13.0823 11.4864C13.1374 11.317 13.148 11.1353 13.1113 10.9512C13.0692 10.7423 12.9475 10.1385 11.481 9.17569H12.8847C13.747 9.74109 14.9392 10.735 15.1015 11.4743C15.1387 11.6442 15.1169 11.7772 15.0309 11.9057C14.844 12.1838 14.4778 12.4546 14.1233 12.7171C13.5523 13.1393 12.9639 13.5751 12.8432 14.2145C12.8219 14.2019 12.8011 14.1882 12.7809 14.1727C12.6891 14.103 12.6388 14.0314 12.635 14.0256C12.6074 13.9827 12.562 13.9564 12.5113 13.954C12.4606 13.9516 12.4123 13.9749 12.3809 14.0154C12.3785 14.0183 12.1423 14.3115 11.8505 14.3115C11.5515 14.3115 11.2998 14.0558 11.2921 14.0475C11.2626 14.0163 11.2225 13.9973 11.18 13.9973C11.1795 13.9973 11.179 13.9973 11.179 13.9973C11.137 13.9973 11.0964 14.0159 11.067 14.0465C10.9525 14.1649 10.8346 14.2452 10.7153 14.2847C10.6259 14.3139 10.5607 14.3124 10.5293 14.3115C10.5226 14.311 10.5168 14.3115 10.5124 14.3115C10.426 14.3115 10.3554 14.3821 10.3554 14.4697C10.3554 14.5569 10.4255 14.628 10.5119 14.628C10.5144 14.628 10.5168 14.628 10.5202 14.628C10.5289 14.628 10.5404 14.6285 10.554 14.6285C10.6086 14.6285 10.6994 14.6231 10.8129 14.5856C10.9409 14.5433 11.0646 14.4712 11.1829 14.3709C11.3191 14.4775 11.5621 14.6275 11.851 14.6275C12.134 14.6275 12.3649 14.4673 12.4992 14.3451C12.5746 14.4171 12.6838 14.5004 12.8263 14.5579C12.8644 15.0229 13.1591 15.4836 13.7238 15.9619C15.387 17.3697 16.2453 18.8151 16.6728 19.7793C16.81 20.0886 16.9129 20.3696 16.9897 20.6126C16.5265 20.5517 16.3265 20.2167 16.3115 20.1899C16.2695 20.1071 16.1869 20.055 16.0941 20.054C16.0019 20.0535 15.9183 20.1051 15.8753 20.1879C15.8589 20.2167 15.6169 20.6228 15.0788 20.6228C14.8464 20.6228 14.6315 20.5488 14.4392 20.4032C14.2943 20.2931 14.2146 20.1796 14.2078 20.1704C14.1643 20.1027 14.0919 20.0613 14.0122 20.0574C13.9315 20.0535 13.8557 20.0905 13.8059 20.1543C13.802 20.1592 13.4277 20.6233 12.9659 20.6233C12.4925 20.6233 12.094 20.2468 12.0814 20.2337C12.035 20.1845 11.9713 20.1826 11.9036 20.1826C11.9031 20.1826 11.9027 20.1826 11.9017 20.1826C11.835 20.1826 11.7713 20.184 11.7244 20.2322C11.5438 20.4197 11.3563 20.5327 11.1675 20.595C11.0259 20.6418 10.9225 20.6321 10.8728 20.6306C10.8622 20.6301 10.853 20.6267 10.8457 20.6267C10.7085 20.6267 10.5974 20.7372 10.5974 20.8751C10.5974 21.0134 10.7085 21.1244 10.8457 21.1244C10.8491 21.1244 10.8535 21.1244 10.8588 21.1244C10.8728 21.1249 10.8907 21.1254 10.9124 21.1254C10.9993 21.1254 11.1428 21.1166 11.322 21.0577C11.5244 20.991 11.721 20.8765 11.908 20.7173C12.1234 20.8863 12.5084 21.1239 12.9659 21.1239C13.4141 21.1239 13.7798 20.8702 13.9929 20.6769C14.1981 20.8736 14.5619 21.1239 15.0792 21.1239C15.5686 21.1239 15.899 20.9009 16.0937 20.7075C16.2893 20.9009 16.6245 21.1224 17.1313 21.1239C17.1941 21.3952 17.2095 21.552 17.21 21.5549C17.2317 21.8086 17.4428 22 17.6906 22C17.7047 22 17.7187 21.9995 17.7332 21.9981C17.9988 21.9747 18.1959 21.739 18.1727 21.4706C18.1592 21.3367 17.8505 18.1845 14.3445 15.2153Z" fill="white"/>
</g>
<defs>
<clipPath id="clip0_66_925">
<rect width="24" height="24" fill="white"/>
</clipPath>
</defs>
</svg>
