<svg width="24" height="24" viewBox="0 0 24 24" fill="none" xmlns="http://www.w3.org/2000/svg">
<g clip-path="url(#clip0_66_922)">
<circle cx="12" cy="12" r="11.5" fill="#0E86D4" stroke="white"/>
<path d="M10.3594 2.66439C10.3594 2.66439 17.5 6.28923 15.125 8.70737C12.7344 11.1239 5 14.2762 5 17.7742C5 21.2706 7.23438 22 7.23438 22L9.5 23L12 23.1847L14.5 23L16.7188 22C16.7188 22 10.9531 18.2261 10.9531 16.5643C10.9531 14.9041 18.6875 11.7312 18.6875 8.70737C18.6875 5.68826 10.3594 2.66439 10.3594 2.66439ZM10.5625 4.14699C10.0469 4.14699 9.65625 4.5006 9.65625 4.93348C9.65625 5.02862 9.67188 5.12376 9.70312 5.21256C9.34375 5.3077 9.07812 5.68509 9.07812 6.11797C9.09375 6.63649 9.4375 7.04559 9.90625 7.04559C9.90625 7.27075 10.0781 7.46262 10.3281 7.53873V8.59954C10.3281 8.74225 10.375 8.858 10.4219 8.858H10.7656C10.8125 8.858 10.8594 8.74225 10.8594 8.59954V7.51177C11.0781 7.41981 11.2188 7.2327 11.2188 7.00119C11.75 6.99643 12.1094 6.59209 12.1094 6.07833C12.1094 5.63117 11.8281 5.24586 11.4375 5.16499C11.4688 5.08888 11.4844 5.01118 11.4844 4.93348C11.4844 4.49901 11.0625 4.14541 10.5625 4.14699ZM17.0156 12.4432C16.2656 12.4432 15.6719 12.9633 15.6719 13.5991C15.6719 13.7403 15.7031 13.8798 15.7656 14.0098C15.2188 14.151 14.8438 14.7044 14.8438 15.3418C14.8438 16.1045 15.375 16.707 16.0625 16.707C16.0625 17.0432 16.3281 17.3286 16.6875 17.438V18.992C16.6875 19.2029 16.75 19.371 16.8281 19.371H17.3125C17.3906 19.371 17.4531 19.2029 17.4531 18.992V17.3984C17.7656 17.2636 17.9844 16.9845 17.9844 16.642C18.75 16.6262 19.2969 16.0411 19.2969 15.2847C19.2969 14.6267 18.875 14.0622 18.3125 13.9432C18.3438 13.8322 18.375 13.7181 18.375 13.6023C18.375 12.9585 17.7656 12.44 17.0156 12.4432Z" fill="white"/>
</g>
<defs>
<clipPath id="clip0_66_922">
<rect width="24" height="24" fill="white"/>
</clipPath>
</defs>
</svg>
