<svg width="24" height="24" viewBox="0 0 24 24" fill="none" xmlns="http://www.w3.org/2000/svg">
<g clip-path="url(#clip0_66_919)">
<circle cx="12" cy="12" r="11.5" fill="#0E86D4" stroke="white"/>
<path d="M3 18.4423H3.44231C7.67678 18.4423 10.4011 17.6602 11.7707 16.0514C13.151 14.43 12.8212 12.3696 12.5803 10.8652C12.5036 10.3854 12.4373 9.97098 12.4373 9.65269C12.4373 8.5054 13.008 7.69378 14.1823 7.17143C14.7997 6.89684 15.9021 6.56944 17.6475 6.56944H22L20 4H17.6475C16.2542 4 14.2179 4.11736 12.429 4.6766C11.31 5.02637 10.4219 5.51033 9.78954 6.11499C9.00246 6.86756 8.60343 7.80493 8.60343 8.90104C8.60343 9.5624 8.41588 10.0708 8.0302 10.4552C7.05478 11.4275 4.96915 11.4179 3.72346 11.4121C3.62537 11.4117 3.53142 11.4112 3.44231 11.4112H1V14.9268L3 18.4423Z" fill="white"/>
<path d="M14.8829 16.2085C15.313 16.8792 16.0779 17.0965 16.7388 17.1452V18.557C16.7388 18.8016 16.9368 19 17.1811 19C17.4255 19 17.6235 18.8016 17.6235 18.557V17.1223C18.6425 16.9902 19.1687 16.5036 19.4366 16.0858C19.6192 15.8011 19.7178 15.4856 19.7446 15.2222C20.333 14.8589 20.6993 14.2144 20.6993 13.5069C20.6993 12.9805 20.4939 12.4809 20.136 12.1088C20.2176 11.9084 20.2598 11.6934 20.2598 11.472C20.2598 10.6293 19.6403 9.92886 18.8335 9.80319C18.651 9.06817 17.9863 8.52183 17.1966 8.52183C16.4085 8.52183 15.7449 9.06574 15.5608 9.79847C14.7384 9.91054 14.1026 10.6183 14.1026 11.4719C14.1026 11.6934 14.1448 11.9084 14.2264 12.1088C13.8686 12.4809 13.6631 12.9805 13.6631 13.5069C13.6631 14.2043 14.019 14.8404 14.5926 15.2064C14.5929 15.4966 14.6648 15.8683 14.8829 16.2085Z" fill="white"/>
<path d="M4.57812 5.7865C4.57812 5.35361 4.96875 5.00001 5.48438 5.00001C5.98438 4.99842 6.40625 5.35203 6.40625 5.7865C6.40625 5.86419 6.39062 5.94189 6.35938 6.018C6.75 6.09887 7.03125 6.48419 7.03125 6.93135C7.03125 7.4451 6.67188 7.84945 6.14062 7.8542C6.14062 8.08571 6 8.27282 5.78125 8.36479V9.45255C5.78125 9.59527 5.73438 9.71102 5.6875 9.71102H5.34375C5.29688 9.71102 5.25 9.59527 5.25 9.45255V8.39174C5 8.31563 4.82812 8.12377 4.82812 7.8986C4.35938 7.8986 4.01562 7.4895 4 6.97099C4 6.5381 4.26562 6.16071 4.625 6.06558C4.59375 5.97678 4.57812 5.88164 4.57812 5.7865Z" fill="white"/>
</g>
<defs>
<clipPath id="clip0_66_919">
<rect width="24" height="24" fill="white"/>
</clipPath>
</defs>
</svg>
