<svg width="24" height="24" viewBox="0 0 24 24" fill="none" xmlns="http://www.w3.org/2000/svg">
<rect x="0.5" y="0.5" width="23" height="23" rx="9.5" fill="#055C9D" stroke="white"/>
<path d="M11.5486 7.50617V11.8794L12.5 12.8308L13.4514 11.8794V7.50617L12.5 6.55476L11.5486 7.50617Z" fill="white"/>
<path d="M9.9993 7.50617V11.8794L11.0469 12.926H12.3043L11.3421 11.9648V7.42076L12.2286 6.53422H10.9713L9.9993 7.50617Z" fill="white"/>
<path d="M12.6957 12.926H13.9531L15.0007 11.8794V7.50617L14.0287 6.53422H12.7724L13.6579 7.42076V11.9648L12.6957 12.926Z" fill="white"/>
<path d="M10.6242 13.9585C10.6318 13.9585 14.3671 13.9585 14.3747 13.9585V13.1325C14.2104 13.1325 10.7875 13.1325 10.6242 13.1325V13.9585Z" fill="white"/>
<path d="M10.755 12.926L10.6447 12.8157L9.7928 11.9638V7.42076L10.6793 6.53422C10.5237 6.53422 9.40359 6.53422 9.23709 6.53422L8.36568 7.40562V11.9789L9.31277 12.926C9.45008 12.926 10.5745 12.926 10.755 12.926Z" fill="white"/>
<path d="M15.6029 6.32772V4.826C15.6029 4.37083 15.2321 4 14.7769 4H10.222C9.76685 4 9.39602 4.37083 9.39602 4.826V6.3288C9.53549 6.32772 15.5575 6.32772 15.6029 6.32772Z" fill="white"/>
<path d="M14.3207 6.53422L15.2072 7.42076V11.9648C14.2871 12.8849 14.4028 12.7692 14.245 12.9271C14.4255 12.9271 15.5488 12.9271 15.6872 12.9271L16.6343 11.98V7.4067L15.7629 6.5353C15.5997 6.53422 14.5001 6.53422 14.3207 6.53422Z" fill="white"/>
<path d="M5.82066 16.1359H4V18.2442H5.82066V19.1934H6.67476C6.67476 18.9761 6.67476 15.4223 6.67476 15.1856H5.82066V16.1359Z" fill="white"/>
<path d="M17.3327 14.3023C17.3273 14.3023 10.6296 14.3023 10.6242 14.3023C9.83497 14.3098 9.33331 15.1564 9.70415 15.8505C9.77875 15.8591 12.1184 16.1219 12.2394 16.1348C12.1875 16.1348 7.71051 16.1348 7.66726 16.1348V15.1856H6.81315C6.81315 15.4223 6.81315 18.9761 6.81315 19.1934H7.66726V18.2442H14.365C14.9466 18.2442 15.4191 17.7717 15.4191 17.19C15.4191 16.8819 15.2861 16.604 15.0742 16.4105H17.3327V17.3598H18.1868V17.0841C18.1868 16.9035 18.1868 13.4763 18.1868 13.3519H17.3327V14.3023Z" fill="white"/>
<path d="M19.1793 14.3023V13.353H18.3252C18.3252 13.5033 18.3252 16.9349 18.3252 17.0852V17.3608H19.1793V16.4116H21V14.3034H19.1793V14.3023Z" fill="white"/>
</svg>
