<svg width="24" height="24" viewBox="0 0 24 24" fill="none" xmlns="http://www.w3.org/2000/svg">
<circle cx="12" cy="12" r="11.5" fill="#4453D9" stroke="white"/>
<path d="M6.41908 19.849H17.1619V21H6.41908V19.849Z" fill="white"/>
<path d="M12.8555 12.6121H10.6453C10.4499 12.6121 10.2625 12.6893 10.1244 12.8266C9.98621 12.9639 9.90858 13.1502 9.90858 13.3444V14.0514H13.5922V13.3444C13.5922 13.1502 13.5147 12.9639 13.3765 12.8266C13.2383 12.6893 13.0509 12.6121 12.8555 12.6121Z" fill="white"/>
<path d="M12.1193 16.612H11.3826V17.3443H12.1193V16.612Z" fill="white"/>
<path d="M9.90858 19.8816H13.5922V14.4153H9.90858V19.8816ZM10.6453 16.2459C10.6453 16.1488 10.6841 16.0557 10.7532 15.987C10.8223 15.9184 10.916 15.8798 11.0137 15.8798H12.4872C12.5848 15.8798 12.6786 15.9184 12.7476 15.987C12.8167 16.0557 12.8555 16.1488 12.8555 16.2459V17.7104C12.8555 17.8075 12.8167 17.9007 12.7476 17.9693C12.6786 18.038 12.5848 18.0766 12.4872 18.0766H11.0137C10.916 18.0766 10.8223 18.038 10.7532 17.9693C10.6841 17.9007 10.6453 17.8075 10.6453 17.7104V16.2459Z" fill="white"/>
<path d="M17.1219 9.95136L12.5766 7.66637L17.5341 5.23016C17.7089 5.43195 17.9518 5.56353 18.2172 5.6003C18.4826 5.63707 18.7524 5.57651 18.9761 5.42995C19.1999 5.28338 19.3622 5.06085 19.4329 4.80394C19.5036 4.54703 19.4777 4.27334 19.3601 4.03403L19.0377 3.375L17.0485 4.33571L17.1727 4.58944L12.1191 7.07507V6.41604C12.1191 6.31894 12.0803 6.22581 12.0112 6.15715C11.9421 6.08849 11.8484 6.04991 11.7507 6.04991C11.653 6.04991 11.5593 6.08849 11.4902 6.15715C11.4211 6.22581 11.3823 6.31894 11.3823 6.41604V7.07507L6.7409 4.79703C6.78156 4.53807 6.72747 4.2732 6.58847 4.05049C6.44942 3.82779 6.23466 3.66201 5.98315 3.58324C5.73164 3.50448 5.46005 3.51795 5.21768 3.62122C4.97531 3.72449 4.77822 3.9107 4.6622 4.14606L4.33988 4.80509L6.32906 5.76617L6.46904 5.47986L10.9035 7.65576L5.99643 9.97223C5.81019 9.79265 5.56624 9.68408 5.30744 9.6656C5.04865 9.64707 4.79158 9.7198 4.58139 9.87103C4.37121 10.0222 4.22136 10.2422 4.1582 10.4923C4.09503 10.7424 4.12257 11.0067 4.236 11.2386L4.55832 11.8977L6.54566 10.9366L6.38174 10.6016L11.3823 8.24083V11.5555C11.2277 11.6105 11.0872 11.6988 10.9711 11.8142C10.855 11.9297 10.7661 12.0693 10.7108 12.223H12.7906C12.7354 12.0693 12.6465 11.9297 12.5303 11.8142C12.4142 11.6988 12.2737 11.6105 12.1191 11.5555V8.25693L16.8537 10.6367C16.8192 10.8948 16.8782 11.1568 17.0202 11.3756C17.1622 11.5944 17.378 11.7558 17.6288 11.8309C17.8797 11.906 18.1493 11.8899 18.3893 11.7855C18.6293 11.6811 18.824 11.4951 18.9387 11.261L19.261 10.602L17.2718 9.64123L17.1219 9.95136Z" fill="white"/>
</svg>
