<svg width="24" height="24" viewBox="0 0 24 24" fill="none" xmlns="http://www.w3.org/2000/svg">
<g clip-path="url(#clip0_66_1055)">
<rect x="0.5" y="0.5" width="23" height="23" rx="9.5" fill="white" stroke="white"/>
<path d="M20 14.185V11.816C20.5832 11.6103 21.0884 11.2292 21.4465 10.7251C21.8045 10.2209 21.9979 9.61836 22 9C22 7.346 20.654 6 19 6C18.607 5.9998 18.2179 6.07707 17.8548 6.22738C17.4917 6.37769 17.1618 6.5981 16.884 6.876L12.969 5.31C12.979 5.207 13 5.106 13 5C13 3.346 11.654 2 10 2C8.346 2 7 3.346 7 5C7 5.762 7.295 6.451 7.765 6.981L6.091 9.212C5.74387 9.07347 5.37375 9.00155 5 9C3.346 9 2 10.346 2 12C2 13.654 3.346 15 5 15C5.159 15 5.313 14.977 5.465 14.953L7.4 17.532C7.152 17.968 7 18.464 7 19C7 20.654 8.346 22 10 22C10.6455 21.9977 11.2731 21.7869 11.789 21.3989C12.305 21.0109 12.6817 20.4666 12.863 19.847L16.825 19.055C17.1038 19.3527 17.4406 19.5901 17.8147 19.7526C18.1888 19.9151 18.5922 19.9993 19 20C20.654 20 22 18.654 22 17C21.998 16.3817 21.8046 15.7793 21.4465 15.2752C21.0884 14.7712 20.5832 14.3904 20 14.185ZM12.761 17.828C12.5304 17.2864 12.1458 16.8244 11.655 16.4994C11.1642 16.1744 10.5887 16.0008 10 16C9.614 16 9.248 16.079 8.909 16.213L7.235 13.982C7.705 13.451 8 12.762 8 12C8 11.464 7.848 10.968 7.601 10.533L9.536 7.953C9.688 7.977 9.841 8 10 8C10.393 8.0002 10.7821 7.92293 11.1452 7.77262C11.5083 7.62231 11.8382 7.4019 12.116 7.124L16.031 8.69C16.021 8.793 16 8.894 16 9C16 10.302 16.839 11.401 18 11.815V14.184C17.4169 14.3895 16.9117 14.7704 16.5536 15.2744C16.1956 15.7784 16.0022 16.3808 16 16.999C16 17.06 16.015 17.116 16.018 17.176L12.761 17.828Z" fill="#0054DE"/>
</g>
<defs>
<clipPath id="clip0_66_1055">
<rect width="24" height="24" fill="white"/>
</clipPath>
</defs>
</svg>
