<svg width="24" height="24" viewBox="0 0 24 24" fill="none" xmlns="http://www.w3.org/2000/svg">
<g clip-path="url(#clip0_66_1040)">
<circle cx="12" cy="12" r="11.5" fill="white" stroke="white"/>
<path d="M17.0487 8.94099C16.9163 9.04082 16.79 9.14949 16.6695 9.26999C16.5575 9.38199 16.4558 9.49915 16.3643 9.61882C16.2315 9.79248 15.9723 9.82648 15.8178 9.67198L13.0907 6.94437C12.12 7.36906 10.9675 7.20727 10.179 6.41859C9.16801 5.40748 9.16801 3.76946 10.179 2.75835C11.19 1.74722 12.8277 1.74722 13.8387 2.75835C14.6273 3.54701 14.789 4.71991 14.3645 5.67038L17.099 8.40534C17.2513 8.55759 17.2205 8.81115 17.0487 8.94099Z" fill="#354C85"/>
<path d="M6.41806 13.8401C5.40705 14.8513 3.76924 14.8513 2.75825 13.8401C1.74725 12.8291 1.74725 11.1708 2.75825 10.1598C3.54682 9.37115 4.71957 9.20932 5.64969 9.63399L8.38424 6.89906C8.53651 6.74679 8.79018 6.77767 8.91984 6.94949C9.01984 7.08179 9.12834 7.20816 9.24884 7.32861C9.36934 7.44907 9.49568 7.55767 9.62801 7.65762C9.79968 7.78741 9.83068 8.04097 9.67834 8.19322L6.94377 10.9282C7.36839 11.8988 7.20662 13.0515 6.41806 13.8401Z" fill="#354C85"/>
<path d="M13.8185 21.2416C12.8075 22.2528 11.1697 22.2528 10.1587 21.2416C9.37018 20.453 9.20834 19.2801 9.61284 18.3498L6.87816 15.6148C6.72594 15.4626 6.75681 15.209 6.92859 15.0793C7.06091 14.9793 7.18728 14.8706 7.30772 14.7503C7.42816 14.6298 7.53673 14.5035 7.63666 14.3711C7.76642 14.1993 8.02006 14.1685 8.17231 14.3206L10.9068 17.0556C11.8773 16.631 13.03 16.7926 13.8185 17.5813C14.8295 18.5925 14.8295 20.2305 13.8185 21.2416Z" fill="#354C85"/>
<path d="M21.2392 10.1598C20.2282 9.14865 18.5904 9.14865 17.5794 10.1598C16.7908 10.9485 16.629 12.1011 17.0537 13.0718L14.319 15.8068C14.1668 15.959 14.1977 16.2126 14.3695 16.3423C14.5018 16.4423 14.6282 16.551 14.7487 16.6713C14.869 16.7918 14.9777 16.9181 15.0775 17.0505C15.2073 17.2223 15.461 17.2531 15.6132 17.101L18.3479 14.366C19.2982 14.7906 20.4709 14.629 21.2595 13.8401C22.2502 12.8291 22.2502 11.1708 21.2392 10.1598Z" fill="#354C85"/>
</g>
<defs>
<clipPath id="clip0_66_1040">
<rect width="24" height="24" fill="white"/>
</clipPath>
</defs>
</svg>
