<svg width="24" height="24" viewBox="0 0 24 24" fill="none" xmlns="http://www.w3.org/2000/svg">
<g clip-path="url(#clip0_66_1052)">
<rect x="0.5" y="0.5" width="23" height="23" rx="3.5" fill="white" stroke="white"/>
<path d="M19.494 9.05C19.0846 8.02387 18.4706 7.09182 17.6894 6.31061C16.9082 5.52941 15.9761 4.9154 14.95 4.506C14.713 3.088 13.485 2 12 2C10.515 2 9.287 3.088 9.05 4.506C8.02375 4.9152 7.09159 5.52913 6.31036 6.31036C5.52913 7.09159 4.9152 8.02375 4.506 9.05C3.088 9.287 2 10.515 2 12C2 13.485 3.088 14.713 4.506 14.95C4.9154 15.9761 5.52941 16.9082 6.31061 17.6894C7.09182 18.4706 8.02387 19.0846 9.05 19.494C9.287 20.912 10.515 22 12 22C13.485 22 14.713 20.912 14.95 19.494C15.9761 19.0846 16.9082 18.4706 17.6894 17.6894C18.4706 16.9082 19.0846 15.9761 19.494 14.95C20.912 14.713 22 13.485 22 12C22 10.515 20.912 9.287 19.494 9.05ZM14.583 17.488C14.577 17.477 14.566 17.469 14.561 17.459C14.3139 17.0488 13.9724 16.7036 13.565 16.452C13.511 16.419 13.456 16.392 13.399 16.362C13.2436 16.2791 13.0809 16.2104 12.913 16.157C12.849 16.136 12.785 16.113 12.719 16.096C12.486 16.039 12.248 16 12 16C11.752 16 11.514 16.039 11.282 16.097C11.216 16.114 11.152 16.136 11.087 16.158C10.9195 16.2116 10.7572 16.2802 10.602 16.363C10.546 16.392 10.49 16.42 10.436 16.453C10.0286 16.7046 9.68708 17.0498 9.44 17.46C9.434 17.471 9.423 17.479 9.418 17.489C8.1453 16.8823 7.11971 15.8567 6.513 14.584C6.524 14.578 6.532 14.567 6.542 14.562C6.95218 14.3149 7.29743 13.9734 7.549 13.566C7.582 13.512 7.61 13.456 7.639 13.4C7.722 13.246 7.789 13.084 7.844 12.915C7.865 12.85 7.888 12.786 7.905 12.72C7.961 12.486 8 12.248 8 12C8 11.752 7.961 11.514 7.903 11.282C7.88524 11.2166 7.86489 11.1518 7.842 11.088C7.78856 10.9201 7.71994 10.7574 7.637 10.602C7.607 10.545 7.58 10.49 7.547 10.436C7.29543 10.0286 6.95018 9.68708 6.54 9.44C6.53 9.434 6.522 9.423 6.512 9.417C7.11871 8.1443 8.1443 7.11871 9.417 6.512C9.423 6.522 9.434 6.53 9.439 6.541C9.687 6.952 10.027 7.296 10.435 7.548C10.489 7.581 10.545 7.609 10.601 7.638C10.756 7.721 10.917 7.788 11.087 7.843C11.151 7.864 11.215 7.887 11.281 7.904C11.514 7.961 11.751 8 12 8C12.3104 7.99582 12.6182 7.94249 12.912 7.842C13.082 7.787 13.243 7.72 13.398 7.637C13.454 7.608 13.51 7.58 13.564 7.547C13.972 7.295 14.312 6.951 14.56 6.54C14.566 6.529 14.577 6.521 14.582 6.511C15.8547 7.11771 16.8803 8.1433 17.487 9.416C17.476 9.422 17.468 9.433 17.458 9.438C17.0478 9.68508 16.7026 10.0266 16.451 10.434C16.418 10.488 16.39 10.544 16.361 10.6C16.278 10.755 16.211 10.916 16.156 11.086C16.135 11.15 16.112 11.214 16.095 11.28C16.035 11.5154 16.0031 11.7571 16 12C16.0042 12.3104 16.0575 12.6182 16.158 12.912C16.213 13.082 16.28 13.243 16.363 13.398C16.392 13.454 16.42 13.51 16.453 13.564C16.705 13.972 17.049 14.312 17.46 14.56C17.471 14.566 17.479 14.577 17.489 14.582C16.8826 15.8555 15.8565 16.8816 14.583 17.488Z" fill="#36714D"/>
</g>
<defs>
<clipPath id="clip0_66_1052">
<rect width="24" height="24" fill="white"/>
</clipPath>
</defs>
</svg>
