<svg width="24" height="24" viewBox="0 0 24 24" fill="none" xmlns="http://www.w3.org/2000/svg">
<g clip-path="url(#clip0_127_1146)">
<circle cx="12" cy="12" r="11.5" fill="#354C85" stroke="white"/>
<path d="M14.5243 10.4705C14.4581 10.5204 14.395 10.5747 14.3347 10.635C14.2787 10.691 14.2279 10.7496 14.1821 10.8094C14.1157 10.8962 13.9862 10.9132 13.9089 10.836L12.5453 9.47219C12.06 9.68453 11.4837 9.60364 11.0895 9.2093C10.584 8.70374 10.584 7.88473 11.0895 7.37917C11.595 6.87361 12.4138 6.87361 12.9193 7.37917C13.3137 7.77351 13.3945 8.35996 13.1822 8.83519L14.5495 10.2027C14.6256 10.2788 14.6102 10.4056 14.5243 10.4705Z" fill="white"/>
<path d="M9.20902 12.9201C8.70352 13.4257 7.88461 13.4257 7.37912 12.9201C6.87363 12.4146 6.87363 11.5854 7.37912 11.0799C7.77341 10.6856 8.35978 10.6047 8.82484 10.817L10.1921 9.44953C10.2682 9.37339 10.3951 9.38884 10.4599 9.47474C10.5099 9.54089 10.5642 9.60408 10.6244 9.6643C10.6847 9.72454 10.7478 9.77884 10.814 9.82881C10.8998 9.8937 10.9153 10.0205 10.8392 10.0966L9.47188 11.4641C9.68419 11.9494 9.6033 12.5257 9.20902 12.9201Z" fill="white"/>
<path d="M12.9092 16.6208C12.4037 17.1264 11.5848 17.1264 11.0793 16.6208C10.6851 16.2265 10.6042 15.6401 10.8064 15.1749L9.43907 13.8074C9.36296 13.7313 9.3784 13.6045 9.46429 13.5397C9.53045 13.4897 9.59363 13.4353 9.65385 13.3752C9.71407 13.3149 9.76835 13.2517 9.81832 13.1856C9.8832 13.0997 10.01 13.0842 10.0861 13.1603L11.4534 14.5278C11.9387 14.3155 12.515 14.3963 12.9092 14.7906C13.4147 15.2962 13.4147 16.1152 12.9092 16.6208Z" fill="white"/>
<path d="M16.6196 11.0799C16.1141 10.5743 15.2951 10.5743 14.7896 11.0799C14.3954 11.4742 14.3145 12.0506 14.5268 12.5359L13.1595 13.9034C13.0834 13.9795 13.0988 14.1063 13.1847 14.1712C13.2509 14.2212 13.3141 14.2755 13.3743 14.3357C13.4345 14.3959 13.4888 14.4591 13.5387 14.5252C13.6037 14.6111 13.7305 14.6266 13.8066 14.5505L15.1739 13.183C15.6491 13.3953 16.2354 13.3145 16.6297 12.9201C17.1251 12.4146 17.1251 11.5854 16.6196 11.0799Z" fill="white"/>
<path fill-rule="evenodd" clip-rule="evenodd" d="M22 12C22 17.5228 17.5228 22 12 22C6.47715 22 2 17.5228 2 12C2 6.47715 6.47715 2 12 2C17.5228 2 22 6.47715 22 12ZM21 12C21 16.3571 17.9037 19.9911 13.7915 20.8217C16.8951 19.1243 19 15.829 19 12.0422C19 8.15565 16.7828 4.78696 13.5443 3.13198C17.779 3.86426 21 7.55598 21 12ZM12 20.5301C15.4956 19.2946 18 15.9609 18 12.0422C18 8.12354 15.4956 4.78982 12 3.55431C8.50442 4.78982 6 8.12354 6 12.0422C6 15.9609 8.50442 19.2946 12 20.5301ZM5 12.0422C5 15.829 7.10491 19.1243 10.2085 20.8217C6.09625 19.9911 3 16.3571 3 12C3 7.55598 6.22095 3.86426 10.4557 3.13198C7.21719 4.78696 5 8.15565 5 12.0422Z" fill="white"/>
</g>
<defs>
<clipPath id="clip0_127_1146">
<rect width="24" height="24" fill="white"/>
</clipPath>
</defs>
</svg>
